<?xml version="1.0" encoding="UTF-8"?>
<svg id="Layer_1" data-name="Layer 1" xmlns="http://www.w3.org/2000/svg" viewBox="0 0 332.02 458.18">
  <defs>
    <style>
      .cls-1 {
        fill: none;
        stroke: #231f20;
        stroke-miterlimit: 10;
      }

      .cls-2 {
        fill: #0a3d1f;
      }

      .cls-3 {
        fill: #2bb673;
      }

      .cls-4 {
        fill: #00a651;
      }

      .cls-5 {
        fill: #006838;
      }
    </style>
  </defs>
  <g>
    <path class="cls-4" d="m174.91,13.66L231.57.5l52.73.02,43.47,10.37h-33.61l-29.26,18.63-12.81,24.46,23.06-1.05-35.45,12.82-14.63,13.04-11.24,17.27-10.77,27.56v5.8l7.22,6.89,8.02,10.52v6.85l-16.86-13.66-18.37,3.23-26.87,16.33-15.06,22.26,6.69,28.47-.22.03-1.18-1.25.21-.87c-.48-.12-.96-.25-1.43-.42l-12.92-13.63-14.19-28.04-1.04-.62h0s.11-.18.11-.18l.68-.52,1.01.61,14.29,28.23,12.94,13.63-6.02-25.64,15.52-22.86,27.12-16.48.1-.02,5.21-.92,13.7-2.4,15.58,12.62v-4.41l-7.76-10.19-7.48-7.14.03-6.49,10.87-27.79,11.39-17.47,14.92-13.24,9.04-3.27,20.32-7.35-18.24.83,13.74-26.24,29.74-18.93h25.4l-35.15-8.39h-52.49l-56.43,13.12-37.31,20.15-38.72,31.84-19.63,25.3-13.45,13.68c-.42-.07-.84-.12-1.26-.15l13.96-14.19,19.7-25.38,38.85-31.92,37.57-20.29Z"/>
    <path class="cls-3" d="m231.63,1.5h52.49l35.15,8.39h-25.4l-29.74,18.93-13.74,26.24,18.24-.83-20.32,7.35-.15-.41.12-1c-13.43-1.5-27.31-3.06-40.82-.1-4.38.96-8.69,2.41-12.85,3.81-2.55.86-5.18,1.74-7.79,2.5-6.97,2.03-14.26,3.32-21.32,4.57-5.22.93-10.62,1.88-15.86,3.13-24.09,5.74-45.84,17.75-66.88,29.37l.48.87c7.92-4.37,15.95-8.8,24.16-12.93l.47.96c-2.93,4.51-3.52,10.39-1.52,15.35l-.04.91c-8.9-.39-17.81-.55-26.68-.48v1c11.85-.09,23.74.22,35.6.95l-.14,2.38c-10.29-.66-20.67-.36-31,.9l.12.99-1.05,2.71c-.3-.4-.59-.8-.87-1.2l-.81.58c.29.41.58.81.88,1.22l-2.42,1.31c-1.05-1.13-1.96-2.39-2.71-3.73-.26-.47-.51-.96-.75-1.45-.09-.18-.19-.37-.28-.56-.08-1.63-.41-3.49-.65-4.59l-.78-3.51-.98.21.78,3.51c.14.63.29,1.45.42,2.31-2.01-2.94-5.3-4.97-8.9-5.57l13.45-13.68,19.63-25.3,38.72-31.84,37.31-20.15L231.63,1.5Zm55.59,3.52l-11.87-1.41-.11.99,11.86,1.41.12-.99Zm-25.62-.76c-4.83-.28-9.7.25-14.41.77l-26.98,2.95.11,1,26.98-2.96c4.67-.51,9.49-1.04,14.24-.76l.06-1Zm-83.88,15.23l-.34-.93c-7.31,2.66-14.27,6.19-20.68,10.48l-.37.24c-3.68,2.47-7.85,5.26-12.17,4.45l-.18.98c4.71.89,9.07-2.02,12.91-4.6l.36-.24c6.35-4.24,13.23-7.73,20.47-10.38Zm75.45,21.64l-.97-.24c-.68,2.82-1.96,5.55-3.71,7.91l.81.6c1.82-2.47,3.16-5.33,3.87-8.27Zm-121.99,3.52l-.76.65c.93,1.1-.87,2.89-1.68,3.61-6.62,5.82-10.23,14.41-9.66,22.99l1-.06c-.55-8.26,2.93-16.56,9.32-22.18,1.51-1.33,2.29-2.58,2.29-3.65,0-.5-.17-.95-.51-1.36Zm-10,5.26l-.83-.56c-1.27,1.88-3.19,3.19-5.21,4.57-1.18.8-2.4,1.63-3.48,2.59-1.91,1.69-3.38,3.76-4.8,5.77-1.21,1.7-2.46,3.47-3.95,4.95-1.73,1.71-3.78,3.07-5.74,4.29l.53.84c2.01-1.24,4.12-2.63,5.91-4.42,1.56-1.54,2.83-3.34,4.06-5.08,1.39-1.96,2.83-3.99,4.65-5.6,1.03-.92,2.23-1.73,3.38-2.52,2.02-1.37,4.1-2.79,5.48-4.83Zm123.72,5.38c-17.56-1.04-34.89,2.83-51.64,6.58l-30.72,6.86c-4.47,1-9.09,2.04-13.6,3.17-23.35,5.87-45.72,14.82-66.47,26.6l.49.87c20.68-11.74,42.96-20.65,66.22-26.5,4.5-1.13,9.12-2.16,13.58-3.16l30.72-6.87c16.69-3.73,33.94-7.59,51.36-6.55l.06-1Zm-129.34,8.17l-.97-.24c-.83,3.45-.96,7.11-.39,10.61l.99-.17c-.55-3.35-.42-6.89.37-10.2Zm-24.75,21.03l-.83-.56-8.61,12.59.83.57,8.61-12.6Z"/>
    <polygon class="cls-4" points="275.35 3.61 287.22 5.02 287.1 6.01 275.24 4.6 275.35 3.61"/>
    <path class="cls-4" d="m247.19,5.03c4.71-.52,9.58-1.05,14.41-.77l-.06,1c-4.75-.28-9.57.25-14.24.76l-26.98,2.96-.11-1,26.98-2.95Z"/>
    <path class="cls-4" d="m177.38,18.56l.34.93c-7.24,2.65-14.12,6.14-20.47,10.38l-.36.24c-3.84,2.58-8.2,5.49-12.91,4.6l.18-.98c4.32.81,8.49-1.98,12.17-4.45l.37-.24c6.41-4.29,13.37-7.82,20.68-10.48Z"/>
    <path class="cls-4" d="m252.2,40.89l.97.24c-.71,2.94-2.05,5.8-3.87,8.27l-.81-.6c1.75-2.36,3.03-5.09,3.71-7.91Z"/>
    <path class="cls-4" d="m130.42,45.3l.76-.65c.34.41.51.86.51,1.36,0,1.07-.78,2.32-2.29,3.65-6.39,5.62-9.87,13.92-9.32,22.18l-1,.06c-.57-8.58,3.04-17.17,9.66-22.99.81-.72,2.61-2.51,1.68-3.61Z"/>
    <path class="cls-4" d="m120.35,49.35l.83.56c-1.38,2.04-3.46,3.46-5.48,4.83-1.15.79-2.35,1.6-3.38,2.52-1.82,1.61-3.26,3.64-4.65,5.6-1.23,1.74-2.5,3.54-4.06,5.08-1.79,1.79-3.9,3.18-5.91,4.42l-.53-.84c1.96-1.22,4.01-2.58,5.74-4.29,1.49-1.48,2.74-3.25,3.95-4.95,1.42-2.01,2.89-4.08,4.8-5.77,1.08-.96,2.3-1.79,3.48-2.59,2.02-1.38,3.94-2.69,5.21-4.57Z"/>
    <path class="cls-4" d="m193.26,61.87c16.75-3.75,34.08-7.62,51.64-6.58l-.06,1c-17.42-1.04-34.67,2.82-51.36,6.55l-30.72,6.87c-4.46,1-9.08,2.03-13.58,3.16-23.26,5.85-45.54,14.76-66.22,26.5l-.49-.87c20.75-11.78,43.12-20.73,66.47-26.6,4.51-1.13,9.13-2.17,13.6-3.17l30.72-6.86Z"/>
    <path class="cls-4" d="m207.46,60.07c13.51-2.96,27.39-1.4,40.82.1l-.12,1c-13.34-1.5-27.14-3.05-40.48-.12-4.34.95-8.62,2.39-12.76,3.78-2.55.86-5.19,1.74-7.82,2.51-7.02,2.05-14.34,3.34-21.43,4.6-5.2.92-10.59,1.87-15.8,3.11-14.91,3.55-28.95,9.54-42.47,16.34-8.21,4.13-16.24,8.56-24.16,12.93l-.48-.87c21.04-11.62,42.79-23.63,66.88-29.37,5.24-1.25,10.64-2.2,15.86-3.13,7.06-1.25,14.35-2.54,21.32-4.57,2.61-.76,5.24-1.64,7.79-2.5,4.16-1.4,8.47-2.85,12.85-3.81Z"/>
    <path class="cls-3" d="m207.68,61.05c13.34-2.93,27.14-1.38,40.48.12l.15.41-9.04,3.27-14.92,13.24-11.39,17.47-10.87,27.79-.03,6.49,7.48,7.14,7.76,10.19v4.41l-15.58-12.62-13.7,2.4-.25-1.43c3.87-1.42,7.91-2.41,12.02-2.96l-.13-.99c-1.22.16-2.43.36-3.63.6l-.36-1.79.03-1c-7.58-.19-14.72-3.38-21.63-6.46-1.16-.52-2.32-1.03-3.48-1.54-17.6-7.63-36.4-12.12-55.5-13.33l.14-2.38c11.99.73,23.95,1.87,35.8,3.43,5.68.74,11.21,1.57,16.44,3.47,4.77,1.74,9.21,4.37,13.51,6.91,4.14,2.45,8.42,4.99,13.01,6.75l.36-.94c-4.52-1.73-8.76-4.24-12.86-6.67-4.34-2.56-8.82-5.22-13.68-6.98-5.33-1.94-10.92-2.78-16.65-3.54-14.83-1.94-29.84-3.25-44.85-3.9l.04-.91.93-.37c-1.88-4.66-1.33-10.19,1.43-14.43l-.84-.55-.47-.96c13.52-6.8,27.56-12.79,42.47-16.34,5.21-1.24,10.6-2.19,15.8-3.11,7.09-1.26,14.41-2.55,21.43-4.6,2.63-.77,5.27-1.65,7.82-2.51,4.14-1.39,8.42-2.83,12.76-3.78Zm15.91,7.24l-.5-.86c-4.16,2.42-7.07,6.29-9.36,9.75-4.93,7.45-8.7,15.52-11.22,24l.96.28c2.49-8.38,6.22-16.36,11.09-23.72,2.23-3.37,5.05-7.13,9.03-9.45Zm-105.41,22.65l-.32-.94c-2.81.94-5.1,3.48-6.11,6.8-.88,2.86-.8,5.86-.62,8.95l1-.06c-.17-2.99-.26-5.9.57-8.6.93-3.01,2.97-5.3,5.48-6.15Z"/>
    <path class="cls-4" d="m114.59,63.22l.97.24c-.79,3.31-.92,6.85-.37,10.2l-.99.17c-.57-3.5-.44-7.16.39-10.61Z"/>
    <path class="cls-4" d="m223.09,67.43l.5.86c-3.98,2.32-6.8,6.08-9.03,9.45-4.87,7.36-8.6,15.34-11.09,23.72l-.96-.28c2.52-8.48,6.29-16.55,11.22-24,2.29-3.46,5.2-7.33,9.36-9.75Z"/>
    <polygon class="cls-4" points="89.98 83.93 90.81 84.49 82.2 97.09 81.37 96.52 89.98 83.93"/>
    <path class="cls-4" d="m117.86,90l.32.94c-2.51.85-4.55,3.14-5.48,6.15-.83,2.7-.74,5.61-.57,8.6l-1,.06c-.18-3.09-.26-6.09.62-8.95,1.01-3.32,3.3-5.86,6.11-6.8Z"/>
    <path class="cls-4" d="m107.87,92.35l.84.55c-2.76,4.24-3.31,9.77-1.43,14.43l-.93.37c-2-4.96-1.41-10.84,1.52-15.35Z"/>
    <path class="cls-4" d="m73.79,105.34l.98-.21.78,3.51c.24,1.1.57,2.96.65,4.59-.32-.61-.65-1.22-1.03-1.81-.06-.09-.12-.18-.18-.26-.13-.86-.28-1.68-.42-2.31l-.78-3.51Z"/>
    <path class="cls-4" d="m64.29,105.41l.54.03-.56.57.02-.6Z"/>
    <path class="cls-4" d="m64.27,106.01l.56-.57c.42.03.84.08,1.26.15l-.88.89c-.32-.04-.63-.06-.95-.07v-.4Z"/>
    <path class="cls-4" d="m65.21,106.48l.88-.89c3.6.6,6.89,2.63,8.9,5.57.11.79.19,1.61.21,2.34-.26-.52-.55-1.05-.87-1.54-1.94-2.99-5.45-5.07-9.12-5.48Z"/>
    <path class="cls-4" d="m63.62,106.67l.65-.66v.4c.31.01.62.03.94.07l-1.03,1.05-.1.03-29.94,11.25-13.82,9.59,25.26-6.76,16.35-1.9h.05l3.87.34-.54.76c.1.07.2.14.3.22l-3.67-.32-16.17,1.88-30.73,8.24,18.69-12.96,29.89-11.23Z"/>
    <path class="cls-5" d="m64.18,107.53l1.03-1.05c3.67.41,7.18,2.49,9.12,5.48.32.49.61,1.02.87,1.54.03.58.02,1.11-.05,1.52l.92.16c.09.19.19.37.29.55.56,1.01,1.22,1.98,1.96,2.89l-.06.05,5.46,7.11,10.31,9.36,12.67,13.03,1.5,9.28-.62-.14c-1.02,4.65,1.23,9.02,3.41,13.25.87,1.68,1.76,3.42,2.43,5.14,1.87,4.82,2.07,10.04,2.03,14.49l-.02,1.1c-.04,2.6-.08,5.29.53,7.88,1.6,6.72,7.31,11.79,11.89,15.86l.18.1c2.43.81,5.13-.32,8.26-3.44,2.07-2.07,4.31-3.93,6.68-3.7,1.09.52,2.25.92,3.44,1.2l.02-.1,1.18,1.25-1.07.14.13.99,12.47-1.66c-1.95,2.01-4.23,3.7-6.72,5.03-.48-.37-.93-.77-1.34-1.21l-.74.68c.34.37.71.71,1.1,1.02-.78.39-1.58.73-2.4,1.03l.35.94c1.01-.38,2-.81,2.96-1.3,3.57,2.37,8.5,2.85,12.41.99,1.24-.59,2.37-1.38,3.46-2.14,1.36-.95,2.64-1.85,4.13-2.39.43-.16.87-.29,1.31-.41.87-.26,1.78-.52,2.6-1.01,1.5-.92,2.38-2.46,3-3.9l2.66-.35c1.89-.26,3.84-.52,5.66-1.26.66-.26,1.32-.6,1.96-.92,1.93-.97,3.74-1.88,5.52-1.26.8.28,1.46.86,2.16,1.46l.48.42c7.43,6.22,18.42,4.89,28.14,3.14l12.21-2.18c4.17-.75,8.48-1.52,12.72-.86,5.08.79,9.67,3.69,12.42,7.82l-11.42,1.16,1.78.76c1.77.76,3.13,2.35,3.61,4.14l-32.78-.55-1.79,2.89c-1.1.88-3,.34-4.25-.63-.46-.36-.91-.79-1.34-1.2-.87-.82-1.76-1.66-2.92-2.17-1.33-.58-2.83-.6-4.16-.62l-15.43-.26-1.58-3.14-.42.16c-1.96.75-3.75,1.97-5.14,3.49l-.22-.27c-.76.62-1.13,1.65-.91,2.59l.27-.06-.21.5c8.27,3.44,17.24,4.58,27.26,5.62,5.07.52,10.46,1.06,16.07,1.54l-.14,1.65h-8.85v1l-.04,1.02c-2.95-.13-5.91-.28-8.85-.47l-.87-.05c-4.69-.3-9.53-.61-14.24.16-5.52.9-10.05,3.26-12.83,6.67-.02.02-.04.04-.05.07-.09.09-.16.19-.24.29h.01s-.32.44-.32.44l10.45,7.83-.38,1.98c-1.03-.29-2-.81-2.77-1.52l-.67.74c1.71,1.58,4.24,2.32,6.58,1.94.59-.1,1.16-.27,1.71-.5l.69,2.67c-3.98,1.72-7.83,3.04-11.83,2.29v-.02c0-.22-.06-.44-.17-.65-.43-.81-1.62-1.33-2.61-1.49-3.81-.61-7.64-1.12-11.49-1.53l.12-1.17.78-.62c-2.19-2.78-4.4-5.41-7.42-7.04-4.37-2.35-10.09-2.13-14.24.54-.66.42-1.29.9-1.9,1.37-1.58,1.2-3.08,2.35-4.93,2.5l.09,1-.05,1.44c-1.66-.17-3.28-.59-4.78-1.26-1.02-.46-2.01-1.03-2.97-1.59-1.25-.73-2.54-1.48-3.94-2-4.59-1.69-10.21-.54-13.67,2.81-3.39,3.27-4.55,8.51-2.88,12.82.79,3.47-.06,7.07-1.09,10.76-1.39,4.96-2.95,9.94-4.66,14.81l-.16.48c-1.4,3.98-2.85,8.09-2.35,12.32l.99-.11s0-.06,0-.09l.46-.04c-.73,1.51-.52,3.22-.33,4.77.17,1.42.33,2.77-.2,3.83-4.92,5.37-10.24,10.48-15.38,15.42-5.78,5.55-11.24,10.8-16.23,16.42l-.56-.03-.23,4.72c0,.08-.01.13,0,.14-.04.01-.11.01-.16.01h-.12c-1.25.1-1.95,1.19-2.52,2.06l-.2.31c-1.1,1.65-2.89,2.91-5.04,3.55-1.94.58-4.16.66-6.44.23v.03l-2.2-1.42,2.07,2.13-.05.25c.11.02.23.04.34.06l.05.05c-.93-.17-1.86-.41-2.75-.71l-.03.09-36.76-16.93-3.12-2.44,18.93,6.16,28.16,1.44v-.21s.41.35.41.35l15.11-17.41c2.83-3.26,6.03-6.95,7.61-11.27.39-1.06.69-2.17.97-3.24.61-2.27,1.18-4.41,2.55-6.18.64-.82,1.41-1.52,2.24-2.27.86-.77,1.75-1.58,2.46-2.53,2.4-3.23,2.19-7.26,2-11.14-.15-2.89-.3-5.87.6-8.51.5-1.44,1.33-2.84,2.13-4.2,1.32-2.2,2.67-4.48,2.67-7.09v-.1c-.04-2.86-1.71-5.31-3.32-7.67-.32-.47-.64-.93-.95-1.4-2.7-4.15-4.4-8.93-4.9-13.8l-.95.1c-5.29-2.44-11.3-2.85-17.5-3.07-12.13-.44-24.42-.43-36.56.02l.04,1c.1,0,.21-.01.31-.01l.04,1.25-.08,1c2.59.2,4.73,1.66,6.99,3.21,1.11.76,2.25,1.54,3.45,2.16,2.57,1.34,5.66,2.09,9.71,2.38l.86.06c2.59.16,5.24.34,7.23,1.49-3.08-.22-6.18.07-9.19.36-3.28.31-6.68.63-9.98.26-5.76-.63-13.59-2.56-18.21-8.12l-.15-.16h-.22c-1.66-.09-3.49-.06-5.43-.02-4.11.07-8.37.15-11.69-.79-3.83-1.08-9.09-3.34-12.4-7.92-.74-1.04-2.37-3.7-1.33-6.05.32-.72.86-1.34,1.39-1.92,7.45-8.18,18-12.43,27.24-11.06v.32h.03l.02.27,2.75-.27h1.62v-.15s.03,0,.05-.01l.37-.04v-.09c2.53-.88,4.89-2.25,6.88-3.99.23-.2.46-.41.69-.62.8-.73,1.56-1.43,2.49-1.88,1.24-.61,2.66-.73,4.26-.81,7.14-.39,14.36-.28,21.47.32-.54.49-1.69.63-2.7.69-4.88.3-9.22,2.76-12.82,5.13-.76.5-1.51,1.01-2.27,1.52-2.63,1.79-5.35,3.64-8.31,4.91-.63-.08-1.25-.17-1.88-.26l-.14.99c.38.06.77.11,1.15.16l.18.47c.28-.1.55-.21.82-.34,12.1,1.55,24.44.91,36.4.29,5.72-.3,11.18-.84,15.17-3.91l.37.16.31-.73h0l6.87-15.86c.63-1.45,1.39-3.19,1.39-4.99,0-.38-.04-.75-.11-1.12-.26-1.37-1.01-2.55-1.74-3.69-.21-.33-.42-.66-.62-.98-2.85-4.79-3.14-10.61-3.03-16.21v-.21c.07-3.45.15-7.35-1.98-10.35-.94-1.32-2.23-2.34-3.47-3.32-1.05-.83-2.14-1.69-2.97-2.7-1.36-1.67-2.07-3.79-2.76-5.83l-.31-.93c-3.91-11.4-11.47-21.67-21.35-29.06l.08-.86-1.41-.12s-.06-.05-.09-.07l-.04.06-3.87-.34h-.05l-16.35,1.9-25.26,6.76,13.82-9.59,29.94-11.25.1-.03Zm5.07,5.78l-.77.65c1.3,1.53,2.15,3.45,2.4,5.41l.99-.13c-.27-2.14-1.2-4.25-2.62-5.93Zm33.12,37.72l-.75.66c1.19,1.36,2.08,2.98,2.57,4.7l.96-.28c-.52-1.85-1.49-3.61-2.78-5.08Zm1.03,23.35l-.96-.28c-1.06,3.74,1.26,7.42,3.12,10.37,1.9,3.02,3.66,6.51,2.32,9.58l.91.4c.4-.89.57-1.81.57-2.72,0-2.67-1.43-5.38-2.95-7.79-1.76-2.79-3.95-6.26-3.01-9.56Zm9.45,28.4l-1-.06c-.2,3.15-.53,6.35-.98,9.48l.99.14c.45-3.16.78-6.38.99-9.56Zm-59.72,6.77l-.34-.94c-3.06,1.12-5.93,2.86-8.28,5.04l.68.73c2.26-2.09,5-3.76,7.94-4.83Zm193.14-.48l-6.88.95.14.99,6.88-.95-.14-.99Zm-49.21,5.2c-1.14-2.52-4.41-3.97-7.16-3.17l.28.96c2.29-.67,5.02.53,5.97,2.63l.91-.42Zm35.52.32c-1.6-1.68-4.4-2.17-6.52-1.16l.44.91c1.74-.84,4.04-.44,5.36.94l.72-.69Zm-49.64-.33l-.96-.29c-.14.47-.76.75-1.42.99l-5.36,1.94.29.96c1-.26,2.2-.05,3.56.63.48.24.94.5,1.41.77.69.4,1.4.81,2.18,1.13l.37-.93c-.71-.29-1.36-.67-2.05-1.07-.48-.28-.96-.55-1.46-.8-.55-.27-1.07-.47-1.58-.61l2.98-1.08c.61-.22,1.74-.63,2.04-1.64Zm-64.32.09l-.72.7c1.65,1.71,3.74,3.01,6.04,3.77l.31-.95c-2.15-.71-4.09-1.93-5.63-3.52Zm-95.53,1.02l-.48-.88c-2.21,1.2-2.78,3.87-2.38,5.86.43,2.11,1.75,3.89,3.05,5.53.73.91,1.58,1.23,2.26.85l-.5-.87c-.22.12-.66-.21-.97-.61-1.24-1.54-2.47-3.2-2.86-5.1-.34-1.69.19-3.87,1.88-4.78Zm232.77,2.51l-4.44-1.85-.38.93,4.44,1.84.38-.92Zm-111.46-.53l-9.96.35.04,1,9.95-.35-.03-1Zm-125.55,3.17l-.96-.29c-.31,1.02-.16,2.2.43,3.21.62,1.08,1.63,1.85,2.78,2.12l.22-.98c-.87-.2-1.65-.8-2.13-1.64-.45-.78-.58-1.66-.34-2.42Zm-5.81,3.09l-.99-.14c-.23,1.53-1.54,2.92-3.12,3.3l.23.97c2-.47,3.59-2.17,3.88-4.13Zm26.2.51l-.94.33c.76,2.15,3.1,3.66,5.46,3.51.36-.02.78,0,1.23.07-.83.26-1.69.68-2.54,1.26-.41.27-.8.57-1.2.86-1.39,1.02-2.7,1.98-4.29,2.23l.15.99c1.83-.29,3.3-1.37,4.73-2.42.39-.28.77-.56,1.17-.83.71-.48,2.96-1.84,4.89-1.28.28.11.54.23.78.35l.49-.88c-.28-.17-.58-.3-.89-.4-1.42-.57-3.26-1.03-4.58-.95-1.93.12-3.84-1.1-4.46-2.84Zm89.01.32c-1.35-.16-2.69.06-3.82.3-2.36.5-4.66,1.26-6.83,2.28l-.26.12-.03.28c-.23,2.41,1.87,4.42,3.98,5.06,2.3.71,4.75.23,6.63-.26l.12-.03c4.46-1.16,6.51-2.21,6.65-3.41.01-.06.01-.12.01-.18,0-2.28-5.13-3.99-6.45-4.16Zm56.2,4.19c-2.29-2.1-5.01-4.31-8.22-3.95-1.48.16-4.2,1.09-5.31,2.55-.43.57-.6,1.17-.5,1.79.35,2.13,4.82,3.89,7.03,3.89.16,0,.3-.01.43-.03,1.11-.15,2.06-.73,2.9-1.25l4.16-2.55-.49-.45Zm-32.69-3.72c-3.22-.53-6.29.54-8.89,3.09l-.23.22.12.31c.8,2.11,3.04,3.2,4.87,3.52,2.04.34,4.14-.01,6-.31l10.06-1.66-2.44-1.26c-2.91-1.53-6.54-3.42-9.49-3.91Zm-51.52.27c-1.8-.12-3.72.26-5.87,1.18-1.54.66-2.32,1.6-2.2,2.64.14,1.15,1.3,1.74,2.29,2.12,2.04.79,4.05,1.49,6.15,1.37,2.05-.11,4.53-1.28,5.15-3.56l-.96-.26v-.19s.79-.59.79-.59c-1.12-1.54-3.12-2.55-5.35-2.71Zm98.17,1.72c-2.64-1.25-5.75-1.48-8.55-.61l.29.96c2.57-.8,5.42-.6,7.83.55l.43-.9Zm-116.62,1.44l-5.53-.72-.13.99,5.53.72.13-.99Zm-15.18-.39h-2.95v1h2.95v-1Zm-11.07.35h-4.05v1h4.05v-1Zm-43.58,3.11c-1.09-.49-2.29-.41-3.14.2l.59.81c.56-.4,1.38-.44,2.14-.1.71.32,1.18.87,1.24,1.49l1-.11c-.11-.97-.79-1.83-1.83-2.29Zm12.5,1.96l-.61-.79c-.45.36-.89.74-1.31,1.14-.87-.2-1.86-.06-2.7.41-.95.52-1.59,1.36-1.77,2.3l.98.19c.12-.65.59-1.23,1.27-1.61.41-.23.86-.36,1.3-.37-.3.31-.58.64-.85.97-.49.62-1.02,1.36-1.16,2.23-.17,1.04.3,2.06,1.15,2.48.58.28,1.21.25,1.78.23s1.06-.04,1.37.21l.62-.78c-.6-.49-1.36-.46-2.03-.43-.49.02-.95.04-1.3-.13-.51-.25-.69-.9-.6-1.41.1-.65.52-1.23.95-1.77.85-1.06,1.83-2.02,2.91-2.87Zm158.41,3.24l-.47-.88c-2.44,1.31-5.2,2.1-7.99,2.3l-3.68.27,3.62.72c1.61.32,3.14,1.1,4.32,2.2l.68-.73c-.76-.71-1.66-1.3-2.63-1.74,2.15-.39,4.25-1.12,6.15-2.14Zm-77.43.61l-1,.06c.19,3.03.01,6.08-.53,9.07l.98.17c.42-2.27.62-4.59.62-6.9,0-.8-.02-1.6-.07-2.4Zm17.4,2.13l-.48-.87c-2.12,1.17-3.98,2.68-5.52,4.51l.77.64c1.45-1.73,3.21-3.17,5.23-4.28Zm19.34-.12l-7.74.4.05,1,7.74-.4-.05-1Zm-103.07,3.35l-.49.88c1.68.93,3.5,1.6,5.4,1.99l.2-.98c-1.8-.37-3.52-1-5.11-1.89Zm74.08,4.56l-1-.06-.81,12.67,1,.06.81-12.67Zm-4.44,17.71l-.96-.28-4.75,16.56.96.28,4.75-16.56Zm-3.14,36.11l-.65-.76c-1.68,1.43-3.11,3.2-4.12,5.13l.89.46c.95-1.81,2.29-3.48,3.88-4.83Z"/>
    <path class="cls-4" d="m79.63,108.13c8.87-.07,17.78.09,26.68.48,15.01.65,30.02,1.96,44.85,3.9,5.73.76,11.32,1.6,16.65,3.54,4.86,1.76,9.34,4.42,13.68,6.98,4.1,2.43,8.34,4.94,12.86,6.67l-.36.94c-4.59-1.76-8.87-4.3-13.01-6.75-4.3-2.54-8.74-5.17-13.51-6.91-5.23-1.9-10.76-2.73-16.44-3.47-11.85-1.56-23.81-2.7-35.8-3.43-11.86-.73-23.75-1.04-35.59-.95v-1Z"/>
    <path class="cls-4" d="m74.99,111.16c.06.08.12.17.18.26.38.59.71,1.2,1.03,1.81.01.24.02.47.02.7,0,.46-.03.89-.09,1.26h-.06c-.17-.32-.33-.63-.49-.95-.12-.24-.25-.49-.38-.74-.02-.73-.1-1.55-.21-2.34Z"/>
    <path class="cls-4" d="m84.09,113.36c10.33-1.26,20.71-1.56,31-.9,19.1,1.21,37.9,5.7,55.5,13.33,1.16.51,2.32,1.02,3.48,1.54,6.91,3.08,14.05,6.27,21.63,6.46l-.03,1c-7.78-.19-15.01-3.42-22-6.55-1.16-.51-2.32-1.03-3.47-1.53-26.54-11.51-57.08-15.9-85.99-12.36l-.12-.99Z"/>
    <path class="cls-4" d="m76.2,113.23c.09.19.19.38.28.56.24.49.49.98.75,1.45.75,1.34,1.66,2.6,2.71,3.73l-.11.1-.78-1.01-.73.56c-.74-.91-1.4-1.88-1.96-2.89-.1-.18-.2-.36-.29-.55h.06c.06-.36.09-.79.09-1.25,0-.23-.01-.46-.02-.7Z"/>
    <path class="cls-4" d="m68.48,113.96l.77-.65c1.42,1.68,2.35,3.79,2.62,5.93l-.99.13c-.25-1.96-1.1-3.88-2.4-5.41Z"/>
    <path class="cls-4" d="m75.2,113.5c.13.25.26.5.38.74.16.32.32.63.49.94l-.92-.16c.07-.41.08-.94.05-1.52Z"/>
    <path class="cls-3" d="m84.21,114.35c28.91-3.54,59.45.85,85.99,12.36,1.15.5,2.31,1.02,3.47,1.53,6.99,3.13,14.22,6.36,22,6.55l.36,1.79c-2.93.58-5.81,1.39-8.6,2.41l.34.94.25,1.43-5.21.92-.1.02-27.12,16.48-15.52,22.86,6.02,25.64-12.94-13.63-14.29-28.23-1.01-.61.12-.09c-1.84-2.41-4.24-4.47-6.94-5.95l-.48.87c1.82,1,3.49,2.27,4.93,3.74l-5.89-3.54-1.95-12.14-12.92-13.28-10.26-9.32-4.63-6.03.11-.1,2.42-1.31c2.08,2.82,4.38,5.51,6.87,7.99l.71-.7c-2.45-2.46-4.73-5.1-6.78-7.89l1.05-2.71Zm19.23,4.73l-.65-.75c-4.14,3.55-5.85,9.58-4.15,14.65l.95-.31c-1.57-4.7,0-10.28,3.85-13.59Zm7.54,2.23l-.5-.86c-2.57,1.49-5.41,3.32-6.64,6.18-.93,2.15-.77,4.48-.61,6.73.1,1.45.2,2.96.01,4.37-.06.37-.25.93-.55.93v1c.8-.01,1.38-.69,1.54-1.79.21-1.52.1-3.07,0-4.57-.16-2.24-.3-4.34.53-6.28,1.11-2.58,3.79-4.3,6.22-5.71Zm77.49,15.87l-.31-.95c-2.82.93-5.52,2.17-8.03,3.7l.52.85c2.44-1.48,5.08-2.69,7.82-3.6Zm-70.34,3.51l-.95.32c3.17,9.63,8.38,18.86,15.05,26.69l.76-.65c-6.59-7.73-11.73-16.85-14.86-26.36Zm-8.48,4.3l-.59.8c1.69,1.24,3.11,2.86,4.09,4.66l.88-.48c-1.05-1.93-2.57-3.66-4.38-4.98Z"/>
    <path class="cls-4" d="m81.48,116.44l.81-.58c.28.4.57.8.87,1.2,2.05,2.79,4.33,5.43,6.78,7.89l-.71.7c-2.49-2.48-4.79-5.17-6.87-7.99-.3-.41-.59-.81-.88-1.22Z"/>
    <path class="cls-4" d="m78.32,118.62l.73-.56.78,1.01-.62.58c-.31-.33-.61-.68-.89-1.03Z"/>
    <path class="cls-4" d="m102.79,118.33l.65.75c-3.84,3.31-5.42,8.89-3.85,13.59l-.95.31c-1.7-5.07.01-11.1,4.15-14.65Z"/>
    <path class="cls-4" d="m78.26,118.67l.06-.05c.28.35.58.7.89,1.03l.62-.58,4.63,6.03,10.26,9.32,12.92,13.28,1.95,12.14,5.89,3.54c.6.62,1.17,1.27,1.69,1.95l-.11.17-8.38-5.05-.3-1.83v-.02c.04-.35.1-.71.18-1.07l-.36-.08-1.5-9.28-12.67-13.03-10.31-9.36-5.46-7.11Z"/>
    <path class="cls-4" d="m65.89,120.02s.06.04.09.07h-.13s.04-.07.04-.07Z"/>
    <path class="cls-4" d="m65.85,120.08h.13c.45.32.89.64,1.33.99v.14s-1.7-.15-1.7-.15c-.1-.08-.2-.15-.3-.22l.54-.76Z"/>
    <path class="cls-4" d="m65.98,120.09l1.41.12-.08.86c-.44-.35-.88-.67-1.33-.98Z"/>
    <path class="cls-4" d="m110.48,120.45l.5.86c-2.43,1.41-5.11,3.13-6.22,5.71-.83,1.94-.69,4.04-.53,6.28.1,1.5.21,3.05,0,4.57-.16,1.1-.74,1.78-1.53,1.79v-1c.29,0,.48-.56.54-.93.19-1.41.09-2.92-.01-4.37-.16-2.25-.32-4.58.61-6.73,1.23-2.86,4.07-4.69,6.64-6.18Z"/>
    <path class="cls-4" d="m65.61,121.06l1.69.15v-.14c9.89,7.39,17.45,17.66,21.36,29.06l.31.93c.69,2.04,1.4,4.16,2.76,5.83.83,1.01,1.92,1.87,2.97,2.7,1.24.98,2.53,2,3.47,3.32,2.13,3,2.05,6.9,1.99,10.35v.21c-.12,5.6.17,11.42,3.02,16.21.2.32.41.65.62.98.73,1.14,1.48,2.32,1.74,3.69.07.37.11.74.11,1.12,0,1.8-.76,3.54-1.39,4.99l-6.87,15.86-.67-.75c-.05.05-.1.09-.16.13l6.79-15.64c.7-1.62,1.57-3.63,1.21-5.53-.23-1.18-.9-2.22-1.61-3.33-.21-.34-.43-.67-.63-1.01-2.98-5.01-3.28-11.01-3.17-16.74v-.21c.08-3.45.15-7.02-1.8-9.75-.85-1.2-2.03-2.13-3.27-3.12-1.09-.86-2.22-1.75-3.12-2.85-1.48-1.81-2.22-4.01-2.93-6.15l-.31-.92c-4-11.63-11.84-22.05-22.11-29.39Z"/>
    <path class="cls-4" d="m199.66,135.98l.13.99c-4.11.55-8.15,1.54-12.02,2.96l-.34-.94c2.79-1.02,5.67-1.83,8.6-2.41,1.2-.24,2.41-.44,3.63-.6Z"/>
    <path class="cls-4" d="m188.16,136.23l.31.95c-2.74.91-5.38,2.12-7.82,3.6l-.52-.85c2.51-1.53,5.21-2.77,8.03-3.7Z"/>
    <path class="cls-4" d="m117.18,141.01l.95-.32c3.13,9.51,8.27,18.63,14.86,26.36l-.76.65c-6.67-7.83-11.88-17.06-15.05-26.69Z"/>
    <path class="cls-4" d="m109.06,145.79l.59-.8c1.81,1.32,3.33,3.05,4.38,4.98l-.88.48c-.98-1.8-2.4-3.42-4.09-4.66Z"/>
    <path class="cls-4" d="m101.62,151.69l.75-.66c1.29,1.47,2.26,3.23,2.78,5.08l-.96.28c-.49-1.72-1.38-3.34-2.57-4.7Z"/>
    <path class="cls-4" d="m107.58,157.31l.62.14.18,1.15v.02c-.41,3.89,1.5,7.58,3.5,11.48.88,1.71,1.79,3.47,2.47,5.23,1.94,4.99,2.14,10.32,2.1,14.87l-.02,1.11c-.04,2.54-.08,5.16.51,7.63.16.66.35,1.29.59,1.92,1.24,3.31,3.52,6.21,6.01,8.77.3.47.64.92,1.06,1.32.38.37.8.68,1.25.92t.01.01c.87.82,1.74,1.59,2.58,2.33,1.9.58,4.1-.33,6.7-2.8,1.16-.63,2.31-1.56,2.98-2.69,1.45-1.08,2.99-1.82,4.64-1.75l-.38.74c.19.1.39.19.59.28-2.37-.23-4.61,1.63-6.68,3.7-3.13,3.12-5.83,4.25-8.26,3.44l-.18-.1c-4.58-4.07-10.29-9.14-11.89-15.86-.61-2.59-.57-5.28-.53-7.88l.02-1.1c.04-4.45-.16-9.67-2.03-14.49-.67-1.72-1.56-3.46-2.43-5.14-2.18-4.23-4.43-8.6-3.41-13.25Z"/>
    <path class="cls-4" d="m108.2,157.45l.36.08c-.08.36-.14.72-.18,1.07l-.18-1.15Z"/>
    <path class="cls-3" d="m108.38,158.62l.3,1.83,8.38,5.05h0s1.04.63,1.04.63l14.19,28.04,12.92,13.63c-.54-.17-1.06-.37-1.58-.6l.03-.12c-.14-.03-.29-.06-.43-.07-.13-.06-.26-.12-.39-.19l-.08.15c-1.65-.07-3.19.67-4.64,1.75.37-.63.6-1.32.6-2.06,0-.19-.02-.39-.05-.59-.26-1.61-1.54-2.8-2.76-3.74-3.18-2.46-6.76-4.34-10.65-5.58-1.3-.42-2.84-.81-4.35-.58-1.45.23-3.07,1.19-3.43,2.82-.15.66-.07,1.27.14,1.84l-.09.03c-.24-.63-.43-1.26-.59-1.92-.59-2.47-.55-5.09-.51-7.63l.02-1.11c.04-4.55-.16-9.88-2.1-14.87-.68-1.76-1.59-3.52-2.47-5.23-2-3.9-3.91-7.59-3.5-11.48Zm6.16,10.09l-.17.98c1,.18,1.68,1.14,2.29,2.11l9.33,14.79.85-.54-9.34-14.79c-.69-1.11-1.56-2.31-2.96-2.55Zm4.46,11.09l-.73.69c3.36,3.6,4.89,8.6,4.09,13.36l.99.17c.15-.89.22-1.78.22-2.67,0-4.21-1.62-8.38-4.57-11.55Zm5.47,12.79l-.21.98c3.4.74,6.64,2.01,9.63,3.74l.5-.86c-3.07-1.79-6.41-3.09-9.92-3.86Z"/>
    <path class="cls-4" d="m110.55,159.64l.48-.87c2.7,1.48,5.1,3.54,6.94,5.95l-.12.09-2.37-1.43c-1.44-1.47-3.11-2.74-4.93-3.74Z"/>
    <path class="cls-4" d="m115.48,163.38l2.37,1.43-.68.52c-.52-.68-1.09-1.33-1.69-1.95Z"/>
    <path class="cls-4" d="m114.37,169.69l.17-.98c1.4.24,2.27,1.44,2.96,2.55l9.34,14.79-.85.54-9.33-14.79c-.61-.97-1.29-1.93-2.29-2.11Z"/>
    <path class="cls-4" d="m102.44,174.1l.96.28c-.94,3.3,1.25,6.77,3.01,9.56,1.52,2.41,2.95,5.12,2.95,7.79,0,.91-.17,1.83-.57,2.72l-.91-.4c1.34-3.07-.42-6.56-2.32-9.58-1.86-2.95-4.18-6.63-3.12-10.37Z"/>
    <path class="cls-4" d="m118.27,180.49l.73-.69c2.95,3.17,4.57,7.34,4.57,11.55,0,.89-.07,1.78-.22,2.67l-.99-.17c.8-4.76-.73-9.76-4.09-13.36Z"/>
    <path class="cls-4" d="m124.26,193.57l.21-.98c3.51.77,6.85,2.07,9.92,3.86l-.5.86c-2.99-1.73-6.23-3-9.63-3.74Z"/>
    <path class="cls-4" d="m120.91,196.17c1.51-.23,3.05.16,4.35.58,3.89,1.24,7.47,3.12,10.65,5.58,1.22.94,2.5,2.13,2.76,3.74.03.2.05.4.05.59,0,.74-.23,1.43-.6,2.06-.88.66-1.72,1.44-2.54,2.26-.15.15-.3.29-.44.43-.17.09-.33.17-.49.25-2.65,1.26-6.18,1.7-8.79.22t-.01-.01c-.78-.71-1.55-1.46-2.31-2.24-.41-.67-.73-1.38-1.03-2.1h-.26c.02-.36-.04-.68-.16-1-.04-.1-.07-.19-.11-.28-.41-.86-1.22-1.65-2.05-2.48-.94-.92-1.89-1.85-2.31-2.94-.21-.57-.29-1.18-.14-1.84.36-1.63,1.98-2.59,3.43-2.82Zm4.04,1.53c-1.25-.4-2.58-.74-3.89-.54-.89.14-1.92.65-2.39,1.49l.27.06c-.26,1.25.7,2.38,1.7,3.56.36.43.73.86,1.05,1.31.49.7.86,1.46,1.19,2.23.06.13.11.26.16.39.06.14.11.28.17.42.56,1.36,1.08,2.65,2.08,3.61,2.28,2.2,6.23,1.81,8.94.53,1.79-.85,3.77-2.55,3.45-4.53-.2-1.27-1.32-2.29-2.38-3.11-3.09-2.39-6.57-4.22-10.35-5.42Z"/>
    <path class="cls-2" d="m121.06,197.16c1.31-.2,2.64.14,3.89.54,3.78,1.2,7.26,3.03,10.35,5.42,1.06.82,2.18,1.84,2.38,3.11.32,1.98-1.66,3.68-3.45,4.53-2.71,1.28-6.66,1.67-8.94-.53-1-.96-1.52-2.25-2.08-3.61-.06-.14-.11-.28-.17-.42-.05-.13-.1-.26-.16-.39-.33-.77-.7-1.53-1.19-2.23-.32-.45-.69-.88-1.05-1.31-1-1.18-1.96-2.31-1.7-3.56l-.27-.06c.47-.84,1.5-1.35,2.39-1.49Z"/>
    <path class="cls-4" d="m189.1,203.71c2.02-1.02,4.11-2.07,6.29-1.3.99.34,1.75,1.01,2.48,1.65.16.13.31.27.47.4,7.1,5.95,17.83,4.63,27.32,2.93l12.22-2.19c4.25-.76,8.64-1.55,13.04-.86,5.64.88,10.71,4.23,13.56,8.97l.4.68-9.54.96c1.55,1.13,2.65,2.85,2.93,4.69l.09.59-33.43-.56-1.63,2.6c-.71.61-1.62.8-2.56.71-1.06-.11-2.15-.6-3.01-1.27-.51-.4-.97-.84-1.42-1.26-.84-.8-1.63-1.55-2.62-1.98-1.16-.5-2.55-.52-3.78-.54l-16.05-.27-1.43-2.86c-2.12.89-3.97,2.36-5.27,4.18-.01-.49.21-.97.6-1.29l-.41-.51c1.39-1.52,3.18-2.74,5.14-3.49l.42-.16,1.58,3.14,15.43.26c1.33.02,2.83.04,4.16.62,1.16.51,2.05,1.35,2.92,2.17.43.41.88.84,1.34,1.2,1.25.97,3.15,1.51,4.25.63l1.79-2.89,32.78.55c-.48-1.79-1.84-3.38-3.61-4.14l-1.78-.76,11.42-1.16c-2.75-4.13-7.34-7.03-12.42-7.82-4.24-.66-8.55.11-12.72.86l-12.21,2.18c-9.72,1.75-20.71,3.08-28.14-3.14l-.48-.42c-.7-.6-1.36-1.18-2.16-1.46-1.78-.62-3.59.29-5.52,1.26-.64.32-1.3.66-1.96.92-1.82.74-3.77,1-5.66,1.26l-2.66.35c.16-.37.31-.73.44-1.07l2.09-.28c1.82-.24,3.71-.49,5.41-1.18.62-.26,1.27-.58,1.9-.9Z"/>
    <path class="cls-4" d="m111.85,202.72l1,.06c-.21,3.18-.54,6.4-.99,9.56l-.99-.14c.45-3.13.78-6.33.98-9.48Z"/>
    <path class="cls-4" d="m178.89,205.37l.94.36c-.04.11-.09.22-.13.34l-1.14.15c.11-.28.22-.56.33-.85Z"/>
    <path class="cls-4" d="m49.57,205.92c7.44-.4,14.96-.27,22.37.39l.54.05-.1.54c-.31,1.81-2.75,1.96-3.92,2.03-4.65.28-8.84,2.67-12.33,4.96-.75.5-1.5,1.01-2.25,1.52-2.23,1.52-4.52,3.07-6.99,4.31-.63-.07-1.26-.15-1.89-.23,2.96-1.27,5.68-3.12,8.31-4.91.76-.51,1.51-1.02,2.27-1.52,3.6-2.37,7.94-4.83,12.82-5.13,1.01-.06,2.16-.2,2.7-.69-7.11-.6-14.33-.71-21.47-.32-1.6.08-3.02.2-4.26.81-.93.45-1.69,1.15-2.49,1.88-.23.21-.46.42-.69.62-1.99,1.74-4.35,3.11-6.89,3.99l-.09-.9-.49.05c2.5-.84,4.85-2.19,6.81-3.89.23-.2.45-.4.67-.61.82-.75,1.68-1.52,2.73-2.04,1.41-.69,3-.82,4.64-.91Z"/>
    <path class="cls-4" d="m178.56,206.22l1.14-.15c-.13.34-.28.7-.44,1.07l-1.18.16c.17-.34.33-.71.48-1.08Z"/>
    <path class="cls-4" d="m169.3,207.45l9.26-1.23c-.15.37-.31.74-.48,1.08l-9.27,1.23c.25-.29.49-.6.72-.91l-.23-.17Z"/>
    <path class="cls-4" d="m142.84,206.82c.13.07.26.13.39.19-.16-.03-.32-.04-.47-.04l.08-.15Z"/>
    <path class="cls-4" d="m142.38,207.71l.38-.74c.15,0,.31.01.47.04.13.07.27.13.4.19l-.18.86c-.16-.03-.32-.06-.48-.07-.2-.09-.4-.18-.59-.28Z"/>
    <path class="cls-4" d="m143.63,207.2c-.13-.06-.27-.12-.4-.19.14,0,.29.04.43.07l-.03.12Z"/>
    <path class="cls-4" d="m168.73,207.03l.57.42-1.01.14c.16-.18.3-.37.44-.56Z"/>
    <path class="cls-4" d="m178.08,207.3l1.18-.16c-.62,1.44-1.5,2.98-3,3.9-.82.49-1.73.75-2.6,1.01-.44.12-.88.25-1.31.41-1.49.54-2.77,1.44-4.13,2.39-1.09.76-2.22,1.55-3.46,2.14-3.91,1.86-8.84,1.38-12.41-.99.34-.17.68-.35,1.02-.53,3.23,1.92,7.52,2.24,10.96.62,1.17-.55,2.26-1.32,3.31-2.06,1.35-.94,2.75-1.92,4.36-2.51.45-.17.92-.3,1.38-.44.85-.24,1.66-.47,2.36-.9,1.06-.65,1.77-1.66,2.34-2.88Z"/>
    <path class="cls-4" d="m143.45,208.06l.18-.86c.52.23,1.04.43,1.58.6l1.22,1.29-.02.1c-1.19-.28-2.35-.68-3.44-1.2.16.01.32.04.48.07Z"/>
    <path class="cls-2" d="m168.81,208.53l9.27-1.23c-.57,1.22-1.28,2.23-2.34,2.88-.7.43-1.51.66-2.36.9-.46.14-.93.27-1.38.44-1.61.59-3.01,1.57-4.36,2.51-1.05.74-2.14,1.51-3.31,2.06-3.44,1.62-7.73,1.3-10.96-.62,2.71-1.52,5.16-3.46,7.22-5.74l-.1-.09,6.82-.91c-1.9,2.05-4.24,3.69-6.86,4.83l.39.91c3.12-1.34,5.86-3.38,7.97-5.94Z"/>
    <path class="cls-4" d="m168.29,207.59l1.01-.14.23.17c-.23.31-.47.62-.72.91l-1.5.2c.35-.37.68-.75.98-1.14Z"/>
    <path class="cls-4" d="m147.83,210.31l20.46-2.72c-.3.39-.63.77-.98,1.14l-6.82.91-.64-.58c-.23.26-.47.51-.71.75l-12.47,1.66-.13-.99,1.07-.14.3.31-.08-.34Z"/>
    <path class="cls-4" d="m146.43,209.09l-1.22-1.29c.47.17.95.3,1.43.42l-.21.87Z"/>
    <path class="cls-4" d="m167.31,208.73l1.5-.2c-2.11,2.56-4.85,4.6-7.97,5.94l-.39-.91c2.62-1.14,4.96-2.78,6.86-4.83Z"/>
    <path class="cls-4" d="m52.79,208.61l.34.94c-2.94,1.07-5.68,2.74-7.94,4.83l-.68-.73c2.35-2.18,5.22-3.92,8.28-5.04Z"/>
    <path class="cls-4" d="m159.85,209.06l.64.58-1.35.17c.24-.24.48-.49.71-.75Z"/>
    <polygon class="cls-4" points="239.39 210.02 246.27 209.07 246.41 210.06 239.53 211.01 239.39 210.02"/>
    <path class="cls-4" d="m138.12,208.72c-.67,1.13-1.82,2.06-2.98,2.69.14-.14.29-.28.44-.43.82-.82,1.66-1.6,2.54-2.26Z"/>
    <path class="cls-4" d="m159.14,209.81l1.35-.17.1.09c-2.06,2.28-4.51,4.22-7.22,5.74-.33-.2-.65-.41-.95-.63,2.49-1.33,4.77-3.02,6.72-5.03Z"/>
    <polygon class="cls-4" points="147.61 210.34 147.83 210.31 147.91 210.65 147.61 210.34"/>
    <path class="cls-4" d="m124.6,210.95c-.42-.4-.76-.85-1.06-1.32.76.78,1.53,1.53,2.31,2.24-.45-.24-.87-.55-1.25-.92Z"/>
    <path class="cls-4" d="m189.9,211.1c2.75-.8,6.02.65,7.16,3.17l-.91.42c-.95-2.1-3.68-3.3-5.97-2.63l-.28-.96Z"/>
    <path class="cls-4" d="m226.06,213.43c2.12-1.01,4.92-.52,6.52,1.16l-.72.69c-1.32-1.38-3.62-1.78-5.36-.94l-.44-.91Z"/>
    <path class="cls-4" d="m2.49,224.57c8.03-8.82,19.61-13.19,29.49-11.12v.06h-1.51v.27h-.04l.04.41c-9.24-1.37-19.79,2.88-27.24,11.06-.53.58-1.07,1.2-1.39,1.92-1.04,2.35.59,5.01,1.33,6.05,3.31,4.58,8.57,6.84,12.4,7.92,3.32.94,7.58.86,11.69.79,1.94-.04,3.77-.07,5.43,0h.22s.15.17.15.17c4.62,5.56,12.45,7.49,18.21,8.12,3.3.37,6.7.05,9.98-.26,3.01-.29,6.11-.58,9.19-.36-1.99-1.15-4.64-1.33-7.23-1.49l-.86-.06c-4.05-.29-7.14-1.04-9.71-2.38-1.2-.62-2.34-1.4-3.45-2.16-2.26-1.55-4.4-3.01-6.99-3.21l.08-1c2.85.23,5.2,1.83,7.48,3.39,1.08.73,2.19,1.5,3.34,2.09,2.45,1.27,5.41,1.99,9.32,2.27l.86.06c3.24.21,6.91.45,9.2,2.83l1.01,1.05-1.44-.21c-3.53-.5-7.18-.16-10.71.17-3.33.32-6.78.64-10.18.27-5.88-.65-13.87-2.62-18.73-8.3-1.58-.07-3.31-.04-5.15,0-4.19.07-8.52.15-11.98-.83-3.98-1.12-9.46-3.48-12.94-8.3-1.79-2.49-2.32-5.06-1.44-7.04.38-.85.98-1.55,1.57-2.19Z"/>
    <path class="cls-4" d="m34.72,213.37l.49-.05.09.9c-.12.05-.24.09-.36.13h-.05v-.84h-.56c.13-.05.26-.09.39-.14Z"/>
    <path class="cls-4" d="m34.72,213.37c-.13.05-.26.09-.39.13h0s-1.09.01-1.09.01l1.48-.14Z"/>
    <polygon class="cls-4" points="34.33 213.51 34.89 213.51 34.89 214.35 34.61 214.38 34.33 213.51"/>
    <path class="cls-4" d="m33.24,213.51h1.09l.28.87-1.34.13h-2.77l-.03-.29v-.03c.43.07.87.15,1.3.24l.17-.8,1.3-.12Z"/>
    <polygon class="cls-4" points="31.97 213.51 33.24 213.51 31.94 213.63 31.97 213.51"/>
    <polygon class="cls-4" points="30.47 213.51 31.97 213.51 31.94 213.63 30.47 213.78 30.47 213.51"/>
    <path class="cls-4" d="m150.34,214.31l.74-.68c.41.44.86.84,1.34,1.21-.32.17-.65.34-.98.49-.39-.31-.76-.65-1.1-1.02Z"/>
    <path class="cls-4" d="m31.94,213.63l-.17.8c-.43-.09-.87-.17-1.3-.24v-.41l1.47-.15Z"/>
    <polygon class="cls-4" points="30.43 213.78 30.47 213.78 30.47 214.19 30.43 213.78"/>
    <path class="cls-4" d="m181.98,213.97l.96.29c-.3,1.01-1.43,1.42-2.04,1.64l-2.98,1.08c.51.14,1.03.34,1.58.61.5.25.98.52,1.46.8.69.4,1.34.78,2.05,1.07l-.37.93c-.78-.32-1.49-.73-2.18-1.13-.47-.27-.93-.53-1.41-.77-1.36-.68-2.56-.89-3.56-.63l-.29-.96,5.36-1.94c.66-.24,1.28-.52,1.42-.99Z"/>
    <polygon class="cls-4" points="30.47 214.22 30.5 214.51 30.47 214.51 30.47 214.22"/>
    <path class="cls-4" d="m35.3,214.22v.09s-.36.04-.36.04c.12-.04.24-.08.36-.13Z"/>
    <path class="cls-4" d="m34.94,214.35s-.03.01-.05.01h0s.05-.01.05-.01Z"/>
    <path class="cls-4" d="m117.9,215.05l.72-.7c1.54,1.59,3.48,2.81,5.63,3.52l-.31.95c-2.3-.76-4.39-2.06-6.04-3.77Z"/>
    <path class="cls-4" d="m34.61,214.38l.28-.03h0c-.09.05-.17.07-.26.1l-.02-.07Z"/>
    <path class="cls-4" d="m34.63,214.45c.09-.03.17-.05.26-.09v.15h-1.62l1.34-.13.02.07Z"/>
    <path class="cls-4" d="m22.61,214.49l.48.88c-1.69.91-2.22,3.09-1.88,4.78.39,1.9,1.62,3.56,2.86,5.1.31.4.75.73.97.61l.5.87c-.68.38-1.53.06-2.26-.85-1.3-1.64-2.62-3.42-3.05-5.53-.4-1.99.17-4.66,2.38-5.86Z"/>
    <polygon class="cls-4" points="30.5 214.51 33.27 214.51 30.52 214.78 30.5 214.51"/>
    <path class="cls-4" d="m151.44,215.33c.33-.15.66-.32.98-.49.3.22.62.43.95.63-.34.18-.68.36-1.02.53-.31-.2-.62-.42-.91-.67Z"/>
    <path class="cls-4" d="m96.56,215.7c.06-.04.11-.08.16-.13l.67.75h0c-.22.2-.45.39-.68.57l-.55-.24.41-.95Z"/>
    <path class="cls-4" d="m96.56,215.7l-.41.95.55.24c-3.99,3.07-9.45,3.61-15.17,3.91-11.96.62-24.3,1.26-36.4-.29.6-.24,1.18-.51,1.76-.79,11.5,1.29,23.22.67,34.59.08,5.79-.31,11.3-.84,15.08-4.1Z"/>
    <path class="cls-4" d="m151.44,215.33c.29.25.6.47.91.67-.96.49-1.95.92-2.96,1.3l-.35-.94c.82-.3,1.62-.64,2.4-1.03Z"/>
    <polygon class="cls-4" points="251.42 216.03 255.86 217.88 255.48 218.8 251.04 216.96 251.42 216.03"/>
    <path class="cls-4" d="m97.38,216.32l-.31.73-.37-.16c.23-.18.46-.37.68-.57Z"/>
    <path class="cls-4" d="m187.13,216.91l.22.27c-.39.4-.73.83-1.05,1.28l.82.58s.03-.04.04-.06c0,.08.02.17.03.25-.18-.07-.35-.14-.53-.21l-.17.42-.27.06c-.22-.94.15-1.97.91-2.59Z"/>
    <path class="cls-4" d="m187.35,217.18l.41.51c-.39.32-.61.8-.6,1.29-.01.02-.03.04-.04.06l-.82-.58c.32-.45.66-.88,1.05-1.28Z"/>
    <polygon class="cls-4" points="134.44 217.7 144.4 217.35 144.43 218.35 134.48 218.7 134.44 217.7"/>
    <path class="cls-4" d="m186.66,219.02c.18.07.35.14.53.21.01.01.01.03.01.04l-.71.17.17-.42Z"/>
    <path class="cls-4" d="m43.12,219.23c.63.09,1.25.18,1.88.26-.34.15-.69.29-1.04.42l.17.47c-.38-.05-.77-.1-1.15-.16l.14-.99Z"/>
    <path class="cls-4" d="m187.2,219.27s0-.03-.01-.04c8,3.23,16.72,4.33,26.45,5.33,2.23.23,4.53.46,6.88.69,13.32,1.31,28.34,2.51,43.55,2.71,1.61.02,3.61.05,5.26-.67.57-.25,1.09-.58,1.64-.94.75-.47,1.53-.96,2.42-1.24,1.26-.38,2.6-.3,3.76-.18,3.97.38,7.88,1.22,11.64,2.5l.74.25-.34.36-.03-.24c-.52.07-1.03.21-1.52.4l.07-.07c-2.03-.66-4.11-1.19-6.22-1.58l-.19-.71-1.54.42c-.9-.14-1.8-.25-2.71-.34-1.11-.11-2.29-.18-3.36.15-.77.24-1.46.67-2.18,1.13-.56.36-1.14.72-1.78,1-1.54.68-3.28.77-4.79.77-.31,0-.6-.01-.88-.01-11.84-.17-23.56-.92-34.45-1.86-5.61-.48-11-1.02-16.07-1.54-10.02-1.04-18.99-2.18-27.26-5.62l.21-.5.71-.17Z"/>
    <path class="cls-4" d="m43.96,219.91c.35-.13.7-.27,1.04-.42.63.08,1.26.16,1.89.23-.58.28-1.16.55-1.76.79-.33-.03-.66-.08-1-.13l-.17-.47Z"/>
    <path class="cls-4" d="m17.89,220.23l.96.29c-.24.76-.11,1.64.34,2.42.48.84,1.26,1.44,2.13,1.64l-.22.98c-1.15-.27-2.16-1.04-2.78-2.12-.59-1.01-.74-2.19-.43-3.21Z"/>
    <path class="cls-4" d="m44.31,220.85l-.18-.47c.34.05.67.1,1,.13-.27.13-.54.24-.82.34Z"/>
    <path class="cls-4" d="m12.05,223.47l.99.14c-.29,1.96-1.88,3.66-3.88,4.13l-.23-.97c1.58-.38,2.89-1.77,3.12-3.3Z"/>
    <path class="cls-4" d="m38.3,224.45l.94-.33c.62,1.74,2.53,2.96,4.46,2.84,1.32-.08,3.16.38,4.58.95.31.1.61.23.89.4l-.49.88c-.24-.12-.5-.24-.78-.35-1.93-.56-4.18.8-4.89,1.28-.4.27-.78.55-1.17.83-1.43,1.05-2.9,2.13-4.73,2.42l-.15-.99c1.59-.25,2.9-1.21,4.29-2.23.4-.29.79-.59,1.2-.86.85-.58,1.71-1,2.54-1.26-.45-.07-.87-.09-1.23-.07-2.36.15-4.7-1.36-5.46-3.51Z"/>
    <path class="cls-4" d="m124.43,224.74c1.13-.24,2.47-.46,3.82-.3,1.32.17,6.45,1.88,6.45,4.16,0,.06,0,.12-.01.18-.14,1.2-2.19,2.25-6.65,3.41l-.12.03c-1.88.49-4.33.97-6.63.26-2.11-.64-4.21-2.65-3.98-5.06l.03-.28.26-.12c2.17-1.02,4.47-1.78,6.83-2.28Zm3.7.7c-1.21-.15-2.44.05-3.49.28-2.19.46-4.32,1.16-6.35,2.08,0,1.71,1.63,3.22,3.29,3.73,2.06.63,4.34.18,6.09-.27l.12-.04c5.5-1.43,5.88-2.38,5.9-2.56.16-1.29-3.97-3.03-5.56-3.22Z"/>
    <path class="cls-4" d="m176.23,224.68c3.21-.36,5.93,1.85,8.22,3.95l.49.45-4.16,2.55c-.84.52-1.79,1.1-2.9,1.25-.13.02-.27.03-.43.03-2.21,0-6.68-1.76-7.03-3.89-.1-.62.07-1.22.5-1.79,1.11-1.46,3.83-2.39,5.31-2.55Zm7.05,4.24c-2.02-1.8-4.36-3.54-6.94-3.25-1.33.15-3.74,1.01-4.62,2.16-.22.29-.33.57-.33.85,0,.06.01.12.02.18.25,1.52,4.68,3.26,6.33,3.03h.01c.9-.12,1.75-.65,2.51-1.11l3.02-1.86Z"/>
    <path class="cls-4" d="m142.87,228c2.6-2.55,5.67-3.62,8.89-3.09,2.95.49,6.58,2.38,9.49,3.91l2.44,1.26-10.06,1.66c-1.86.3-3.96.65-6,.31-1.83-.32-4.07-1.41-4.87-3.52l-.12-.31.23-.22Zm8.72-2.1c-2.78-.46-5.46.43-7.77,2.57.75,1.53,2.52,2.34,3.98,2.59,1.87.32,3.8,0,5.67-.31l7.09-1.17c-2.81-1.47-6.25-3.23-8.97-3.68Z"/>
    <path class="cls-4" d="m94.37,226.36c2.15-.92,4.07-1.3,5.87-1.18,2.23.16,4.23,1.17,5.35,2.71l-.8.59c-.95-1.31-2.68-2.17-4.62-2.3-1.64-.11-3.41.25-5.4,1.1-.4.17-1.72.81-1.6,1.6.07.63.98,1.05,1.65,1.31,1.94.75,3.83,1.41,5.74,1.3,1.75-.1,3.77-1.1,4.24-2.82l.96.26c-.62,2.28-3.1,3.45-5.15,3.56-2.1.12-4.11-.58-6.15-1.37-.99-.38-2.15-.97-2.29-2.12-.12-1.04.66-1.98,2.2-2.64Z"/>
    <path class="cls-2" d="m124.64,225.72c1.05-.23,2.28-.43,3.49-.28,1.59.19,5.72,1.93,5.56,3.22-.02.18-.4,1.13-5.9,2.56l-.12.04c-1.75.45-4.03.9-6.09.27-1.66-.51-3.28-2.02-3.29-3.73,2.03-.92,4.16-1.62,6.35-2.08Z"/>
    <path class="cls-2" d="m176.34,225.67c2.58-.29,4.92,1.45,6.94,3.25l-3.02,1.86c-.76.46-1.61.99-2.51,1.11h-.01c-1.65.23-6.08-1.51-6.33-3.03-.01-.06-.02-.12-.02-.18,0-.28.11-.56.33-.85.88-1.15,3.29-2.01,4.62-2.16Z"/>
    <path class="cls-2" d="m143.82,228.47c2.31-2.14,4.99-3.03,7.77-2.57,2.72.45,6.16,2.21,8.97,3.68l-7.09,1.17c-1.87.31-3.8.63-5.67.31-1.46-.25-3.23-1.06-3.98-2.59Z"/>
    <path class="cls-4" d="m279.76,226.26l1.54-.42.19.71c-.57-.11-1.15-.21-1.73-.29Z"/>
    <path class="cls-2" d="m273.69,226.07c1.07-.33,2.25-.26,3.36-.15.91.09,1.81.2,2.71.34l-1.72.47.26.97,3.26-.89-.07-.26c2.11.39,4.19.92,6.22,1.58l-.07.07c-.52.21-1.01.48-1.46.82l.26.35c-2.45,2.3-5.26,4.23-8.49,3.96-1.33-.11-2.56-.59-3.87-1.09-.64-.25-1.3-.51-1.97-.72-2.31-.72-4.73-.87-7.15-.85l-.02-1.7c1.51,0,3.25-.09,4.79-.77.64-.28,1.22-.64,1.78-1,.72-.46,1.41-.89,2.18-1.13Zm11.51,3.2l-.12-.99c-2.53.3-5.01.89-7.39,1.76l.34.94c2.31-.84,4.72-1.42,7.17-1.71Z"/>
    <path class="cls-4" d="m189.86,226.29c2.8-.87,5.91-.64,8.55.61l-.43.9c-2.41-1.15-5.26-1.35-7.83-.55l-.29-.96Z"/>
    <path class="cls-2" d="m94.77,227.28c1.99-.85,3.76-1.21,5.4-1.1,1.94.13,3.67.99,4.62,2.3v.19c-.46,1.72-2.48,2.72-4.23,2.82-1.91.11-3.8-.55-5.74-1.3-.67-.26-1.58-.68-1.65-1.31-.12-.79,1.2-1.43,1.6-1.6Z"/>
    <path class="cls-4" d="m278.04,226.73l1.72-.47c.58.08,1.16.18,1.73.29l.07.26-3.26.89-.26-.97Z"/>
    <path class="cls-2" d="m229.47,228.75l.14-1.65c10.89.94,22.61,1.69,34.45,1.86.28,0,.57.01.88.01l.02,1.7c-1.13.01-2.26.07-3.38.11h-.22c-13.52.59-27.2.59-40.78-.01l.04-1.02h8.85v-1Z"/>
    <polygon class="cls-4" points="76.26 227.62 81.79 228.34 81.66 229.33 76.13 228.61 76.26 227.62"/>
    <path class="cls-4" d="m289.16,227.8l.03.24-.2.21c-.27.28-.54.55-.81.82-.51.17-.98.43-1.41.75l-.33-.45c.41-.38.81-.77,1.2-1.17.49-.19,1-.33,1.52-.4Z"/>
    <rect class="cls-4" x="63.66" y="227.95" width="2.95" height="1"/>
    <path class="cls-4" d="m288.99,228.25l.2-.21.1.75c-.38.05-.75.15-1.11.28.27-.27.54-.54.81-.82Z"/>
    <path class="cls-4" d="m285.08,228.28l.12.99c-2.45.29-4.86.87-7.17,1.71l-.34-.94c2.38-.87,4.86-1.46,7.39-1.76Z"/>
    <rect class="cls-4" x="51.49" y="228.3" width="4.05" height="1"/>
    <rect class="cls-4" x="220.62" y="228.75" width="8.85" height="1"/>
    <path class="cls-4" d="m286.18,229.02c.45-.34.94-.61,1.46-.82-.39.4-.79.79-1.2,1.17l-.26-.35Z"/>
    <path class="cls-4" d="m286.44,229.37l.33.45c.43-.32.9-.58,1.41-.75-3.03,3.03-6.38,5.59-10.32,5.26-1.46-.13-2.82-.65-4.14-1.16-.62-.24-1.27-.49-1.9-.69-3.24-1-6.78-.85-10.2-.7h-.22c-12.21.54-24.54.58-36.82.15-4.31-.15-8.62-.36-12.91-.63l-.87-.05c-4.63-.3-9.42-.6-14.02.15-5.26.86-9.58,3.08-12.19,6.28l-.8-.6c2.78-3.41,7.31-5.77,12.83-6.67,4.71-.77,9.55-.46,14.24-.16l.87.05c2.94.19,5.9.34,8.85.47,13.58.6,27.26.6,40.78.02h.22c1.12-.05,2.25-.11,3.38-.12,2.42-.02,4.84.13,7.15.85.67.21,1.33.47,1.97.72,1.31.5,2.54.98,3.87,1.09,3.23.27,6.04-1.66,8.49-3.96Z"/>
    <path class="cls-4" d="m8.82,231.61c.85-.61,2.05-.69,3.14-.2,1.04.46,1.72,1.32,1.83,2.29l-1,.11c-.06-.62-.53-1.17-1.24-1.49-.76-.34-1.58-.3-2.14.1l-.59-.81Z"/>
    <path class="cls-4" d="m223.91,232.61l.66-.48.98,5.81,33.53,2.26-3.79.67,3.52.76-.31.58c-.48.92-1.19,1.71-2.05,2.32,2.6.03,5.17.55,7.57,1.52l.75.31-.61.53c-9.69,8.47-24.81,10.74-36.75,5.52-1.19-.52-2.37-1.11-3.51-1.68-2.88-1.46-5.87-2.96-9.09-3.27-4.58-.43-9.05,1.56-13.38,3.5-4.88,2.17-9.92,4.43-15.17,3.22l-.6-.14.26-.56c.07-.14.07-.25,0-.37-.22-.41-1.05-.84-1.89-.97-8.75-1.39-17.64-2.28-26.52-2.65l.39-.59c-.2-.13-.4-.27-.6-.42,5.14.21,10.28.59,15.4,1.14,3.85.41,7.68.92,11.49,1.53.99.16,2.18.68,2.61,1.49.11.21.17.43.17.65v.02c4,.75,7.85-.57,11.83-2.29.74-.31,1.48-.65,2.23-.98,4.44-1.98,9.04-4.03,13.87-3.57,3.41.32,6.48,1.87,9.46,3.36,1.12.57,2.29,1.16,3.45,1.66,11.34,4.96,25.63,2.97,35.06-4.81-2.86-1.02-5.94-1.38-8.97-1.02l-.17-.99c1.44-.32,2.72-1.19,3.53-2.35l-7.16-1.55.7-.13-26.11-1.76-.84-4.98c-5.78,4.12-12.86,6.73-20.04,7.37l-.37.04c-3.83.34-8.18.73-9.55,3.82l-.25.58-10.45-7.83.32-.43.78.59c.09-.12.19-.24.3-.36l8.67,6.49c1.84-3.12,6.39-3.53,10.09-3.86l.37-.03c7.27-.66,14.44-3.38,20.19-7.67Z"/>
    <path class="cls-4" d="m23.85,232.58l.61.79c-1.08.85-2.06,1.81-2.91,2.87-.43.54-.85,1.12-.95,1.77-.09.51.09,1.16.6,1.41.35.17.81.15,1.3.13.67-.03,1.43-.06,2.03.43l-.62.78c-.31-.25-.8-.23-1.37-.21s-1.2.05-1.78-.23c-.85-.42-1.32-1.44-1.15-2.48.14-.87.67-1.61,1.16-2.23.27-.33.55-.66.85-.97.34-.02.67.03.97.14l.36-.93c-.13-.05-.27-.1-.41-.13.42-.4.86-.78,1.31-1.14Z"/>
    <path class="cls-4" d="m19.84,234.13c.84-.47,1.83-.61,2.7-.41-.32.29-.63.6-.92.92-.44.01-.89.14-1.3.37-.68.38-1.15.96-1.27,1.61l-.98-.19c.18-.94.82-1.78,1.77-2.3Z"/>
    <path class="cls-4" d="m22.54,233.72c.14.03.28.08.41.13l-.36.93c-.3-.11-.63-.16-.97-.14.29-.32.6-.63.92-.92Z"/>
    <path class="cls-5" d="m223.85,233.9l.84,4.98,26.11,1.76-.7.13,7.16,1.55c-.81,1.16-2.09,2.03-3.53,2.35l.17.99c3.03-.36,6.11,0,8.97,1.02-9.43,7.78-23.72,9.77-35.06,4.81-1.16-.5-2.33-1.09-3.45-1.66-2.98-1.49-6.05-3.04-9.46-3.36-4.83-.46-9.43,1.59-13.87,3.57-.75.33-1.49.67-2.23.98l-.69-2.67c1.64-.67,3.04-1.9,3.84-3.43l-.88-.47c-.93,1.77-2.78,3.07-4.83,3.41-.99.16-2.02.09-2.98-.17l.38-1.98.25-.58c1.37-3.09,5.72-3.48,9.55-3.82l.37-.04c7.18-.64,14.26-3.25,20.04-7.37Zm4.39,8.83l-.21.98c1.97.43,4,.6,6.02.5l-.04-1c-1.94.1-3.88-.06-5.77-.48Zm19.64,1.95c-2.76-.55-5.8.04-8.12,1.56l.55.84c2.11-1.39,4.87-1.92,7.38-1.42l.19-.98Zm-10.68,6.57c-2.88-.71-5.86-1.44-8.78-.85l.2.98c2.7-.55,5.57.16,8.34.84,3.21.79,6.54,1.61,9.71.52l-.33-.94c-2.89.99-5.93.24-9.14-.55Z"/>
    <path class="cls-4" d="m182.4,235.73l.47.88c-1.9,1.02-4,1.75-6.15,2.14.97.44,1.87,1.03,2.63,1.74l-.68.73c-1.18-1.1-2.71-1.88-4.32-2.2l-3.62-.72,3.68-.27c2.79-.2,5.55-.99,7.99-2.3Z"/>
    <path class="cls-4" d="m41.89,237.07c12.14-.45,24.43-.46,36.56-.02,6.2.22,12.21.63,17.5,3.07h-.05c.03.3.06.58.1.87l-.1.21c-5.21-2.51-11.25-2.92-17.49-3.15-12-.44-24.16-.43-36.17.01-.1,0-.21.01-.31.01l-.04-1Z"/>
    <path class="cls-4" d="m183.79,237.08l.8.6c-.11.12-.21.24-.3.36l-.78-.59.23-.3s.03-.05.05-.07Z"/>
    <path class="cls-4" d="m183.5,237.44c.08-.1.15-.2.24-.29l-.23.3h-.01Z"/>
    <path class="cls-4" d="m104.44,237.28l1-.06c.05.8.07,1.6.07,2.4,0,2.31-.2,4.63-.62,6.9l-.98-.17c.54-2.99.72-6.04.53-9.07Z"/>
    <path class="cls-4" d="m122.36,238.48l.48.87c-2.02,1.11-3.78,2.55-5.23,4.28l-.77-.64c1.54-1.83,3.4-3.34,5.52-4.51Z"/>
    <polygon class="cls-4" points="134.44 239.63 142.18 239.23 142.23 240.23 134.49 240.63 134.44 239.63"/>
    <path class="cls-4" d="m95.95,240.12l.95-.1c.5,4.87,2.2,9.65,4.9,13.8.31.47.63.93.95,1.4,1.61,2.36,3.28,4.81,3.32,7.67v.1c0,2.61-1.35,4.89-2.67,7.09-.8,1.36-1.63,2.76-2.13,4.2-.9,2.64-.75,5.62-.6,8.51.19,3.88.4,7.91-2,11.14-.71.95-1.6,1.76-2.46,2.53-.83.75-1.6,1.45-2.24,2.27-1.37,1.77-1.94,3.91-2.55,6.18-.28,1.07-.58,2.18-.97,3.24-1.58,4.32-4.78,8.01-7.61,11.27l-15.11,17.41-.4-.35.04-.76,14.72-16.96c2.9-3.34,5.9-6.8,7.42-10.95.38-1.02.67-2.11.95-3.16.6-2.26,1.23-4.6,2.72-6.53.69-.89,1.54-1.66,2.36-2.4.86-.78,1.68-1.51,2.33-2.39,2.18-2.94,1.99-6.61,1.8-10.49-.15-2.98-.31-6.06.65-8.88.53-1.55,1.39-2.99,2.22-4.39,1.32-2.21,2.59-4.34,2.53-6.66-.04-2.57-1.62-4.88-3.15-7.12-.32-.48-.65-.95-.95-1.42-2.64-4.04-4.35-8.66-4.97-13.38l.34-.69-.39-.18Z"/>
    <path class="cls-4" d="m95.95,240.12l.39.18-.34.69c-.04-.29-.07-.57-.1-.86h.05Z"/>
    <path class="cls-4" d="m151.94,241.33c4.15-2.67,9.87-2.89,14.24-.54,3.02,1.63,5.23,4.26,7.42,7.04l-.78.62c-2.12-2.7-4.26-5.24-7.12-6.78-4.05-2.18-9.36-1.98-13.22.5-.62.4-1.24.87-1.83,1.32-1.63,1.24-3.32,2.53-5.45,2.71l-.09-1c1.85-.15,3.35-1.3,4.93-2.5.61-.47,1.24-.95,1.9-1.37Z"/>
    <path class="cls-2" d="m152.48,242.17c3.86-2.48,9.17-2.68,13.22-.5,2.86,1.54,5,4.08,7.12,6.78l-.12,1.17c-5.12-.55-10.26-.93-15.4-1.14-1.7-1.16-3.3-2.46-4.77-3.86l-.69.72c1.15,1.1,2.38,2.14,3.67,3.08-1.75-.06-3.49-.1-5.23-.11l-.48-.48c-.08.08-.16.16-.25.24l-.1-.56c-1.42.24-2.87.28-4.3.13l.05-1.44c2.13-.18,3.82-1.47,5.45-2.71.59-.45,1.21-.92,1.83-1.32Zm13.99,5.99l-7.02-5.96-.65.76,7.03,5.96.64-.76Z"/>
    <polygon class="cls-4" points="159.45 242.2 166.47 248.16 165.83 248.92 158.8 242.96 159.45 242.2"/>
    <path class="cls-4" d="m38.62,243.46l.49-.88c1.59.89,3.31,1.52,5.11,1.89l-.2.98c-1.9-.39-3.72-1.06-5.4-1.99Z"/>
    <path class="cls-4" d="m119.79,245.6c3.46-3.35,9.08-4.5,13.67-2.81,1.4.52,2.69,1.27,3.94,2,.96.56,1.95,1.13,2.97,1.59,1.5.67,3.12,1.09,4.78,1.26,1.43.15,2.88.11,4.3-.13l.1.56c-.08.08-.16.16-.24.23-.28-.01-.55-.01-.83-.01v.35c-2.9.3-5.89-.18-8.52-1.35-1.07-.48-2.08-1.07-3.06-1.64-1.21-.7-2.46-1.43-3.79-1.92-.33-.12-.66-.22-1-.32-4.03-1.07-8.68.06-11.62,2.9-3.07,2.98-4.16,7.7-2.7,11.64l-.93.24c.02.08.04.15.05.23-1.67-4.31-.51-9.55,2.88-12.82Z"/>
    <path class="cls-4" d="m228.03,243.71l.21-.98c1.89.42,3.83.58,5.77.48l.04,1c-2.02.1-4.05-.07-6.02-.5Z"/>
    <path class="cls-3" d="m120.49,246.31c2.94-2.84,7.59-3.97,11.62-2.9l-.14,1.32c-3.28-.87-8.68,5.47-9.73,6.75-1.56,1.9-2.73,4.82-1.37,7.3l.13.25h.29c1.6.04,3.62-.59,5.58-1.64l.35,1.91c-.97.34-1.92.77-2.74,1.41l.62.79c1.16-.92,2.62-1.34,4.17-1.78.63-.19,1.26-.37,1.87-.58.65-.23,1.31-.54,1.91-.92l.31,1.9c-1.57,1.56-3.95,2.39-6.21,2.18l-.1.99c2.55.25,5.23-.7,7.01-2.46l.58.5c-8.28,9.7-14.13,21.96-19.13,32.46-.57.51-1.13.51-1.82.51-.79,0-1.68,0-2.57.85-.46.44-.79.91-1.03,1.4l-.46.04c-.43-3.97.96-7.95,2.31-11.79l.17-.48c1.71-4.89,3.28-9.89,4.67-14.87.77-2.76,1.44-5.47,1.44-8.15,0-.98-.09-1.96-.3-2.94h.03c-.03-.07-.05-.14-.08-.2,0-.07-.02-.15-.04-.22h-.04c-1.46-3.93-.37-8.65,2.7-11.63Zm3.41,21.28l-.94-.34c-1.82,5.04-3.58,10.17-5.22,15.26l.95.31c1.64-5.08,3.39-10.21,5.21-15.23Z"/>
    <path class="cls-3" d="m131.97,244.73l.14-1.32c.34.1.67.2,1,.32,1.33.49,2.58,1.22,3.79,1.92.98.57,1.99,1.16,3.06,1.64,2.63,1.17,5.62,1.65,8.52,1.35v.43c-.68.61-1.38,1.2-2.1,1.76l.02.02c-4.42,2.84-8.31,6.43-11.76,10.48l-.58-.5-.7-.71-.31-1.9c1.35-.84,2.44-2.03,2.62-3.53l1.72-.06.1-.36c.32-1.18.49-2.4.49-3.62,0-.88-.09-1.76-.26-2.62l-.98.19c.36,1.79.31,3.66-.13,5.43l-1.92.07v.49c.05,1.93-2.07,3.34-3.89,3.98-.59.21-1.2.39-1.8.56-.59.17-1.19.35-1.78.55l-.35-1.91c1.91-1.03,3.77-2.45,5.13-4.03,1.41-1.64,2.14-3.3,2.14-4.84,0-.27-.03-.55-.07-.82-.3-1.68-1.01-2.69-2.1-2.97Z"/>
    <path class="cls-4" d="m201.07,244.45l.88.47c-.8,1.53-2.2,2.76-3.84,3.43-.55.23-1.12.4-1.71.5-2.34.38-4.87-.36-6.58-1.94l.67-.74c.77.71,1.74,1.23,2.77,1.52.96.26,1.99.33,2.98.17,2.05-.34,3.9-1.64,4.83-3.41Z"/>
    <path class="cls-4" d="m239.76,246.24c2.32-1.52,5.36-2.11,8.12-1.56l-.19.98c-2.51-.5-5.27.03-7.38,1.42l-.55-.84Z"/>
    <path class="cls-4" d="m151.84,245.34l.69-.72c1.47,1.4,3.07,2.7,4.77,3.86-.6-.02-1.2-.04-1.79-.06-1.29-.94-2.52-1.98-3.67-3.08Z"/>
    <path class="cls-4" d="m122.24,251.48c1.05-1.28,6.45-7.62,9.73-6.75,1.09.28,1.8,1.29,2.1,2.97.04.27.07.55.07.82,0,1.54-.73,3.2-2.14,4.84-1.36,1.58-3.22,3-5.13,4.03-1.96,1.05-3.98,1.68-5.58,1.65h-.29s-.13-.26-.13-.26c-1.36-2.48-.19-5.4,1.37-7.3Zm9.48-5.79c-2.24-.58-6.67,3.94-8.7,6.42-1.24,1.51-2.31,3.92-1.41,5.92,2.86-.1,7.19-2.47,9.63-5.32,1.02-1.19,2.16-2.98,1.84-4.83-.22-1.27-.68-2.01-1.36-2.19Z"/>
    <path class="cls-2" d="m123.02,252.11c2.03-2.48,6.46-7,8.7-6.42.68.18,1.14.92,1.36,2.19.32,1.85-.82,3.64-1.84,4.83-2.44,2.85-6.77,5.22-9.63,5.32-.9-2,.17-4.41,1.41-5.92Z"/>
    <polygon class="cls-4" points="112.19 247.08 113.19 247.14 112.38 259.81 111.38 259.75 112.19 247.08"/>
    <path class="cls-4" d="m149.55,248.07c.09-.08.17-.16.25-.24l.48.48c-.23-.01-.46-.01-.69-.01l-.04-.23Z"/>
    <path class="cls-4" d="m136.74,248.22l.98-.19c.17.86.26,1.74.26,2.62,0,1.22-.17,2.44-.49,3.62l-.1.36-1.72.06c-.18,1.5-1.27,2.69-2.62,3.53-.6.38-1.26.69-1.91.92-.61.21-1.24.39-1.87.58-1.55.44-3.01.86-4.17,1.78l-.62-.79c.82-.64,1.77-1.07,2.74-1.41.59-.2,1.19-.38,1.78-.55.6-.17,1.21-.35,1.8-.56,1.82-.64,3.94-2.05,3.9-3.98v-.49s1.91-.07,1.91-.07c.44-1.77.49-3.64.13-5.43Z"/>
    <path class="cls-4" d="m149.55,248.07l.04.23c-.1,0-.19-.01-.28,0,.08-.07.16-.15.24-.23Z"/>
    <path class="cls-4" d="m148.48,248.29c.28,0,.55,0,.83.01-.09.09-.18.18-.28.27-.18.04-.37.06-.55.07v-.35Z"/>
    <path class="cls-4" d="m149.31,248.3c.09-.01.18,0,.28,0l.03.19c-.2.03-.39.06-.59.08.1-.09.19-.18.28-.27Z"/>
    <path class="cls-4" d="m149.59,248.3c.23,0,.46,0,.69.01l.23.23c-.26.26-.52.51-.79.76-.41-.01-.83-.01-1.24-.01v-.22c.19-.16.37-.33.55-.5.2-.02.39-.05.59-.08l-.03-.19Z"/>
    <path class="cls-4" d="m150.51,248.54l-.23-.23c1.74.01,3.48.05,5.23.11.48.38.97.73,1.47,1.06-2.42-.1-4.84-.16-7.26-.18.27-.25.53-.5.79-.76Z"/>
    <path class="cls-4" d="m155.51,248.42c.59.02,1.19.04,1.79.06.2.15.4.29.6.42l-.39.59c-.18-.01-.35-.01-.53-.01-.5-.33-.99-.68-1.47-1.06Z"/>
    <path class="cls-4" d="m148.48,248.64c.18-.01.37-.03.55-.07-.18.17-.36.34-.55.5v-.43Z"/>
    <path class="cls-4" d="m148.48,249.07v.22c.41,0,.83,0,1.24.01-.65.61-1.33,1.2-2.03,1.77l-.46-.75c-.28.17-.56.35-.83.53l-.02-.02c.72-.56,1.42-1.15,2.1-1.76Z"/>
    <path class="cls-4" d="m157.35,249.73c-.12-.08-.25-.16-.37-.25.18,0,.35,0,.53.01l-.16.24Z"/>
    <path class="cls-4" d="m228.42,250.4c2.92-.59,5.9.14,8.78.85,3.21.79,6.25,1.54,9.14.55l.33.94c-3.17,1.09-6.5.27-9.71-.52-2.77-.68-5.64-1.39-8.34-.84l-.2-.98Z"/>
    <path class="cls-4" d="m146.4,250.85c.27-.18.55-.36.83-.53l.46.75c-.23.18-.46.37-.7.55l-.59-.77Z"/>
    <path class="cls-4" d="m146.4,250.85l.59.77c.24-.18.47-.37.7-.55l.06.1c-1.5.92-2.93,1.92-4.31,3l-.38-.1c-.05.18-.1.35-.14.53-12.4,10.01-20.17,26.32-26.55,39.71l-.11.14c-.88.85-1.78.85-2.57.85-.72,0-1.28,0-1.88.57-1.52,1.46-1.3,3.34-1.06,5.33.18,1.53.38,3.12-.33,4.47l-.07.11c-4.96,5.41-10.31,10.54-15.48,15.51-5.85,5.63-11.39,10.94-16.41,16.63l-.11-.1.04-.81-.44-.02c4.99-5.62,10.45-10.87,16.23-16.42,5.14-4.94,10.46-10.05,15.38-15.42.53-1.06.37-2.41.2-3.83-.19-1.55-.4-3.26.33-4.77.24-.49.57-.96,1.03-1.4.89-.85,1.78-.85,2.57-.85.69,0,1.25,0,1.82-.51,5-10.5,10.85-22.76,19.13-32.46,3.45-4.05,7.34-7.64,11.76-10.48Z"/>
    <path class="cls-4" d="m143.06,254.07l.38.1c-.17.14-.35.28-.52.43.04-.18.09-.35.14-.53Z"/>
    <path class="cls-4" d="m143.44,254.17l.59.16c-2.71,9.78-4.88,19.3-1.79,28.14.58,1.67,1.33,2.59,2.3,2.82l-.1.42-.02-.02-.49-.54-.7.63c-.8-.57-1.44-1.56-1.94-2.98-3.12-8.96-1.05-18.45,1.63-28.2.17-.15.35-.29.52-.43Z"/>
    <path class="cls-4" d="m117.79,257.95h.04c.02.06.03.14.04.21-.03-.07-.05-.14-.08-.21Z"/>
    <path class="cls-4" d="m116.86,258.19l.93-.24c.03.07.05.14.08.21s.04.13.05.2l-.89.37c-.04-.1-.08-.21-.12-.31-.01-.08-.03-.15-.05-.23Z"/>
    <path class="cls-4" d="m117.87,258.16c.03.06.05.13.08.19h-.03c-.01-.06-.02-.12-.05-.19Z"/>
    <path class="cls-4" d="m117.03,258.73l.89-.37c.21.98.3,1.96.3,2.94,0,2.68-.67,5.39-1.44,8.15-1.39,4.98-2.96,9.98-4.67,14.87l-.17.48c-1.35,3.84-2.74,7.82-2.31,11.79,0,.03,0,.06,0,.09l-.99.11c-.5-4.23.95-8.34,2.35-12.32l.16-.48c1.71-4.87,3.27-9.85,4.66-14.81,1.03-3.69,1.88-7.29,1.09-10.76.04.1.08.21.12.31Z"/>
    <path class="cls-4" d="m133.36,260.12l.7.71c-1.78,1.76-4.46,2.71-7.01,2.46l.1-.99c2.26.21,4.64-.62,6.21-2.18Z"/>
    <polygon class="cls-4" points="107.79 264.57 108.75 264.85 104 281.41 103.04 281.13 107.79 264.57"/>
    <path class="cls-4" d="m122.96,267.25l.94.34c-1.82,5.02-3.57,10.15-5.21,15.23l-.95-.31c1.64-5.09,3.4-10.22,5.22-15.26Z"/>
    <path class="cls-3" d="m116.37,294.31c6.38-13.39,14.15-29.7,26.55-39.71-2.68,9.75-4.75,19.24-1.63,28.2.5,1.42,1.14,2.41,1.94,2.98l-.04.04.49.54c8.4,9.28,16.34,18.04,28.37,22.89,2.93,1.18,5.95,2.25,8.88,3.28,5.66,2,11.44,4.05,16.74,6.98l.04.27.36-.05c2.18,1.22,4.27,2.59,6.23,4.18-3.87,4.21-1.94,9.76-.24,14.67.39,1.1.75,2.13,1.05,3.15,2.49,8.4,5.25,15.53,8.45,21.8,4.68,9.21,15.18,25.69,32.76,32.68,4.29,1.7,8.85,2.73,13.26,3.73,3.67.82,7.43,1.67,11.04,2.91h-20.57l.22.66c1.11,3.32,2.89,6.48,4.62,9.53,1.34,2.38,2.73,4.84,3.78,7.34,2.79,6.69,6.21,8.61,12.82,11.13,12.64,4.83,25.7,9.17,38.33,13.37,1.74.58,3.48,1.16,5.21,1.74-.69.14-1.31.42-1.79.86l-.64.59.83.25c.06.02.11.04.17.06-21.96,5.51-46.45,8.3-72.91,8.3-7.13,0-14.98-1.35-22.57-2.65-3.5-.6-6.8-1.16-9.98-1.59-11.58-3.16-20.17-6.03-29.63-9.9-22.23-9.9-43.33-22.85-63.74-35.38-15.43-18.75-31.37-38.11-48.43-55.95l.29.1-1.27-1.4c-.16-.18-.29-.32-.42-.42,0-.07-.02-.15,0-.25,1.57.07,3.08-.11,4.46-.53,2.38-.71,4.36-2.11,5.59-3.95l.21-.32c.49-.76,1-1.55,1.85-1.61.21-.01.5-.02.75-.23.08-.07.15-.14.19-.22l.66,2.56c.16.65.67,1.41,1.3,1.63.36.11.73.05,1.02-.19l-.7-.76c-.21-.07-.54-.49-.66-.93l-1.29-5.04-.06.02.09-1.85.11.1c5.02-5.69,10.56-11,16.41-16.63,5.17-4.97,10.52-10.1,15.48-15.51l.07-.11c.71-1.35.51-2.94.33-4.47-.24-1.99-.46-3.87,1.06-5.33.6-.57,1.16-.57,1.88-.57.79,0,1.69,0,2.57-.85l.11-.14Zm16.29-8.06l-.99-.14c-.69,4.61-3.07,8.87-5.37,12.98-1.26,2.25-2.57,4.58-3.6,6.97-.57,1.33-1.08,2.71-1.57,4.04-1.04,2.85-2.12,5.81-3.92,8.3l.81.59c1.88-2.61,2.99-5.63,4.05-8.55.49-1.32.99-2.68,1.55-3.98,1.01-2.34,2.3-4.65,3.55-6.88,2.35-4.19,4.77-8.53,5.49-13.33Zm50.93,31.01l-.86.51c1.73,2.95,4.67,5.15,8.08,6.04l.25-.97c-3.11-.81-5.9-2.9-7.47-5.58Zm-77.23,5.62l-.97-.23c-1.21,5.21.36,10.89,4.11,14.84l.72-.68c-3.51-3.71-4.99-9.05-3.86-13.93Zm-4.39,1.4l-.99-.18c-.82,4.67.33,9.58,3.17,13.46l.8-.59c-2.67-3.66-3.76-8.29-2.98-12.69Zm91.72,4.28l-.41-.91c-8.5,3.82-16.85,7.42-25.63,9.36-3.9.87-7.94,1.41-11.41,1.85-24.37,3.09-49.19,4.39-73.76,3.87l-.02,1c24.62.52,49.49-.78,73.9-3.87,3.5-.45,7.56-1,11.51-1.87,8.87-1.97,17.28-5.58,25.82-9.43Zm-102.89,6.38l-.47-.88c-3.52,1.86-6.85,4.07-9.91,6.56l.63.77c3.01-2.45,6.29-4.62,9.75-6.45Zm-.14,12.45l-.78.62c.9,1.14.42,2.7-.08,4.36-.42,1.35-.85,2.75-.55,4.03-1.26-.99-2.47-2.06-3.63-3.19l-.69.72c4.6,4.49,10.02,7.95,15.73,10.82l-.8,1.59c-6.2-3.07-12.3-6.32-18.3-9.74l-.5.87c49.81,28.41,106.77,44.89,164.72,47.67l.05-1c-8.86-.43-17.69-1.17-26.48-2.24l.21-1.82c7.59.93,15.22,1.5,22.95,1.65l.02-1c-41.07-.79-79.51-13.56-121.91-28.91-10.07-3.65-21.29-7.71-30.36-14.62l.31-.2c-.78-1.18-.31-2.71.18-4.34.32-1.03.64-2.08.64-3.08,0-.78-.19-1.52-.73-2.19Zm17.64,3.99l-1-.13c-.45,3.55-.46,7.16-.02,10.72l.99-.13c-.43-3.47-.42-6.99.03-10.46Zm4.43.8l-.94-.34c-1.02,2.82.07,5.71,1.38,8.68.56,1.28,1.14,2.6,2.12,3.71,1.13,1.29,2.62,2.01,4.08,1.97l-.03-1c-1.14.03-2.38-.58-3.3-1.63-.88-1-1.43-2.24-1.96-3.45-1.22-2.78-2.24-5.47-1.35-7.94Zm93.39,1.64l-1-.06c-.33,6.37,3.3,12.35,6.22,17.15,5,8.22,10.18,16.71,17.49,23.49l.68-.73c-7.21-6.69-12.35-15.12-17.32-23.28-2.85-4.68-6.39-10.51-6.07-16.57Zm-118.62,9.33l-.48.88c1.29.7,1.59,2.28,1.67,2.92.09.77.04,1.54,0,2.36-.03.5-.07,1.02-.06,1.51.01,2.97,1.09,5.87,3.05,8.18l.76-.65c-1.8-2.13-2.8-4.8-2.81-7.54.01-.49.03-.96.06-1.44.05-.83.1-1.68,0-2.53-.19-1.69-.99-3.03-2.18-3.69Zm26.94,20.43l-.96.28c.42,1.45.3,2.96.17,4.56-.05.61-.09,1.22-.11,1.83-.04,1.72.23,4.81,2.64,6.3l.53-.86c-1.98-1.21-2.22-3.91-2.17-5.41.02-.59.06-1.19.11-1.79.13-1.61.26-3.29-.21-4.91Zm6.48,4l-1,.02c.13,5.96,2.29,11.85,6.06,16.59.28.35.57.7.86,1.05,1.2,1.43,2.43,2.91,2.89,4.63l.97-.26c-.52-1.93-1.83-3.5-3.09-5.01-.28-.35-.57-.69-.84-1.03-3.64-4.57-5.72-10.25-5.85-15.99Zm124.85,22.46l-.99.08c.2,2.71,2.05,4.83,3.84,6.88,1.65,1.89,3.21,3.68,3.59,5.89l.99-.17c-.43-2.48-2.16-4.46-3.83-6.38-1.76-2.01-3.42-3.91-3.6-6.3Zm-26.05,38.09l-.2.98c15.07,3.1,30.51,4.17,45.9,3.15l-.07-.99c-15.29,1-30.64-.05-45.63-3.14Z"/>
    <path class="cls-4" d="m143.23,285.78l.7-.63.49.54.02.02-.13.55c-.39-.09-.75-.25-1.08-.48Z"/>
    <path class="cls-4" d="m144.31,286.26l.13-.55c8.31,9.18,16.18,17.85,27.99,22.61,2.9,1.17,5.92,2.24,8.84,3.27,5.74,2.03,11.62,4.12,17.02,7.11l-.71.09.09.72c-5.3-2.93-11.08-4.98-16.74-6.98-2.93-1.03-5.95-2.1-8.88-3.28-12.03-4.85-19.97-13.61-28.37-22.89l-.49-.54.04-.04c.33.23.69.39,1.08.48Z"/>
    <path class="cls-4" d="m131.67,286.11l.99.14c-.72,4.8-3.14,9.14-5.49,13.33-1.25,2.23-2.54,4.54-3.55,6.88-.56,1.3-1.06,2.66-1.55,3.98-1.06,2.92-2.17,5.94-4.05,8.55l-.81-.59c1.8-2.49,2.88-5.45,3.92-8.3.49-1.33,1-2.71,1.57-4.04,1.03-2.39,2.34-4.72,3.6-6.97,2.3-4.11,4.68-8.37,5.37-12.98Z"/>
    <path class="cls-4" d="m104.96,300.2l.65.76c-1.59,1.35-2.93,3.02-3.88,4.83l-.89-.46c1.01-1.93,2.44-3.7,4.12-5.13Z"/>
    <path class="cls-4" d="m218.3,301.97v5.7l-5.59,10.59-7.37,6.11-.04-.05.09-.09.4-.38-.43-.36c-.09-.07-.18-.15-.27-.21l6.91-5.72,5.3-10.13v-2.75l-12.03,14.14-5.55.71c-.47-.29-.95-.56-1.43-.83l6.47-.82,13.54-15.91Z"/>
    <path class="cls-3" d="m217.3,304.68v2.75l-5.3,10.13-6.91,5.72c-1.7-1.41-3.5-2.64-5.37-3.75l5.55-.71,12.03-14.14Z"/>
    <path class="cls-4" d="m182.73,317.77l.86-.51c1.57,2.68,4.36,4.77,7.47,5.58l-.25.97c-3.41-.89-6.35-3.09-8.08-6.04Z"/>
    <path class="cls-4" d="m197.58,318.79l.71-.09c.48.27.96.54,1.43.83l-1.65.2c-.13-.08-.27-.16-.4-.22l-.09-.72Z"/>
    <path class="cls-4" d="m197.67,319.51c.13.06.27.14.4.22l-.36.05-.04-.27Z"/>
    <path class="cls-4" d="m198.07,319.73l1.65-.2c1.87,1.11,3.67,2.34,5.37,3.75l-.39.32.6.72c-3.81,3.8-2.03,8.95-.29,13.93.37,1.06.75,2.16,1.06,3.2,2.47,8.34,5.21,15.41,8.38,21.63,4.62,9.08,14.96,25.34,32.24,32.2,4.21,1.67,8.74,2.69,13.11,3.68,4.59,1.03,9.33,2.1,13.76,3.93l2.33.96h-24.44c1.09,3,2.72,5.89,4.31,8.7,1.36,2.4,2.76,4.89,3.83,7.45,2.65,6.35,5.77,8.1,12.26,10.58,12.61,4.82,25.67,9.16,38.29,13.35,3.02,1.01,6.03,2.01,9.05,3.02.02,0,.04,0,.06.02l1.73.58-1.77.38c-23.39,6.47-49.81,9.75-78.52,9.75-7.21,0-15.1-1.35-22.73-2.66-3.5-.6-6.8-1.16-10.02-1.6-11.69-3.19-20.31-6.07-29.83-9.96-22.32-9.95-43.47-22.93-63.93-35.49l-.13-.11c-16.07-19.52-32.67-39.69-50.51-58.11l-.06-.06.07-.5c-.22-.03-.44-.07-.66-.11l-.05-.05c.71.12,1.41.19,2.1.21-.02.1,0,.18,0,.25.13.1.26.24.42.42l1.27,1.4-.29-.1c17.06,17.84,33,37.2,48.43,55.95,20.41,12.53,41.51,25.48,63.74,35.38,9.46,3.87,18.05,6.74,29.63,9.9,3.18.43,6.48.99,9.98,1.59,7.59,1.3,15.44,2.65,22.57,2.65,26.46,0,50.95-2.79,72.91-8.3-.06-.02-.11-.04-.17-.06l-.83-.25.64-.59c.48-.44,1.1-.72,1.79-.86-1.73-.58-3.47-1.16-5.21-1.74-12.63-4.2-25.69-8.54-38.33-13.37-6.61-2.52-10.03-4.44-12.82-11.13-1.05-2.5-2.44-4.96-3.78-7.34-1.73-3.05-3.51-6.21-4.62-9.53l-.22-.66h20.57c-3.61-1.24-7.37-2.09-11.04-2.91-4.41-1-8.97-2.03-13.26-3.73-17.58-6.99-28.08-23.47-32.76-32.68-3.2-6.27-5.96-13.4-8.45-21.8-.3-1.02-.66-2.05-1.05-3.15-1.7-4.91-3.63-10.46.24-14.67-1.96-1.59-4.05-2.96-6.23-4.18Zm118.25,127.75c-.32,0-.64.03-.94.08.31-.01.62-.04.94-.08Z"/>
    <path class="cls-4" d="m105.39,322.65l.97.23c-1.13,4.88.35,10.22,3.86,13.93l-.72.68c-3.75-3.95-5.32-9.63-4.11-14.84Z"/>
    <path class="cls-4" d="m205.09,323.28c.09.06.18.14.27.21l.43.36-.4.38-.09.09-.6-.72.39-.32Z"/>
    <path class="cls-4" d="m100.98,324.1l.99.18c-.78,4.4.31,9.03,2.98,12.69l-.8.59c-2.84-3.88-3.99-8.79-3.17-13.46Z"/>
    <path class="cls-4" d="m15.14,326.38l24.27,7.9,27.96,1.41v.03l-.39.45.35.31v.21s-28.17-1.44-28.17-1.44l-18.93-6.16,3.12,2.44,36.76,16.93-.3.85c.34.12.69.22,1.03.32l-.1.22-37.96-17.49-7.64-5.98Z"/>
    <path class="cls-4" d="m193.28,327.65l.41.91c-8.54,3.85-16.95,7.46-25.82,9.43-3.95.87-8.01,1.42-11.51,1.87-24.41,3.09-49.28,4.39-73.9,3.87l.02-1c24.57.52,49.39-.78,73.76-3.87,3.47-.44,7.51-.98,11.41-1.85,8.78-1.94,17.13-5.54,25.63-9.36Z"/>
    <path class="cls-4" d="m90.33,334.06l.47.88c-3.46,1.83-6.74,4-9.75,6.45l-.63-.77c3.06-2.49,6.39-4.7,9.91-6.56Z"/>
    <polygon class="cls-4" points="67.37 335.72 67.33 336.48 66.98 336.17 67.37 335.72"/>
    <path class="cls-4" d="m77.39,336.96l.56.03-.24.27.64.56-.09,1.85-.91.23.64,2.48c-.04.08-.11.15-.19.22-.25.21-.54.22-.75.23-.85.06-1.36.85-1.85,1.61l-.21.32c-1.23,1.84-3.21,3.24-5.59,3.95-1.38.42-2.89.6-4.46.53,0-.08.01-.17.03-.28l-.98-.2s-.01.06-.01.09l-1.3-.84v-.03c2.28.43,4.5.35,6.44-.23,2.15-.64,3.94-1.9,5.04-3.55l.2-.31c.57-.87,1.27-1.96,2.52-2.05h.12c.05-.01.12-.01.16-.02-.01,0,0-.06,0-.14l.23-4.72Z"/>
    <path class="cls-4" d="m77.95,336.99l.44.02-.04.81-.64-.56.24-.27Z"/>
    <path class="cls-4" d="m78.26,339.67l.06-.02,1.29,5.04c.12.44.45.86.66.93l.7.76c-.29.24-.66.3-1.02.19-.63-.22-1.14-.98-1.3-1.63l-.66-2.56c.15-.24.16-.51.17-.66l.1-2.05Z"/>
    <path class="cls-4" d="m77.35,339.9l.91-.23-.1,2.05c-.01.15-.02.42-.17.66l-.64-2.48Z"/>
    <polygon class="cls-4" points="60.48 346.59 62.68 348.01 62.55 348.72 60.48 346.59"/>
    <path class="cls-4" d="m89.88,348.01l.78-.62c.54.67.73,1.41.73,2.19,0,1-.32,2.05-.64,3.08-.49,1.63-.96,3.16-.18,4.34l-.31.2c-.34-.26-.68-.52-1.01-.8-.3-1.28.13-2.68.55-4.03.5-1.66.98-3.22.08-4.36Z"/>
    <path class="cls-4" d="m62.55,348.72l.13-.71,1.3.84s.01-.06.01-.09l.98.2c-.02.11-.03.2-.03.28-.69-.02-1.39-.09-2.1-.21l-.29-.31Z"/>
    <path class="cls-4" d="m60.11,348.46l.03-.09c.89.3,1.82.54,2.75.71l.59.61-.07.49c-.86-.13-1.72-.31-2.57-.55l.32-.69-1.05-.48Z"/>
    <path class="cls-4" d="m60.11,348.46l1.05.48-.32.69c-.34-.1-.69-.2-1.03-.32l.3-.85Z"/>
    <path class="cls-4" d="m62.5,348.97l.05-.25.29.31c-.11-.02-.23-.04-.34-.06Z"/>
    <path class="cls-4" d="m62.89,349.08c.22.04.44.08.66.11l-.07.5-.59-.61Z"/>
    <path class="cls-4" d="m107.3,351.25l1,.13c-.45,3.47-.46,6.99-.03,10.46l-.99.13c-.44-3.56-.43-7.17.02-10.72Z"/>
    <path class="cls-4" d="m111.79,351.84l.94.34c-.89,2.47.13,5.16,1.35,7.94.53,1.21,1.08,2.45,1.96,3.45.92,1.05,2.16,1.66,3.3,1.63l.03,1c-1.46.04-2.95-.68-4.08-1.97-.98-1.11-1.56-2.43-2.12-3.71-1.31-2.97-2.4-5.86-1.38-8.68Z"/>
    <path class="cls-4" d="m84.93,353.93l.69-.72c1.16,1.13,2.37,2.2,3.63,3.19.09.39.24.78.49,1.15l.52-.35c9.07,6.91,20.29,10.97,30.36,14.62,42.4,15.35,80.84,28.12,121.91,28.91l-.02,1c-7.73-.15-15.36-.72-22.95-1.65-32.86-4.03-64.76-14.82-99.28-27.32-6.36-2.31-13.17-4.77-19.62-8.01-5.71-2.87-11.13-6.33-15.73-10.82Z"/>
    <path class="cls-4" d="m205.12,353.76l1,.06c-.32,6.06,3.22,11.89,6.07,16.57,4.97,8.16,10.11,16.59,17.32,23.28l-.68.73c-7.31-6.78-12.49-15.27-17.49-23.49-2.92-4.8-6.55-10.78-6.22-17.15Z"/>
    <path class="cls-4" d="m89.25,356.4c.33.28.67.54,1.01.8l-.52.35c-.25-.37-.4-.76-.49-1.15Z"/>
    <path class="cls-4" d="m81.06,357.47l.5-.87c6,3.42,12.1,6.67,18.3,9.74,37.24,18.46,77.86,30.55,119.49,35.56,8.79,1.07,17.62,1.81,26.48,2.24l-.05,1c-57.95-2.78-114.91-19.26-164.72-47.67Z"/>
    <path class="cls-4" d="m87.02,364.03l.48-.88c1.19.66,1.99,2,2.18,3.69.1.85.05,1.7,0,2.53-.03.48-.05.95-.06,1.44.01,2.74,1.01,5.41,2.81,7.54l-.76.65c-1.96-2.31-3.04-5.21-3.05-8.18,0-.49.03-1.01.06-1.51.05-.82.1-1.59,0-2.36-.08-.64-.38-2.22-1.67-2.92Z"/>
    <path class="cls-3" d="m100.66,364.75c6.45,3.24,13.26,5.7,19.62,8.01,34.52,12.5,66.42,23.29,99.28,27.32l-.21,1.82c-41.63-5.01-82.25-17.1-119.49-35.56l.8-1.59Z"/>
    <path class="cls-4" d="m113.48,383.86l.96-.28c.47,1.62.34,3.3.21,4.91-.05.6-.09,1.2-.11,1.79-.05,1.5.19,4.2,2.17,5.41l-.53.86c-2.41-1.49-2.68-4.58-2.64-6.3.02-.61.06-1.22.11-1.83.13-1.6.25-3.11-.17-4.56Z"/>
    <path class="cls-4" d="m119.92,387.6l1-.02c.13,5.74,2.21,11.42,5.85,15.99.27.34.56.68.84,1.03,1.26,1.51,2.57,3.08,3.09,5.01l-.97.26c-.46-1.72-1.69-3.2-2.89-4.63-.29-.35-.58-.7-.86-1.05-3.77-4.74-5.93-10.63-6.06-16.59Z"/>
    <path class="cls-4" d="m244.78,410.12l.99-.08c.18,2.39,1.84,4.29,3.6,6.3,1.67,1.92,3.4,3.9,3.83,6.38l-.99.17c-.38-2.21-1.94-4-3.59-5.89-1.79-2.05-3.64-4.17-3.84-6.88Z"/>
    <path class="cls-4" d="m219.52,449.11l.2-.98c14.99,3.09,30.34,4.14,45.63,3.14l.07.99c-15.39,1.02-30.83-.05-45.9-3.15Z"/>
  </g>
  <g>
    <path class="cls-1" d="m77.95,336.99c4.99-5.62,10.45-10.87,16.23-16.42,5.14-4.94,10.46-10.05,15.38-15.42.53-1.06.37-2.41.2-3.83-.19-1.55-.4-3.26.33-4.77.24-.49.57-.96,1.03-1.4.89-.85,1.78-.85,2.57-.85.69,0,1.25,0,1.82-.51,5-10.5,10.85-22.76,19.13-32.46,3.45-4.05,7.34-7.64,11.76-10.48"/>
    <path class="cls-1" d="m142.92,254.6c-12.4,10.01-20.17,26.32-26.55,39.71l-.11.14c-.88.85-1.78.85-2.57.85-.72,0-1.28,0-1.88.57-1.52,1.46-1.3,3.34-1.06,5.33.18,1.53.38,3.12-.33,4.47l-.07.11c-4.96,5.41-10.31,10.54-15.48,15.51-5.85,5.63-11.39,10.94-16.41,16.63l-.11-.1"/>
    <path class="cls-1" d="m147.69,251.07l.06.1c-1.5.92-2.93,1.92-4.31,3"/>
    <path class="cls-1" d="m199.72,319.53c1.87,1.11,3.67,2.34,5.37,3.75"/>
    <path class="cls-1" d="m144.44,285.71c8.31,9.18,16.18,17.85,27.99,22.61,2.9,1.17,5.92,2.24,8.84,3.27,5.74,2.03,11.62,4.12,17.02,7.11"/>
    <path class="cls-1" d="m197.67,319.51c-5.3-2.93-11.08-4.98-16.74-6.98-2.93-1.03-5.95-2.1-8.88-3.28-12.03-4.85-19.97-13.61-28.37-22.89l-.49-.54.04-.04"/>
    <path class="cls-1" d="m64.94,349.24c-.02.1,0,.18,0,.25.13.1.26.24.42.42l1.27,1.4-.29-.1c17.06,17.84,33,37.2,48.43,55.95,20.41,12.53,41.51,25.48,63.74,35.38,9.46,3.87,18.05,6.74,29.63,9.9,3.18.43,6.48.99,9.98,1.59,7.59,1.3,15.44,2.65,22.57,2.65,26.46,0,50.95-2.79,72.91-8.3-.06-.02-.11-.04-.17-.06l-.83-.25.64-.59c.48-.44,1.1-.72,1.79-.86-1.73-.58-3.47-1.16-5.21-1.74-12.63-4.2-25.69-8.54-38.33-13.37-6.61-2.52-10.03-4.44-12.82-11.13-1.05-2.5-2.44-4.96-3.78-7.34-1.73-3.05-3.51-6.21-4.62-9.53l-.22-.66h20.57c-3.61-1.24-7.37-2.09-11.04-2.91-4.41-1-8.97-2.03-13.26-3.73-17.58-6.99-28.08-23.47-32.76-32.68-3.2-6.27-5.96-13.4-8.45-21.8-.3-1.02-.66-2.05-1.05-3.15-1.7-4.91-3.63-10.46.24-14.67-1.96-1.59-4.05-2.96-6.23-4.18"/>
    <polyline class="cls-1" points="62.55 348.72 60.48 346.59 62.68 348.01"/>
    <line class="cls-1" x1="62.89" y1="349.08" x2="62.84" y2="349.03"/>
    <path class="cls-1" d="m205.3,324.32c-3.81,3.8-2.03,8.95-.29,13.93.37,1.06.75,2.16,1.06,3.2,2.47,8.34,5.21,15.41,8.38,21.63,4.62,9.08,14.96,25.34,32.24,32.2,4.21,1.67,8.74,2.69,13.11,3.68,4.59,1.03,9.33,2.1,13.76,3.93l2.33.96h-24.44c1.09,3,2.72,5.89,4.31,8.7,1.36,2.4,2.76,4.89,3.83,7.45,2.65,6.35,5.77,8.1,12.26,10.58,12.61,4.82,25.67,9.16,38.29,13.35,3.02,1.01,6.03,2.01,9.05,3.02.02,0,.04,0,.06.02l1.73.58-1.77.38c-23.39,6.47-49.81,9.75-78.52,9.75-7.21,0-15.1-1.35-22.73-2.66-3.5-.6-6.8-1.16-10.02-1.6-11.69-3.19-20.31-6.07-29.83-9.96-22.32-9.95-43.47-22.93-63.93-35.49l-.13-.11c-16.07-19.52-32.67-39.69-50.51-58.11l-.06-.06"/>
    <path class="cls-1" d="m315.38,447.56c.31-.01.62-.04.94-.08-.32,0-.64.03-.94.08Z"/>
    <polyline class="cls-1" points="67.33 336.48 67.32 336.69 39.16 335.25 20.23 329.09 23.35 331.53 60.11 348.46"/>
    <polyline class="cls-1" points="60.84 349.63 60.74 349.85 22.78 332.36 15.14 326.38 39.41 334.28 67.37 335.69 67.37 335.72"/>
    <polygon class="cls-1" points="198.29 318.7 204.76 317.88 218.3 301.97 218.3 307.67 212.71 318.26 205.34 324.37 205.3 324.32 204.7 323.6 205.09 323.28 212 317.56 217.3 307.43 217.3 304.68 205.27 318.82 199.72 319.53 198.07 319.73 197.71 319.78 197.67 319.51 197.58 318.79 198.29 318.7"/>
    <polyline class="cls-1" points="65.61 121.06 61.94 120.74 45.77 122.62 15.04 130.86 33.73 117.9 63.62 106.67 64.27 106.01"/>
    <polyline class="cls-1" points="65.98 120.09 67.39 120.21 67.31 121.07"/>
    <polyline class="cls-1" points="65.21 106.48 64.18 107.53 64.08 107.56 34.14 118.81 20.32 128.4 45.58 121.64 61.93 119.74 61.98 119.74 65.85 120.08"/>
    <polyline class="cls-1" points="117.85 164.81 118.86 165.42 133.15 193.65 146.09 207.28 140.07 181.64 155.59 158.78 182.71 142.3 182.81 142.28 188.02 141.36 201.72 138.96 217.3 151.58 217.3 147.17 209.54 136.98 202.06 129.84 202.09 123.35 212.96 95.56 224.35 78.09 239.27 64.85 248.31 61.58 268.63 54.23 250.39 55.06 264.13 28.82 293.87 9.89 319.27 9.89 284.12 1.5 231.63 1.5 175.2 14.62 137.89 34.77 99.17 66.61 79.54 91.91 66.09 105.59"/>
    <polyline class="cls-1" points="79.83 119.07 84.46 125.1 94.72 134.42 107.64 147.7 109.59 159.84 115.48 163.38"/>
    <polyline class="cls-1" points="108.2 157.45 106.7 148.17 94.03 135.14 83.72 125.78 78.26 118.67 78.32 118.62"/>
    <polyline class="cls-1" points="145.21 207.8 132.29 194.17 118.1 166.13 117.06 165.51 117.06 165.5 108.68 160.45 108.38 158.62"/>
    <line class="cls-1" x1="147.61" y1="210.34" x2="146.43" y2="209.09"/>
    <polyline class="cls-1" points="64.83 105.44 78.79 91.25 98.49 65.87 137.34 33.95 174.91 13.66 231.57 .5 284.3 .52 327.77 10.89 294.16 10.89 264.9 29.52 252.09 53.98 275.15 52.93 239.7 65.75 225.07 78.79 213.83 96.06 203.06 123.62 203.06 129.42 210.28 136.31 218.3 146.83 218.3 153.68 201.44 140.02 183.07 143.25 156.2 159.58 141.14 181.84 147.83 210.31"/>
    <path class="cls-1" d="m219.35,401.9c8.79,1.07,17.62,1.81,26.48,2.24l-.05,1c-57.95-2.78-114.91-19.26-164.72-47.67l.5-.87c6,3.42,12.1,6.67,18.3,9.74,37.24,18.46,77.86,30.55,119.49,35.56Z"/>
    <path class="cls-1" d="m90.26,357.2c9.07,6.91,20.29,10.97,30.36,14.62,42.4,15.35,80.84,28.12,121.91,28.91l-.02,1c-7.73-.15-15.36-.72-22.95-1.65-32.86-4.03-64.76-14.82-99.28-27.32-6.36-2.31-13.17-4.77-19.62-8.01-5.71-2.87-11.13-6.33-15.73-10.82l.69-.72c1.16,1.13,2.37,2.2,3.63,3.19"/>
    <path class="cls-1" d="m193.69,328.56c-8.54,3.85-16.95,7.46-25.82,9.43-3.95.87-8.01,1.42-11.51,1.87-24.41,3.09-49.28,4.39-73.9,3.87l.02-1c24.57.52,49.39-.78,73.76-3.87,3.47-.44,7.51-.98,11.41-1.85,8.78-1.94,17.13-5.54,25.63-9.36l.41.91Z"/>
    <path class="cls-1" d="m119.37,366.2c-1.46.04-2.95-.68-4.08-1.97-.98-1.11-1.56-2.43-2.12-3.71-1.31-2.97-2.4-5.86-1.38-8.68l.94.34c-.89,2.47.13,5.16,1.35,7.94.53,1.21,1.08,2.45,1.96,3.45.92,1.05,2.16,1.66,3.3,1.63l.03,1Z"/>
    <path class="cls-1" d="m108.3,351.38c-.45,3.47-.46,6.99-.03,10.46l-.99.13c-.44-3.56-.43-7.17.02-10.72l1,.13Z"/>
    <path class="cls-1" d="m110.22,336.81l-.72.68c-3.75-3.95-5.32-9.63-4.11-14.84l.97.23c-1.13,4.88.35,10.22,3.86,13.93Z"/>
    <path class="cls-1" d="m104.95,336.97l-.8.59c-2.84-3.88-3.99-8.79-3.17-13.46l.99.18c-.78,4.4.31,9.03,2.98,12.69Z"/>
    <path class="cls-1" d="m116.71,395.69l-.53.86c-2.41-1.49-2.68-4.58-2.64-6.3.02-.61.06-1.22.11-1.83.13-1.6.25-3.11-.17-4.56l.96-.28c.47,1.62.34,3.3.21,4.91-.05.6-.09,1.2-.11,1.79-.05,1.5.19,4.2,2.17,5.41Z"/>
    <path class="cls-1" d="m130.7,409.61l-.97.26c-.46-1.72-1.69-3.2-2.89-4.63-.29-.35-.58-.7-.86-1.05-3.77-4.74-5.93-10.63-6.06-16.59l1-.02c.13,5.74,2.21,11.42,5.85,15.99.27.34.56.68.84,1.03,1.26,1.51,2.57,3.08,3.09,5.01Z"/>
    <path class="cls-1" d="m265.42,452.26c-15.39,1.02-30.83-.05-45.9-3.15l.2-.98c14.99,3.09,30.34,4.14,45.63,3.14l.07.99Z"/>
    <path class="cls-1" d="m253.2,422.72l-.99.17c-.38-2.21-1.94-4-3.59-5.89-1.79-2.05-3.64-4.17-3.84-6.88l.99-.08c.18,2.39,1.84,4.29,3.6,6.3,1.67,1.92,3.4,3.9,3.83,6.38Z"/>
    <path class="cls-1" d="m229.51,393.67l-.68.73c-7.31-6.78-12.49-15.27-17.49-23.49-2.92-4.8-6.55-10.78-6.22-17.15l1,.06c-.32,6.06,3.22,11.89,6.07,16.57,4.97,8.16,10.11,16.59,17.32,23.28Z"/>
    <path class="cls-1" d="m191.06,322.84l-.25.97c-3.41-.89-6.35-3.09-8.08-6.04l.86-.51c1.57,2.68,4.36,4.77,7.47,5.58Z"/>
    <path class="cls-1" d="m132.66,286.25c-.72,4.8-3.14,9.14-5.49,13.33-1.25,2.23-2.54,4.54-3.55,6.88-.56,1.3-1.06,2.66-1.55,3.98-1.06,2.92-2.17,5.94-4.05,8.55l-.81-.59c1.8-2.49,2.88-5.45,3.92-8.3.49-1.33,1-2.71,1.57-4.04,1.03-2.39,2.34-4.72,3.6-6.97,2.3-4.11,4.68-8.37,5.37-12.98l.99.14Z"/>
    <path class="cls-1" d="m123.9,267.59c-1.82,5.02-3.57,10.15-5.21,15.23l-.95-.31c1.64-5.09,3.4-10.22,5.22-15.26l.94.34Z"/>
    <path class="cls-1" d="m127.22,259.3c.59-.2,1.19-.38,1.78-.55.6-.17,1.21-.35,1.8-.56,1.82-.64,3.94-2.05,3.9-3.98v-.49s1.91-.07,1.91-.07c.44-1.77.49-3.64.13-5.43l.98-.19c.17.86.26,1.74.26,2.62,0,1.22-.17,2.44-.49,3.62l-.1.36-1.72.06c-.18,1.5-1.27,2.69-2.62,3.53-.6.38-1.26.69-1.91.92-.61.21-1.24.39-1.87.58-1.55.44-3.01.86-4.17,1.78l-.62-.79c.82-.64,1.77-1.07,2.74-1.41Z"/>
    <path class="cls-1" d="m134.06,260.83c-1.78,1.76-4.46,2.71-7.01,2.46l.1-.99c2.26.21,4.64-.62,6.21-2.18l.7.71Z"/>
    <path class="cls-1" d="m131.97,244.73c1.09.28,1.8,1.29,2.1,2.97.04.27.07.55.07.82,0,1.54-.73,3.2-2.14,4.84-1.36,1.58-3.22,3-5.13,4.03-1.96,1.05-3.98,1.68-5.58,1.65h-.29s-.13-.26-.13-.26c-1.36-2.48-.19-5.4,1.37-7.3,1.05-1.28,6.45-7.62,9.73-6.75Z"/>
    <path class="cls-1" d="m121.61,258.03c2.86-.1,7.19-2.47,9.63-5.32,1.02-1.19,2.16-2.98,1.84-4.83-.22-1.27-.68-2.01-1.36-2.19-2.24-.58-6.67,3.94-8.7,6.42-1.24,1.51-2.31,3.92-1.41,5.92Z"/>
    <path class="cls-1" d="m117.79,257.95h.04c.02.06.03.14.04.21"/>
    <path class="cls-1" d="m117.92,258.36c.21.98.3,1.96.3,2.94,0,2.68-.67,5.39-1.44,8.15-1.39,4.98-2.96,9.98-4.67,14.87l-.17.48c-1.35,3.84-2.74,7.82-2.31,11.79,0,.03,0,.06,0,.09l-.99.11c-.5-4.23.95-8.34,2.35-12.32l.16-.48c1.71-4.87,3.27-9.85,4.66-14.81,1.03-3.69,1.88-7.29,1.09-10.76"/>
    <path class="cls-1" d="m95.95,240.12l.95-.1c.5,4.87,2.2,9.65,4.9,13.8.31.47.63.93.95,1.4,1.61,2.36,3.28,4.81,3.32,7.67v.1c0,2.61-1.35,4.89-2.67,7.09-.8,1.36-1.63,2.76-2.13,4.2-.9,2.64-.75,5.62-.6,8.51.19,3.88.4,7.91-2,11.14-.71.95-1.6,1.76-2.46,2.53-.83.75-1.6,1.45-2.24,2.27-1.37,1.77-1.94,3.91-2.55,6.18-.28,1.07-.58,2.18-.97,3.24-1.58,4.32-4.78,8.01-7.61,11.27l-15.11,17.41-.4-.35-.35-.31.39-.45,14.72-16.96c2.9-3.34,5.9-6.8,7.42-10.95.38-1.02.67-2.11.95-3.16.6-2.26,1.23-4.6,2.72-6.53.69-.89,1.54-1.66,2.36-2.4.86-.78,1.68-1.51,2.33-2.39,2.18-2.94,1.99-6.61,1.8-10.49-.15-2.98-.31-6.06.65-8.88.53-1.55,1.39-2.99,2.22-4.39,1.32-2.21,2.59-4.34,2.53-6.66-.04-2.57-1.62-4.88-3.15-7.12-.32-.48-.65-.95-.95-1.42-2.64-4.04-4.35-8.66-4.97-13.38"/>
    <path class="cls-1" d="m46.89,219.72c11.5,1.29,23.22.67,34.59.08,5.79-.31,11.3-.84,15.08-4.1"/>
    <path class="cls-1" d="m44.13,220.38c-.38-.05-.77-.1-1.15-.16l.14-.99c.63.09,1.25.18,1.88.26"/>
    <path class="cls-1" d="m96.7,216.89c-3.99,3.07-9.45,3.61-15.17,3.91-11.96.62-24.3,1.26-36.4-.29"/>
    <path class="cls-1" d="m95.95,240.12l.39.18-.34.69-.1.21c-5.21-2.51-11.25-2.92-17.49-3.15-12-.44-24.16-.43-36.17.01-.1,0-.21.01-.31.01l-.04-1c12.14-.45,24.43-.46,36.56-.02,6.2.22,12.21.63,17.5,3.07Z"/>
    <path class="cls-1" d="m30.47,214.19c-9.24-1.37-19.79,2.88-27.24,11.06-.53.58-1.07,1.2-1.39,1.92-1.04,2.35.59,5.01,1.33,6.05,3.31,4.58,8.57,6.84,12.4,7.92,3.32.94,7.58.86,11.69.79,1.94-.04,3.77-.07,5.43,0h.22s.15.17.15.17c4.62,5.56,12.45,7.49,18.21,8.12,3.3.37,6.7.05,9.98-.26,3.01-.29,6.11-.58,9.19-.36-1.99-1.15-4.64-1.33-7.23-1.49l-.86-.06c-4.05-.29-7.14-1.04-9.71-2.38-1.2-.62-2.34-1.4-3.45-2.16-2.26-1.55-4.4-3.01-6.99-3.21l.08-1c2.85.23,5.2,1.83,7.48,3.39,1.08.73,2.19,1.5,3.34,2.09,2.45,1.27,5.41,1.99,9.32,2.27l.86.06c3.24.21,6.91.45,9.2,2.83l1.01,1.05-1.44-.21c-3.53-.5-7.18-.16-10.71.17-3.33.32-6.78.64-10.18.27-5.88-.65-13.87-2.62-18.73-8.3-1.58-.07-3.31-.04-5.15,0-4.19.07-8.52.15-11.98-.83-3.98-1.12-9.46-3.48-12.94-8.3-1.79-2.49-2.32-5.06-1.44-7.04.38-.85.98-1.55,1.57-2.19,8.03-8.82,19.61-13.19,29.49-11.12v.06"/>
    <path class="cls-1" d="m34.94,214.35s-.03.01-.05.01"/>
    <path class="cls-1" d="m34.72,213.37c2.5-.84,4.85-2.19,6.81-3.89.23-.2.45-.4.67-.61.82-.75,1.68-1.52,2.73-2.04,1.41-.69,3-.82,4.64-.91,7.44-.4,14.96-.27,22.37.39l.54.05-.1.54c-.31,1.81-2.75,1.96-3.92,2.03-4.65.28-8.84,2.67-12.33,4.96-.75.5-1.5,1.01-2.25,1.52-2.23,1.52-4.52,3.07-6.99,4.31-.58.28-1.16.55-1.76.79-.27.13-.54.24-.82.34l-.18-.47-.17-.47c.35-.13.7-.27,1.04-.42,2.96-1.27,5.68-3.12,8.31-4.91.76-.51,1.51-1.02,2.27-1.52,3.6-2.37,7.94-4.83,12.82-5.13,1.01-.06,2.16-.2,2.7-.69-7.11-.6-14.33-.71-21.47-.32-1.6.08-3.02.2-4.26.81-.93.45-1.69,1.15-2.49,1.88-.23.21-.46.42-.69.62-1.99,1.74-4.35,3.11-6.89,3.99"/>
    <path class="cls-1" d="m22.54,233.72c.42-.4.86-.78,1.31-1.14l.61.79c-1.08.85-2.06,1.81-2.91,2.87-.43.54-.85,1.12-.95,1.77-.09.51.09,1.16.6,1.41.35.17.81.15,1.3.13.67-.03,1.43-.06,2.03.43l-.62.78c-.31-.25-.8-.23-1.37-.21s-1.2.05-1.78-.23c-.85-.42-1.32-1.44-1.15-2.48.14-.87.67-1.61,1.16-2.23.27-.33.55-.66.85-.97"/>
    <path class="cls-1" d="m25.54,226.73c-.68.38-1.53.06-2.26-.85-1.3-1.64-2.62-3.42-3.05-5.53-.4-1.99.17-4.66,2.38-5.86l.48.88c-1.69.91-2.22,3.09-1.88,4.78.39,1.9,1.62,3.56,2.86,5.1.31.4.75.73.97.61l.5.87Z"/>
    <path class="cls-1" d="m13.79,233.7l-1,.11c-.06-.62-.53-1.17-1.24-1.49-.76-.34-1.58-.3-2.14.1l-.59-.81c.85-.61,2.05-.69,3.14-.2,1.04.46,1.72,1.32,1.83,2.29Z"/>
    <path class="cls-1" d="m13.04,223.61c-.29,1.96-1.88,3.66-3.88,4.13l-.23-.97c1.58-.38,2.89-1.77,3.12-3.3l.99.14Z"/>
    <path class="cls-1" d="m22.54,233.72c.14.03.28.08.41.13l-.36.93c-.3-.11-.63-.16-.97-.14-.44.01-.89.14-1.3.37-.68.38-1.15.96-1.27,1.61l-.98-.19c.18-.94.82-1.78,1.77-2.3.84-.47,1.83-.61,2.7-.41Z"/>
    <path class="cls-1" d="m21.32,224.58l-.22.98c-1.15-.27-2.16-1.04-2.78-2.12-.59-1.01-.74-2.19-.43-3.21l.96.29c-.24.76-.11,1.64.34,2.42.48.84,1.26,1.44,2.13,1.64Z"/>
    <path class="cls-1" d="m49.17,228.31l-.49.88c-.24-.12-.5-.24-.78-.35-1.93-.56-4.18.8-4.89,1.28-.4.27-.78.55-1.17.83-1.43,1.05-2.9,2.13-4.73,2.42l-.15-.99c1.59-.25,2.9-1.21,4.29-2.23.4-.29.79-.59,1.2-.86.85-.58,1.71-1,2.54-1.26-.45-.07-.87-.09-1.23-.07-2.36.15-4.7-1.36-5.46-3.51l.94-.33c.62,1.74,2.53,2.96,4.46,2.84,1.32-.08,3.16.38,4.58.95.31.1.61.23.89.4Z"/>
    <polyline class="cls-1" points="30.47 213.78 30.47 213.51 31.97 213.51 33.24 213.51"/>
    <polyline class="cls-1" points="30.5 214.51 30.47 214.51 30.47 214.22"/>
    <polyline class="cls-1" points="34.89 214.35 34.89 214.36 34.89 214.51 33.27 214.51"/>
    <polygon class="cls-1" points="35.3 214.22 35.31 214.31 34.94 214.35 34.89 214.35 34.61 214.38 33.27 214.51 30.52 214.78 30.5 214.51 30.47 214.22 30.47 214.19 30.43 213.78 30.47 213.78 31.94 213.63 33.24 213.51 34.72 213.37 35.21 213.32 35.3 214.22"/>
    <path class="cls-1" d="m184.59,237.68l8.67,6.49c1.84-3.12,6.39-3.53,10.09-3.86l.37-.03c7.27-.66,14.44-3.38,20.19-7.67l.66-.48.98,5.81,33.53,2.26-3.79.67,3.52.76-.31.58c-.48.92-1.19,1.71-2.05,2.32,2.6.03,5.17.55,7.57,1.52l.75.31-.61.53c-9.69,8.47-24.81,10.74-36.75,5.52-1.19-.52-2.37-1.11-3.51-1.68-2.88-1.46-5.87-2.96-9.09-3.27-4.58-.43-9.05,1.56-13.38,3.5-4.88,2.17-9.92,4.43-15.17,3.22l-.6-.14.26-.56c.07-.14.07-.25,0-.37-.22-.41-1.05-.84-1.89-.97-8.75-1.39-17.64-2.28-26.52-2.65"/>
    <path class="cls-1" d="m157.3,248.48c5.14.21,10.28.59,15.4,1.14,3.85.41,7.68.92,11.49,1.53.99.16,2.18.68,2.61,1.49.11.21.17.43.17.65v.02c4,.75,7.85-.57,11.83-2.29.74-.31,1.48-.65,2.23-.98,4.44-1.98,9.04-4.03,13.87-3.57,3.41.32,6.48,1.87,9.46,3.36,1.12.57,2.29,1.16,3.45,1.66,11.34,4.96,25.63,2.97,35.06-4.81-2.86-1.02-5.94-1.38-8.97-1.02l-.17-.99c1.44-.32,2.72-1.19,3.53-2.35l-7.16-1.55.7-.13-26.11-1.76-.84-4.98c-5.78,4.12-12.86,6.73-20.04,7.37l-.37.04c-3.83.34-8.18.73-9.55,3.82l-.25.58-10.45-7.83.32-.43"/>
    <path class="cls-1" d="m150.28,248.31c1.74.01,3.48.05,5.23.11"/>
    <line class="cls-1" x1="148.48" y1="249.07" x2="148.48" y2="248.64"/>
    <path class="cls-1" d="m156.98,249.48c-2.42-.1-4.84-.16-7.26-.18"/>
    <line class="cls-1" x1="169.3" y1="207.45" x2="178.56" y2="206.22"/>
    <polyline class="cls-1" points="159.14 209.81 146.67 211.47 146.54 210.48 147.61 210.34 147.83 210.31 168.29 207.59"/>
    <line class="cls-1" x1="167.31" y1="208.73" x2="160.49" y2="209.64"/>
    <line class="cls-1" x1="178.08" y1="207.3" x2="168.81" y2="208.53"/>
    <path class="cls-1" d="m187.35,217.18c1.39-1.52,3.18-2.74,5.14-3.49l.42-.16,1.58,3.14,15.43.26c1.33.02,2.83.04,4.16.62,1.16.51,2.05,1.35,2.92,2.17.43.41.88.84,1.34,1.2,1.25.97,3.15,1.51,4.25.63l1.79-2.89,32.78.55c-.48-1.79-1.84-3.38-3.61-4.14l-1.78-.76,11.42-1.16c-2.75-4.13-7.34-7.03-12.42-7.82-4.24-.66-8.55.11-12.72.86l-12.21,2.18c-9.72,1.75-20.71,3.08-28.14-3.14l-.48-.42c-.7-.6-1.36-1.18-2.16-1.46-1.78-.62-3.59.29-5.52,1.26-.64.32-1.3.66-1.96.92-1.82.74-3.77,1-5.66,1.26l-2.66.35"/>
    <path class="cls-1" d="m179.7,206.07l2.09-.28c1.82-.24,3.71-.49,5.41-1.18.62-.26,1.27-.58,1.9-.9,2.02-1.02,4.11-2.07,6.29-1.3.99.34,1.75,1.01,2.48,1.65.16.13.31.27.47.4,7.1,5.95,17.83,4.63,27.32,2.93l12.22-2.19c4.25-.76,8.64-1.55,13.04-.86,5.64.88,10.71,4.23,13.56,8.97l.4.68-9.54.96c1.55,1.13,2.65,2.85,2.93,4.69l.09.59-33.43-.56-1.63,2.6c-.71.61-1.62.8-2.56.71-1.06-.11-2.15-.6-3.01-1.27-.51-.4-.97-.84-1.42-1.26-.84-.8-1.63-1.55-2.62-1.98-1.16-.5-2.55-.52-3.78-.54l-16.05-.27-1.43-2.86c-2.12.89-3.97,2.36-5.27,4.18"/>
    <path class="cls-1" d="m138.12,208.72c1.45-1.08,2.99-1.82,4.64-1.75"/>
    <path class="cls-1" d="m125.86,211.88c.87.82,1.74,1.59,2.58,2.33,1.9.58,4.1-.33,6.7-2.8"/>
    <path class="cls-1" d="m142.97,207.99c-2.37-.23-4.61,1.63-6.68,3.7-3.13,3.12-5.83,4.25-8.26,3.44l-.18-.1c-4.58-4.07-10.29-9.14-11.89-15.86-.61-2.59-.57-5.28-.53-7.88l.02-1.1c.04-4.45-.16-9.67-2.03-14.49-.67-1.72-1.56-3.46-2.43-5.14-2.18-4.23-4.43-8.6-3.41-13.25l.62.14.36.08c-.08.36-.14.72-.18,1.07v.02c-.41,3.89,1.5,7.58,3.5,11.48.88,1.71,1.79,3.47,2.47,5.23,1.94,4.99,2.14,10.32,2.1,14.87l-.02,1.11c-.04,2.54-.08,5.16.51,7.63.16.66.35,1.29.59,1.92,1.24,3.31,3.52,6.21,6.01,8.77"/>
    <path class="cls-1" d="m143.23,207.01c.14,0,.29.04.43.07l-.03.12"/>
    <path class="cls-1" d="m67.31,121.07c9.88,7.39,17.44,17.66,21.35,29.06l.31.93c.69,2.04,1.4,4.16,2.76,5.83.83,1.01,1.92,1.87,2.97,2.7,1.24.98,2.53,2,3.47,3.32,2.13,3,2.05,6.9,1.99,10.35v.21c-.12,5.6.17,11.42,3.02,16.21.2.32.41.65.62.98.73,1.14,1.48,2.32,1.74,3.69.07.37.11.74.11,1.12,0,1.8-.76,3.54-1.39,4.99l-6.87,15.86h0l-.31.73-.37-.16-.55-.24.41-.95,6.79-15.64c.7-1.62,1.57-3.63,1.21-5.53-.23-1.18-.9-2.22-1.61-3.33-.21-.34-.43-.67-.63-1.01-2.98-5.01-3.28-11.01-3.17-16.74v-.21c.08-3.45.15-7.02-1.8-9.75-.85-1.2-2.03-2.13-3.27-3.12-1.09-.86-2.22-1.75-3.12-2.85-1.48-1.81-2.22-4.01-2.93-6.15l-.31-.92c-4-11.63-11.84-22.05-22.11-29.39-.1-.08-.2-.15-.3-.22l.54-.76.04-.06s.06.04.09.07c.45.31.89.63,1.33.98Z"/>
    <path class="cls-1" d="m123.57,191.35c0,.89-.07,1.78-.22,2.67l-.99-.17c.8-4.76-.73-9.76-4.09-13.36l.73-.69c2.95,3.17,4.57,7.34,4.57,11.55Z"/>
    <path class="cls-1" d="m126.84,186.05l-.85.54-9.33-14.79c-.61-.97-1.29-1.93-2.29-2.11l.17-.98c1.4.24,2.27,1.44,2.96,2.55l9.34,14.79Z"/>
    <path class="cls-1" d="m134.39,196.45l-.5.86c-2.99-1.73-6.23-3-9.63-3.74l.21-.98c3.51.77,6.85,2.07,9.92,3.86Z"/>
    <path class="cls-1" d="m117.62,200.83c-.21-.57-.29-1.18-.14-1.84.36-1.63,1.98-2.59,3.43-2.82,1.51-.23,3.05.16,4.35.58,3.89,1.24,7.47,3.12,10.65,5.58,1.22.94,2.5,2.13,2.76,3.74.03.2.05.4.05.59,0,.74-.23,1.43-.6,2.06-.67,1.13-1.82,2.06-2.98,2.69-.17.09-.33.17-.49.25-2.65,1.26-6.18,1.7-8.79.22t-.01-.01c-.45-.24-.87-.55-1.25-.92-.42-.4-.76-.85-1.06-1.32-.41-.67-.73-1.38-1.03-2.1h-.26c.02-.36-.04-.68-.16-1-.04-.1-.07-.19-.11-.28-.41-.86-1.22-1.65-2.05-2.48-.94-.92-1.89-1.85-2.31-2.94Z"/>
    <path class="cls-1" d="m123.04,206.2c.06.14.11.28.17.42.56,1.36,1.08,2.65,2.08,3.61,2.28,2.2,6.23,1.81,8.94.53,1.79-.85,3.77-2.55,3.45-4.53-.2-1.27-1.32-2.29-2.38-3.11-3.09-2.39-6.57-4.22-10.35-5.42-1.25-.4-2.58-.74-3.89-.54-.89.14-1.92.65-2.39,1.49l.27.06c-.26,1.25.7,2.38,1.7,3.56.36.43.73.86,1.05,1.31.49.7.86,1.46,1.19,2.23.06.13.11.26.16.39Z"/>
    <path class="cls-1" d="m132.99,167.05l-.76.65c-6.67-7.83-11.88-17.06-15.05-26.69l.95-.32c3.13,9.51,8.27,18.63,14.86,26.36Z"/>
    <path class="cls-1" d="m110.98,121.31c-2.43,1.41-5.11,3.13-6.22,5.71-.83,1.94-.69,4.04-.53,6.28.1,1.5.21,3.05,0,4.57-.16,1.1-.74,1.78-1.53,1.79v-1c.29,0,.48-.56.54-.93.19-1.41.09-2.92-.01-4.37-.16-2.25-.32-4.58.61-6.73,1.23-2.86,4.07-4.69,6.64-6.18l.5.86Z"/>
    <path class="cls-1" d="m103.44,119.08c-3.84,3.31-5.42,8.89-3.85,13.59l-.95.31c-1.7-5.07.01-11.1,4.15-14.65l.65.75Z"/>
    <path class="cls-1" d="m83.16,117.06c2.05,2.79,4.33,5.43,6.78,7.89l-.71.7c-2.49-2.48-4.79-5.17-6.87-7.99-.3-.41-.59-.81-.88-1.22l.81-.58c.28.4.57.8.87,1.2Z"/>
    <path class="cls-1" d="m107.87,92.35l.84.55c-2.76,4.24-3.31,9.77-1.43,14.43l-.93.37c-2-4.96-1.41-10.84,1.52-15.35Z"/>
    <path class="cls-1" d="m118.18,90.94c-2.51.85-4.55,3.14-5.48,6.15-.83,2.7-.74,5.61-.57,8.6l-1,.06c-.18-3.09-.26-6.09.62-8.95,1.01-3.32,3.3-5.86,6.11-6.8l.32.94Z"/>
    <path class="cls-1" d="m115.56,63.46c-.79,3.31-.92,6.85-.37,10.2l-.99.17c-.57-3.5-.44-7.16.39-10.61l.97.24Z"/>
    <path class="cls-1" d="m131.69,46.01c0,1.07-.78,2.32-2.29,3.65-6.39,5.62-9.87,13.92-9.32,22.18l-1,.06c-.57-8.58,3.04-17.17,9.66-22.99.81-.72,2.61-2.51,1.68-3.61l.76-.65c.34.41.51.86.51,1.36Z"/>
    <path class="cls-1" d="m177.72,19.49c-7.24,2.65-14.12,6.14-20.47,10.38l-.36.24c-3.84,2.58-8.2,5.49-12.91,4.6l.18-.98c4.32.81,8.49-1.98,12.17-4.45l.37-.24c6.41-4.29,13.37-7.82,20.68-10.48l.34.93Z"/>
    <path class="cls-1" d="m261.6,4.26l-.06,1c-4.75-.28-9.57.25-14.24.76l-26.98,2.96-.11-1,26.98-2.95c4.71-.52,9.58-1.05,14.41-.77Z"/>
    <polygon class="cls-1" points="287.22 5.02 287.1 6.01 275.24 4.6 275.35 3.61 287.22 5.02"/>
    <path class="cls-1" d="m253.17,41.13c-.71,2.94-2.05,5.8-3.87,8.27l-.81-.6c1.75-2.36,3.03-5.09,3.71-7.91l.97.24Z"/>
    <path class="cls-1" d="m107.4,91.39c-8.21,4.13-16.24,8.56-24.16,12.93l-.48-.87c21.04-11.62,42.79-23.63,66.88-29.37,5.24-1.25,10.64-2.2,15.86-3.13,7.06-1.25,14.35-2.54,21.32-4.57,2.61-.76,5.24-1.64,7.79-2.5,4.16-1.4,8.47-2.85,12.85-3.81,13.51-2.96,27.39-1.4,40.82.1l-.12,1c-13.34-1.5-27.14-3.05-40.48-.12-4.34.95-8.62,2.39-12.76,3.78-2.55.86-5.19,1.74-7.82,2.51-7.02,2.05-14.34,3.34-21.43,4.6-5.2.92-10.59,1.87-15.8,3.11-14.91,3.55-28.95,9.54-42.47,16.34Z"/>
    <path class="cls-1" d="m244.9,55.29l-.06,1c-17.42-1.04-34.67,2.82-51.36,6.55l-30.72,6.87c-4.46,1-9.08,2.03-13.58,3.16-23.26,5.85-45.54,14.76-66.22,26.5l-.49-.87c20.75-11.78,43.12-20.73,66.47-26.6,4.51-1.13,9.13-2.17,13.6-3.17l30.72-6.86c16.75-3.75,34.08-7.62,51.64-6.58Z"/>
    <path class="cls-1" d="m115.09,112.46c19.1,1.21,37.9,5.7,55.5,13.33,1.16.51,2.32,1.02,3.48,1.54,6.91,3.08,14.05,6.27,21.63,6.46l-.03,1c-7.78-.19-15.01-3.42-22-6.55-1.16-.51-2.32-1.03-3.47-1.53-26.54-11.51-57.08-15.9-85.99-12.36l-.12-.99c10.33-1.26,20.71-1.56,31-.9Z"/>
    <path class="cls-1" d="m106.31,108.61c15.01.65,30.02,1.96,44.85,3.9,5.73.76,11.32,1.6,16.65,3.54,4.86,1.76,9.34,4.42,13.68,6.98,4.1,2.43,8.34,4.94,12.86,6.67l-.36.94c-4.59-1.76-8.87-4.3-13.01-6.75-4.3-2.54-8.74-5.17-13.51-6.91-5.23-1.9-10.76-2.73-16.44-3.47-11.85-1.56-23.81-2.7-35.8-3.43-11.86-.73-23.75-1.04-35.59-.95v-1c8.86-.07,17.77.09,26.67.48Z"/>
    <path class="cls-1" d="m188.47,137.18c-2.74.91-5.38,2.12-7.82,3.6l-.52-.85c2.51-1.53,5.21-2.77,8.03-3.7l.31.95Z"/>
    <path class="cls-1" d="m223.59,68.29c-3.98,2.32-6.8,6.08-9.03,9.45-4.87,7.36-8.6,15.34-11.09,23.72l-.96-.28c2.52-8.48,6.29-16.55,11.22-24,2.29-3.46,5.2-7.33,9.36-9.75l.5.86Z"/>
    <path class="cls-1" d="m90.8,334.94c-3.46,1.83-6.74,4-9.75,6.45l-.63-.77c3.06-2.49,6.39-4.7,9.91-6.56l.47.88Z"/>
    <path class="cls-1" d="m62.89,349.08c.22.04.44.08.66.11l-.07.5-.07.49c-.86-.13-1.72-.31-2.57-.55-.34-.1-.69-.2-1.03-.32l.3-.85.03-.09c.89.3,1.82.54,2.75.71Z"/>
    <path class="cls-1" d="m78.26,339.67l.06-.02,1.29,5.04c.12.44.45.86.66.93l.7.76c-.29.24-.66.3-1.02.19-.63-.22-1.14-.98-1.3-1.63l-.66-2.56"/>
    <path class="cls-1" d="m92.43,378.35l-.76.65c-1.96-2.31-3.04-5.21-3.05-8.18,0-.49.03-1.01.06-1.51.05-.82.1-1.59,0-2.36-.08-.64-.38-2.22-1.67-2.92l.48-.88c1.19.66,1.99,2,2.18,3.69.1.85.05,1.7,0,2.53-.03.48-.05.95-.06,1.44.01,2.74,1.01,5.41,2.81,7.54Z"/>
    <path class="cls-1" d="m89.25,356.4c-.3-1.28.13-2.68.55-4.03.5-1.66.98-3.22.08-4.36l.78-.62c.54.67.73,1.41.73,2.19,0,1-.32,2.05-.64,3.08-.49,1.63-.96,3.16-.18,4.34l-.31.2-.52.35c-.25-.37-.4-.76-.49-1.15Z"/>
    <path class="cls-1" d="m163.69,230.08l-10.06,1.66c-1.86.3-3.96.65-6,.31-1.83-.32-4.07-1.41-4.87-3.52l-.12-.31.23-.22c2.6-2.55,5.67-3.62,8.89-3.09,2.95.49,6.58,2.38,9.49,3.91l2.44,1.26Z"/>
    <path class="cls-1" d="m143.82,228.47c.75,1.53,2.52,2.34,3.98,2.59,1.87.32,3.8,0,5.67-.31l7.09-1.17c-2.81-1.47-6.25-3.23-8.97-3.68-2.78-.46-5.46.43-7.77,2.57Z"/>
    <path class="cls-1" d="m134.7,228.6c0,.06,0,.12-.01.18-.14,1.2-2.19,2.25-6.65,3.41l-.12.03c-1.88.49-4.33.97-6.63.26-2.11-.64-4.21-2.65-3.98-5.06l.03-.28.26-.12c2.17-1.02,4.47-1.78,6.83-2.28,1.13-.24,2.47-.46,3.82-.3,1.32.17,6.45,1.88,6.45,4.16Z"/>
    <path class="cls-1" d="m118.29,227.8c0,1.71,1.63,3.22,3.29,3.73,2.06.63,4.34.18,6.09-.27l.12-.04c5.5-1.43,5.88-2.38,5.9-2.56.16-1.29-3.97-3.03-5.56-3.22-1.21-.15-2.44.05-3.49.28-2.19.46-4.32,1.16-6.35,2.08Z"/>
    <path class="cls-1" d="m104.8,228.67l.96.26c-.62,2.28-3.1,3.45-5.15,3.56-2.1.12-4.11-.58-6.15-1.37-.99-.38-2.15-.97-2.29-2.12-.12-1.04.66-1.98,2.2-2.64,2.15-.92,4.07-1.3,5.87-1.18,2.23.16,4.23,1.17,5.35,2.71l-.8.59c-.95-1.31-2.68-2.17-4.62-2.3-1.64-.11-3.41.25-5.4,1.1-.4.17-1.72.81-1.6,1.6.07.63.98,1.05,1.65,1.31,1.94.75,3.83,1.41,5.74,1.3,1.75-.1,3.77-1.1,4.24-2.82Z"/>
    <path class="cls-1" d="m145.2,246.2l-.09-1c1.85-.15,3.35-1.3,4.93-2.5.61-.47,1.24-.95,1.9-1.37,4.15-2.67,9.87-2.89,14.24-.54,3.02,1.63,5.23,4.26,7.42,7.04l-.78.62c-2.12-2.7-4.26-5.24-7.12-6.78-4.05-2.18-9.36-1.98-13.22.5-.62.4-1.24.87-1.83,1.32-1.63,1.24-3.32,2.53-5.45,2.71Z"/>
    <polygon class="cls-1" points="142.23 240.23 134.49 240.63 134.44 239.63 142.18 239.23 142.23 240.23"/>
    <polygon class="cls-1" points="144.43 218.35 134.48 218.7 134.44 217.7 144.4 217.35 144.43 218.35"/>
    <path class="cls-1" d="m153.37,215.47c3.23,1.92,7.52,2.24,10.96.62,1.17-.55,2.26-1.32,3.31-2.06,1.35-.94,2.75-1.92,4.36-2.51.45-.17.92-.3,1.38-.44.85-.24,1.66-.47,2.36-.9,1.06-.65,1.77-1.66,2.34-2.88.17-.34.33-.71.48-1.08.11-.28.22-.56.33-.85l.94.36c-.04.11-.09.22-.13.34-.13.34-.28.7-.44,1.07-.62,1.44-1.5,2.98-3,3.9-.82.49-1.73.75-2.6,1.01-.44.12-.88.25-1.31.41-1.49.54-2.77,1.44-4.13,2.39-1.09.76-2.22,1.55-3.46,2.14-3.91,1.86-8.84,1.38-12.41-.99"/>
    <path class="cls-1" d="m151.44,215.33c-.39-.31-.76-.65-1.1-1.02l.74-.68c.41.44.86.84,1.34,1.21"/>
    <polygon class="cls-1" points="166.47 248.16 165.83 248.92 158.8 242.96 159.45 242.2 166.47 248.16"/>
    <path class="cls-1" d="m157.3,248.48c.2.15.4.29.6.42l-.39.59-.16.24c-.12-.08-.25-.16-.37-.25-.5-.33-.99-.68-1.47-1.06-1.29-.94-2.52-1.98-3.67-3.08l.69-.72c1.47,1.4,3.07,2.7,4.77,3.86Z"/>
    <path class="cls-1" d="m160.49,209.64l.1.09c-2.06,2.28-4.51,4.22-7.22,5.74-.34.18-.68.36-1.02.53-.96.49-1.95.92-2.96,1.3l-.35-.94c.82-.3,1.62-.64,2.4-1.03.33-.15.66-.32.98-.49,2.49-1.33,4.77-3.02,6.72-5.03.24-.24.48-.49.71-.75l.64.58Z"/>
    <path class="cls-1" d="m169.3,207.45l.23.17c-.23.31-.47.62-.72.91-2.11,2.56-4.85,4.6-7.97,5.94l-.39-.91c2.62-1.14,4.96-2.78,6.86-4.83.35-.37.68-.75.98-1.14.16-.18.3-.37.44-.56l.57.42Z"/>
    <path class="cls-1" d="m109.36,191.73c0,.91-.17,1.83-.57,2.72l-.91-.4c1.34-3.07-.42-6.56-2.32-9.58-1.86-2.95-4.18-6.63-3.12-10.37l.96.28c-.94,3.3,1.25,6.77,3.01,9.56,1.52,2.41,2.95,5.12,2.95,7.79Z"/>
    <path class="cls-1" d="m112.85,202.78c-.21,3.18-.54,6.4-.99,9.56l-.99-.14c.45-3.13.78-6.33.98-9.48l1,.06Z"/>
    <path class="cls-1" d="m124.25,217.87l-.31.95c-2.3-.76-4.39-2.06-6.04-3.77l.72-.7c1.54,1.59,3.48,2.81,5.63,3.52Z"/>
    <polygon class="cls-1" points="113.19 247.14 112.38 259.81 111.38 259.75 112.19 247.08 113.19 247.14"/>
    <path class="cls-1" d="m122.84,239.35c-2.02,1.11-3.78,2.55-5.23,4.28l-.77-.64c1.54-1.83,3.4-3.34,5.52-4.51l.48.87Z"/>
    <polygon class="cls-1" points="108.75 264.85 104 281.41 103.04 281.13 107.79 264.57 108.75 264.85"/>
    <path class="cls-1" d="m105.61,300.96c-1.59,1.35-2.93,3.02-3.88,4.83l-.89-.46c1.01-1.93,2.44-3.7,4.12-5.13l.65.76Z"/>
    <path class="cls-1" d="m105.51,239.62c0,2.31-.2,4.63-.62,6.9l-.98-.17c.54-2.99.72-6.04.53-9.07l1-.06c.05.8.07,1.6.07,2.4Z"/>
    <polygon class="cls-1" points="81.79 228.34 81.66 229.33 76.13 228.61 76.26 227.62 81.79 228.34"/>
    <rect class="cls-1" x="63.66" y="227.95" width="2.95" height="1"/>
    <rect class="cls-1" x="51.49" y="228.3" width="4.05" height="1"/>
    <path class="cls-1" d="m44.22,244.47l-.2.98c-1.9-.39-3.72-1.06-5.4-1.99l.49-.88c1.59.89,3.31,1.52,5.11,1.89Z"/>
    <path class="cls-1" d="m53.13,209.55c-2.94,1.07-5.68,2.74-7.94,4.83l-.68-.73c2.35-2.18,5.22-3.92,8.28-5.04l.34.94Z"/>
    <path class="cls-1" d="m105.15,156.11l-.96.28c-.49-1.72-1.38-3.34-2.57-4.7l.75-.66c1.29,1.47,2.26,3.23,2.78,5.08Z"/>
    <path class="cls-1" d="m114.03,149.97l-.88.48c-.98-1.8-2.4-3.42-4.09-4.66l.59-.8c1.81,1.32,3.33,3.05,4.38,4.98Z"/>
    <polygon class="cls-1" points="90.81 84.49 82.2 97.09 81.37 96.52 89.98 83.93 90.81 84.49"/>
    <path class="cls-1" d="m74.99,111.16c-.13-.86-.28-1.68-.42-2.31l-.78-3.51.98-.21.78,3.51c.24,1.1.57,2.96.65,4.59"/>
    <path class="cls-1" d="m76.07,115.18l-.92-.16c.07-.41.08-.94.05-1.52"/>
    <path class="cls-1" d="m71.87,119.24l-.99.13c-.25-1.96-1.1-3.88-2.4-5.41l.77-.65c1.42,1.68,2.35,3.79,2.62,5.93Z"/>
    <path class="cls-1" d="m121.18,49.91c-1.38,2.04-3.46,3.46-5.48,4.83-1.15.79-2.35,1.6-3.38,2.52-1.82,1.61-3.26,3.64-4.65,5.6-1.23,1.74-2.5,3.54-4.06,5.08-1.79,1.79-3.9,3.18-5.91,4.42l-.53-.84c1.96-1.22,4.01-2.58,5.74-4.29,1.49-1.48,2.74-3.25,3.95-4.95,1.42-2.01,2.89-4.08,4.8-5.77,1.08-.96,2.3-1.79,3.48-2.59,2.02-1.38,3.94-2.69,5.21-4.57l.83.56Z"/>
    <path class="cls-1" d="m115.48,163.38c-1.44-1.47-3.11-2.74-4.93-3.74l.48-.87c2.7,1.48,5.1,3.54,6.94,5.95l-.12.09-.68.52c-.52-.68-1.09-1.33-1.69-1.95Z"/>
    <path class="cls-1" d="m196.03,136.58c1.2-.24,2.41-.44,3.63-.6l.13.99c-4.11.55-8.15,1.54-12.02,2.96l-.34-.94c2.79-1.02,5.67-1.83,8.6-2.41Z"/>
    <polygon class="cls-1" points="255.86 217.88 255.48 218.8 251.04 216.96 251.42 216.03 255.86 217.88"/>
    <path class="cls-1" d="m232.58,214.59l-.72.69c-1.32-1.38-3.62-1.78-5.36-.94l-.44-.91c2.12-1.01,4.92-.52,6.52,1.16Z"/>
    <polygon class="cls-1" points="246.41 210.06 239.53 211.01 239.39 210.02 246.27 209.07 246.41 210.06"/>
    <path class="cls-1" d="m247.88,244.68l-.19.98c-2.51-.5-5.27.03-7.38,1.42l-.55-.84c2.32-1.52,5.36-2.11,8.12-1.56Z"/>
    <path class="cls-1" d="m234.05,244.21c-2.02.1-4.05-.07-6.02-.5l.21-.98c1.89.42,3.83.58,5.77.48l.04,1Z"/>
    <path class="cls-1" d="m246.67,252.74c-3.17,1.09-6.5.27-9.71-.52-2.77-.68-5.64-1.39-8.34-.84l-.2-.98c2.92-.59,5.9.14,8.78.85,3.21.79,6.25,1.54,9.14.55l.33.94Z"/>
    <path class="cls-1" d="m184.94,229.08l-4.16,2.55c-.84.52-1.79,1.1-2.9,1.25-.13.02-.27.03-.43.03-2.21,0-6.68-1.76-7.03-3.89-.1-.62.07-1.22.5-1.79,1.11-1.46,3.83-2.39,5.31-2.55,3.21-.36,5.93,1.85,8.22,3.95l.49.45Z"/>
    <path class="cls-1" d="m171.39,228.68c0,.06.01.12.02.18.25,1.52,4.68,3.26,6.33,3.03h.01c.9-.12,1.75-.65,2.51-1.11l3.02-1.86c-2.02-1.8-4.36-3.54-6.94-3.25-1.33.15-3.74,1.01-4.62,2.16-.22.29-.33.57-.33.85Z"/>
    <path class="cls-1" d="m182.87,236.61c-1.9,1.02-4,1.75-6.15,2.14.97.44,1.87,1.03,2.63,1.74l-.68.73c-1.18-1.1-2.71-1.88-4.32-2.2l-3.62-.72,3.68-.27c2.79-.2,5.55-.99,7.99-2.3l.47.88Z"/>
    <path class="cls-1" d="m183.01,219.46l-.37.93c-.78-.32-1.49-.73-2.18-1.13-.47-.27-.93-.53-1.41-.77-1.36-.68-2.56-.89-3.56-.63l-.29-.96,5.36-1.94c.66-.24,1.28-.52,1.42-.99l.96.29c-.3,1.01-1.43,1.42-2.04,1.64l-2.98,1.08c.51.14,1.03.34,1.58.61.5.25.98.52,1.46.8.69.4,1.34.78,2.05,1.07Z"/>
    <path class="cls-1" d="m149.55,248.07c.09-.08.17-.16.25-.24l.48.48.23.23c-.26.26-.52.51-.79.76-.65.61-1.33,1.2-2.03,1.77-.23.18-.46.37-.7.55l-.59-.77-.02-.02c.72-.56,1.42-1.15,2.1-1.76.19-.16.37-.33.55-.5"/>
    <path class="cls-1" d="m143.44,254.17l.59.16c-2.71,9.78-4.88,19.3-1.79,28.14.58,1.67,1.33,2.59,2.3,2.82l-.1.42-.13.55c-.39-.09-.75-.25-1.08-.48-.8-.57-1.44-1.56-1.94-2.98-3.12-8.96-1.05-18.45,1.63-28.2.04-.18.09-.35.14-.53l.38.1Z"/>
    <path class="cls-1" d="m187.19,219.23c8,3.23,16.72,4.33,26.45,5.33,2.23.23,4.53.46,6.88.69,13.32,1.31,28.34,2.51,43.55,2.71,1.61.02,3.61.05,5.26-.67.57-.25,1.09-.58,1.64-.94.75-.47,1.53-.96,2.42-1.24,1.26-.38,2.6-.3,3.76-.18,3.97.38,7.88,1.22,11.64,2.5l.74.25-.34.36"/>
    <path class="cls-1" d="m279.76,226.26c-.9-.14-1.8-.25-2.71-.34-1.11-.11-2.29-.18-3.36.15-.77.24-1.46.67-2.18,1.13-.56.36-1.14.72-1.78,1-1.54.68-3.28.77-4.79.77-.31,0-.6-.01-.88-.01-11.84-.17-23.56-.92-34.45-1.86-5.61-.48-11-1.02-16.07-1.54-10.02-1.04-18.99-2.18-27.26-5.62l.21-.5"/>
    <path class="cls-1" d="m287.64,228.2l.07-.07c-2.03-.66-4.11-1.19-6.22-1.58"/>
    <path class="cls-1" d="m288.18,229.07c-3.03,3.03-6.38,5.59-10.32,5.26-1.46-.13-2.82-.65-4.14-1.16-.62-.24-1.27-.49-1.9-.69-3.24-1-6.78-.85-10.2-.7h-.22c-12.21.54-24.54.58-36.82.15-4.31-.15-8.62-.36-12.91-.63l-.87-.05c-4.63-.3-9.42-.6-14.02.15-5.26.86-9.58,3.08-12.19,6.28-.11.12-.21.24-.3.36l-.78-.59h-.01c.08-.11.15-.21.24-.3.01-.03.03-.05.05-.07,2.78-3.41,7.31-5.77,12.83-6.67,4.71-.77,9.55-.46,14.24-.16l.87.05c2.94.19,5.9.34,8.85.47,13.58.6,27.26.6,40.78.02h.22c1.12-.05,2.25-.11,3.38-.12,2.42-.02,4.84.13,7.15.85.67.21,1.33.47,1.97.72,1.31.5,2.54.98,3.87,1.09,3.23.27,6.04-1.66,8.49-3.96"/>
    <path class="cls-1" d="m198.41,226.9l-.43.9c-2.41-1.15-5.26-1.35-7.83-.55l-.29-.96c2.8-.87,5.91-.64,8.55.61Z"/>
    <path class="cls-1" d="m285.2,229.27c-2.45.29-4.86.87-7.17,1.71l-.34-.94c2.38-.87,4.86-1.46,7.39-1.76l.12.99Z"/>
    <polygon class="cls-1" points="281.49 226.55 281.56 226.81 278.3 227.7 278.04 226.73 279.76 226.26 281.3 225.84 281.49 226.55"/>
    <path class="cls-1" d="m289.19,228.04l.1.75c-.38.05-.75.15-1.11.28-.51.17-.98.43-1.41.75l-.33-.45-.26-.35c.45-.34.94-.61,1.46-.82.49-.19,1-.33,1.52-.4l.03.24Z"/>
    <rect class="cls-1" x="220.62" y="228.75" width="8.85" height="1"/>
    <path class="cls-1" d="m187.35,217.18l.41.51c-.39.32-.61.8-.6,1.29,0,.08.02.17.03.25.01.01.01.03.01.04l-.71.17-.27.06c-.22-.94.15-1.97.91-2.59l.22.27Z"/>
    <path class="cls-1" d="m77.95,336.99l.44.02-.04.81-.09,1.85-.1,2.05c-.01.15-.02.42-.17.66-.04.08-.11.15-.19.22-.25.21-.54.22-.75.23-.85.06-1.36.85-1.85,1.61l-.21.32c-1.23,1.84-3.21,3.24-5.59,3.95-1.38.42-2.89.6-4.46.53-.69-.02-1.39-.09-2.1-.21-.11-.02-.23-.04-.34-.06l.05-.25.13-.71v-.03c2.28.43,4.5.35,6.44-.23,2.15-.64,3.94-1.9,5.04-3.55l.2-.31c.57-.87,1.27-1.96,2.52-2.05h.12c.05-.01.12-.01.16-.02-.01,0,0-.06,0-.14l.23-4.72.56.03Z"/>
    <path class="cls-1" d="m79.94,118.97l-.11.1-.62.58c-.31-.33-.61-.68-.89-1.03-.74-.91-1.4-1.88-1.96-2.89-.1-.18-.2-.36-.29-.55-.17-.31-.33-.62-.49-.94-.12-.24-.25-.49-.38-.74-.26-.52-.55-1.05-.87-1.54-1.94-2.99-5.45-5.07-9.12-5.48-.32-.04-.63-.06-.95-.07v-.4s.03-.6.03-.6l.54.03c.42.03.84.08,1.26.15,3.6.6,6.89,2.63,8.9,5.57.06.08.12.17.18.26.38.59.71,1.2,1.03,1.81.09.19.19.38.28.56.24.49.49.98.75,1.45.75,1.34,1.66,2.6,2.71,3.73Z"/>
    <path class="cls-1" d="m149.59,248.3l.03.19c-.2.03-.39.06-.59.08-.18.04-.37.06-.55.07-2.9.3-5.89-.18-8.52-1.35-1.07-.48-2.08-1.07-3.06-1.64-1.21-.7-2.46-1.43-3.79-1.92-.33-.12-.66-.22-1-.32-4.03-1.07-8.68.06-11.62,2.9-3.07,2.98-4.16,7.7-2.7,11.64.03.07.05.14.08.21.03.06.05.13.08.19h-.03s-.89.38-.89.38c-.04-.1-.08-.21-.12-.31-1.67-4.31-.51-9.55,2.88-12.82,3.46-3.35,9.08-4.5,13.67-2.81,1.4.52,2.69,1.27,3.94,2,.96.56,1.95,1.13,2.97,1.59,1.5.67,3.12,1.09,4.78,1.26,1.43.15,2.88.11,4.3-.13l.1.56.04.23Z"/>
    <path class="cls-1" d="m145.21,207.8c.47.17.95.3,1.43.42l-.21.87-.02.1c-1.19-.28-2.35-.68-3.44-1.2-.2-.09-.4-.18-.59-.28l.38-.74.08-.15c.13.07.26.13.39.19.13.07.27.13.4.19.52.23,1.04.43,1.58.6Z"/>
    <path class="cls-1" d="m193.26,247.69c.96.26,1.99.33,2.98.17,2.05-.34,3.9-1.64,4.83-3.41l.88.47c-.8,1.53-2.2,2.76-3.84,3.43-.55.23-1.12.4-1.71.5-2.34.38-4.87-.36-6.58-1.94l.67-.74c.77.71,1.74,1.23,2.77,1.52Z"/>
    <path class="cls-1" d="m197.06,214.27l-.91.42c-.95-2.1-3.68-3.3-5.97-2.63l-.28-.96c2.75-.8,6.02.65,7.16,3.17Z"/>
  </g>
</svg>