<?xml version="1.0" encoding="UTF-8"?>
<svg id="Layer_1" data-name="Layer 1" xmlns="http://www.w3.org/2000/svg" viewBox="0 0 458.18 332.02">
  <defs>
    <style>
      .cls-1 {
        fill: none;
        stroke: #231f20;
        stroke-miterlimit: 10;
      }

      .cls-2 {
        fill: #0a3d1f;
      }

      .cls-3 {
        fill: #2bb673;
      }

      .cls-4 {
        fill: #00a651;
      }

      .cls-5 {
        fill: #006838;
      }
    </style>
  </defs>
  <g>
    <path class="cls-2" d="m229.43,229.47l1.65.14c-.94,10.89-1.69,22.61-1.86,34.45,0,.28-.01.57-.01.88l-1.7.02c-.01-1.13-.07-2.26-.11-3.38v-.22c-.59-13.52-.59-27.2.01-40.78l1.02.04v8.85h1Z"/>
    <path class="cls-2" d="m232.11,273.69c.33,1.07.26,2.25.15,3.36-.09.91-.2,1.81-.34,2.71l-.47-1.72-.97.26.89,3.26.26-.07c-.39,2.11-.92,4.19-1.58,6.22l-.07-.07c-.21-.52-.48-1.01-.82-1.46l-.35.26c-2.3-2.45-4.23-5.26-3.96-8.49.11-1.33.59-2.56,1.09-3.87.25-.64.51-1.3.72-1.97.72-2.31.87-4.73.85-7.15l1.7-.02c0,1.51.09,3.25.77,4.79.28.64.64,1.22,1,1.78.46.72.89,1.41,1.13,2.18Zm-3.2,11.51l.99-.12c-.3-2.53-.89-5.01-1.76-7.39l-.94.34c.84,2.31,1.42,4.72,1.71,7.17Z"/>
    <path class="cls-2" d="m216.01,152.48c2.48,3.86,2.68,9.17.5,13.22-1.54,2.86-4.08,5-6.78,7.12l-1.17-.12c.55-5.12.93-10.26,1.14-15.4,1.16-1.7,2.46-3.3,3.86-4.77l-.72-.69c-1.1,1.15-2.14,2.38-3.08,3.67.06-1.75.1-3.49.11-5.23l.48-.48c-.08-.08-.16-.16-.24-.25l.56-.1c-.24-1.42-.28-2.87-.13-4.3l1.44.05c.18,2.13,1.47,3.82,2.71,5.45.45.59.92,1.21,1.32,1.83Zm-5.99,13.99l5.96-7.02-.76-.65-5.96,7.03.76.64Z"/>
    <path class="cls-2" d="m249.65,168.81l1.23,9.27c-1.22-.57-2.23-1.28-2.88-2.34-.43-.7-.66-1.51-.9-2.36-.14-.46-.27-.93-.44-1.38-.59-1.61-1.57-3.01-2.51-4.36-.74-1.05-1.51-2.14-2.06-3.31-1.62-3.44-1.3-7.73.62-10.96,1.52,2.71,3.46,5.16,5.74,7.22l.09-.1.91,6.82c-2.05-1.9-3.69-4.24-4.83-6.86l-.91.39c1.34,3.12,3.38,5.86,5.94,7.97Z"/>
    <path class="cls-2" d="m232.51,176.34c.29,2.58-1.45,4.92-3.25,6.94l-1.86-3.02c-.46-.76-.99-1.61-1.11-2.51h0c-.23-1.66,1.51-6.09,3.03-6.34.06-.01.12-.02.18-.02.28,0,.56.11.85.33,1.15.88,2.01,3.29,2.16,4.62Z"/>
    <path class="cls-2" d="m229.71,143.82c2.14,2.31,3.03,4.99,2.57,7.77-.45,2.72-2.21,6.16-3.68,8.97l-1.17-7.09c-.31-1.87-.63-3.8-.31-5.67.25-1.46,1.06-3.23,2.59-3.98Z"/>
    <path class="cls-2" d="m232.46,124.64c.23,1.05.43,2.28.28,3.49-.19,1.59-1.93,5.72-3.22,5.56-.18-.02-1.13-.4-2.56-5.9l-.04-.12c-.45-1.75-.9-4.03-.27-6.09.51-1.66,2.02-3.28,3.73-3.29.92,2.03,1.62,4.16,2.08,6.35Z"/>
    <path class="cls-2" d="m261.02,121.06c.2,1.31-.14,2.64-.54,3.89-1.2,3.78-3.03,7.26-5.42,10.35-.82,1.06-1.84,2.18-3.11,2.38-1.98.32-3.68-1.66-4.53-3.45-1.28-2.71-1.67-6.66.53-8.94.96-1,2.25-1.52,3.61-2.08.14-.06.28-.11.42-.17.13-.05.26-.1.39-.16.77-.33,1.53-.7,2.23-1.19.45-.32.88-.69,1.31-1.05,1.18-1,2.31-1.96,3.56-1.7l.06-.27c.84.47,1.35,1.5,1.49,2.39Z"/>
    <path class="cls-2" d="m230.9,94.77c.85,1.99,1.21,3.76,1.1,5.4-.13,1.94-.99,3.67-2.3,4.62h-.19c-1.72-.46-2.72-2.48-2.82-4.23-.11-1.91.55-3.8,1.3-5.74.26-.67.68-1.58,1.31-1.65.79-.12,1.43,1.2,1.6,1.6Z"/>
    <path class="cls-2" d="m206.07,123.02c2.48,2.03,7,6.46,6.42,8.7-.18.68-.92,1.14-2.19,1.36-1.85.32-3.64-.82-4.83-1.84-2.85-2.44-5.22-6.77-5.32-9.63,2-.9,4.41.17,5.92,1.41Z"/>
    <path class="cls-4" d="m444.52,174.91l13.16,56.66-.02,52.73-10.37,43.47v-33.61l-18.63-29.26-24.46-12.81,1.05,23.06-12.82-35.45-13.04-14.63-17.27-11.24-27.56-10.77h-5.8l-6.89,7.22-10.52,8.02h-6.85l13.66-16.86-3.23-18.37-16.33-26.87-22.26-15.06-28.47,6.69-.03-.22,1.25-1.18.87.21c.12-.48.25-.96.42-1.43l13.63-12.92,28.04-14.19.62-1.04h.01l.17.11.52.68-.61,1.01-28.23,14.29-13.63,12.94,25.64-6.02,22.86,15.52,16.48,27.12.02.1.92,5.21,2.4,13.7-12.62,15.58h4.41l10.19-7.76,7.14-7.48,6.49.03,27.79,10.87,17.47,11.39,13.24,14.92,3.27,9.04,7.35,20.32-.83-18.24,26.24,13.74,18.93,29.74v25.4l8.39-35.15v-52.49l-13.12-56.43-20.15-37.31-31.84-38.72-25.3-19.63-13.68-13.45c.07-.42.12-.84.15-1.26l14.19,13.96,25.38,19.7,31.92,38.85,20.29,37.57Z"/>
    <path class="cls-3" d="m456.68,231.63v52.49l-8.39,35.15v-25.4l-18.93-29.74-26.24-13.74.83,18.24-7.35-20.32.41-.15,1,.12c1.5-13.43,3.06-27.31.1-40.82-.96-4.38-2.41-8.69-3.81-12.85-.86-2.55-1.74-5.18-2.5-7.79-2.03-6.97-3.32-14.26-4.57-21.32-.93-5.22-1.88-10.62-3.13-15.86-5.74-24.09-17.75-45.84-29.37-66.88l-.87.48c4.37,7.92,8.8,15.95,12.93,24.16l-.96.47c-4.51-2.93-10.39-3.52-15.35-1.52l-.91-.04c.39-8.9.55-17.81.48-26.68h-1c.09,11.85-.22,23.74-.95,35.6l-2.38-.14c.66-10.29.36-20.67-.9-31l-.99.12-2.71-1.05c.4-.3.8-.59,1.2-.87l-.58-.81c-.41.29-.81.58-1.22.88l-1.31-2.42c1.13-1.05,2.39-1.96,3.73-2.71.47-.26.96-.51,1.45-.75.18-.09.37-.19.56-.28,1.63-.08,3.49-.41,4.59-.65l3.51-.78-.21-.98-3.51.78c-.63.14-1.45.29-2.31.42,2.94-2.01,4.97-5.3,5.57-8.9l13.68,13.45,25.3,19.63,31.84,38.72,20.15,37.31,13.12,56.43Zm-3.52,55.59l1.41-11.87-.99-.11-1.41,11.86.99.12Zm.76-25.62c.28-4.83-.25-9.7-.77-14.41l-2.95-26.98-1,.11,2.96,26.98c.51,4.67,1.04,9.49.76,14.24l1,.06Zm-15.23-83.88l.93-.34c-2.66-7.31-6.19-14.27-10.48-20.68l-.24-.37c-2.47-3.68-5.26-7.85-4.45-12.17l-.98-.18c-.89,4.71,2.02,9.07,4.6,12.91l.24.36c4.24,6.35,7.73,13.23,10.38,20.47Zm-21.64,75.45l.24-.97c-2.82-.68-5.55-1.96-7.91-3.71l-.6.81c2.47,1.82,5.33,3.16,8.27,3.87Zm-3.52-121.99l-.65-.76c-1.1.93-2.89-.87-3.61-1.68-5.82-6.62-14.41-10.23-22.99-9.66l.06,1c8.26-.55,16.56,2.93,22.18,9.32,1.33,1.51,2.58,2.29,3.65,2.29.5,0,.95-.17,1.36-.51Zm-5.26-10l.56-.83c-1.88-1.27-3.19-3.19-4.57-5.21-.8-1.18-1.63-2.4-2.59-3.48-1.69-1.91-3.76-3.38-5.77-4.8-1.7-1.21-3.47-2.46-4.95-3.95-1.71-1.73-3.07-3.78-4.29-5.74l-.84.53c1.24,2.01,2.63,4.12,4.42,5.91,1.54,1.56,3.34,2.83,5.08,4.06,1.96,1.39,3.99,2.83,5.6,4.65.92,1.03,1.73,2.23,2.52,3.38,1.37,2.02,2.79,4.1,4.83,5.48Zm-5.38,123.72c1.04-17.56-2.83-34.89-6.58-51.64l-6.86-30.72c-1-4.47-2.04-9.09-3.17-13.6-5.87-23.35-14.82-45.72-26.6-66.47l-.87.49c11.74,20.68,20.65,42.96,26.5,66.22,1.13,4.5,2.16,9.12,3.16,13.58l6.87,30.72c3.73,16.69,7.59,33.94,6.55,51.36l1,.06Zm-8.17-129.34l.24-.97c-3.45-.83-7.11-.96-10.61-.39l.17.99c3.35-.55,6.89-.42,10.2.37Zm-21.03-24.75l.56-.83-12.59-8.61-.57.83,12.6,8.61Z"/>
    <polygon class="cls-4" points="454.57 275.35 453.16 287.22 452.17 287.1 453.58 275.24 454.57 275.35"/>
    <path class="cls-4" d="m453.15,247.19c.52,4.71,1.05,9.58.77,14.41l-1-.06c.28-4.75-.25-9.57-.76-14.24l-2.96-26.98,1-.11,2.95,26.98Z"/>
    <path class="cls-4" d="m439.62,177.38l-.93.34c-2.65-7.24-6.14-14.12-10.38-20.47l-.24-.36c-2.58-3.84-5.49-8.2-4.6-12.91l.98.18c-.81,4.32,1.98,8.49,4.45,12.17l.24.37c4.29,6.41,7.82,13.37,10.48,20.68Z"/>
    <path class="cls-4" d="m417.29,252.2l-.24.97c-2.94-.71-5.8-2.05-8.27-3.87l.6-.81c2.36,1.75,5.09,3.03,7.91,3.71Z"/>
    <path class="cls-4" d="m412.88,130.42l.65.76c-.41.34-.86.51-1.36.51-1.07,0-2.32-.78-3.65-2.29-5.62-6.39-13.92-9.87-22.18-9.32l-.06-1c8.58-.57,17.17,3.04,22.99,9.66.72.81,2.51,2.61,3.61,1.68Z"/>
    <path class="cls-4" d="m408.83,120.35l-.56.83c-2.04-1.38-3.46-3.46-4.83-5.48-.79-1.15-1.6-2.35-2.52-3.38-1.61-1.82-3.64-3.26-5.6-4.65-1.74-1.23-3.54-2.5-5.08-4.06-1.79-1.79-3.18-3.9-4.42-5.91l.84-.53c1.22,1.96,2.58,4.01,4.29,5.74,1.48,1.49,3.25,2.74,4.95,3.95,2.01,1.42,4.08,2.89,5.77,4.8.96,1.08,1.79,2.3,2.59,3.48,1.38,2.02,2.69,3.94,4.57,5.21Z"/>
    <path class="cls-4" d="m396.31,193.26c3.75,16.75,7.62,34.08,6.58,51.64l-1-.06c1.04-17.42-2.82-34.67-6.55-51.36l-6.87-30.72c-1-4.46-2.03-9.08-3.16-13.58-5.85-23.26-14.76-45.54-26.5-66.22l.87-.49c11.78,20.75,20.73,43.12,26.6,66.47,1.13,4.51,2.17,9.13,3.17,13.6l6.86,30.72Z"/>
    <path class="cls-4" d="m398.11,207.46c2.96,13.51,1.4,27.39-.1,40.82l-1-.12c1.5-13.34,3.05-27.14.12-40.48-.95-4.34-2.39-8.62-3.78-12.76-.86-2.55-1.74-5.19-2.51-7.82-2.05-7.02-3.34-14.34-4.6-21.43-.92-5.2-1.87-10.59-3.11-15.8-3.55-14.91-9.54-28.95-16.34-42.47-4.13-8.21-8.56-16.24-12.93-24.16l.87-.48c11.62,21.04,23.63,42.79,29.37,66.88,1.25,5.24,2.2,10.64,3.13,15.86,1.25,7.06,2.54,14.35,4.57,21.32.76,2.61,1.64,5.24,2.5,7.79,1.4,4.16,2.85,8.47,3.81,12.85Z"/>
    <path class="cls-3" d="m397.13,207.68c2.93,13.34,1.38,27.14-.12,40.48l-.41.15-3.27-9.04-13.24-14.92-17.47-11.39-27.79-10.87-6.49-.03-7.14,7.48-10.19,7.76h-4.41l12.62-15.58-2.4-13.7,1.43-.25c1.42,3.87,2.41,7.91,2.96,12.02l.99-.13c-.16-1.22-.36-2.43-.6-3.63l1.79-.36,1,.03c.19-7.58,3.38-14.72,6.46-21.63.52-1.16,1.03-2.32,1.54-3.48,7.63-17.6,12.12-36.4,13.33-55.5l2.38.14c-.73,11.99-1.87,23.95-3.43,35.8-.74,5.68-1.57,11.21-3.47,16.44-1.74,4.77-4.37,9.21-6.91,13.51-2.45,4.14-4.99,8.42-6.75,13.01l.94.36c1.73-4.52,4.24-8.76,6.67-12.86,2.56-4.34,5.22-8.82,6.98-13.68,1.94-5.33,2.78-10.92,3.54-16.65,1.94-14.83,3.25-29.84,3.9-44.85l.91.04.37.93c4.66-1.88,10.19-1.33,14.43,1.43l.55-.84.96-.47c6.8,13.52,12.79,27.56,16.34,42.47,1.24,5.21,2.19,10.6,3.11,15.8,1.26,7.09,2.55,14.41,4.6,21.43.77,2.63,1.65,5.27,2.51,7.82,1.39,4.14,2.83,8.42,3.78,12.76Zm-7.24,15.91l.86-.5c-2.42-4.16-6.29-7.07-9.75-9.36-7.45-4.93-15.52-8.7-24-11.22l-.28.96c8.38,2.49,16.36,6.22,23.72,11.09,3.37,2.23,7.13,5.05,9.45,9.03Zm-22.65-105.41l.94-.32c-.94-2.81-3.48-5.1-6.8-6.11-2.86-.88-5.86-.8-8.95-.62l.06,1c2.99-.17,5.9-.26,8.6.57,3.01.93,5.3,2.97,6.15,5.48Z"/>
    <path class="cls-4" d="m394.96,114.59l-.24.97c-3.31-.79-6.85-.92-10.2-.37l-.17-.99c3.5-.57,7.16-.44,10.61.39Z"/>
    <path class="cls-4" d="m390.75,223.09l-.86.5c-2.32-3.98-6.08-6.8-9.45-9.03-7.36-4.87-15.34-8.6-23.72-11.09l.28-.96c8.48,2.52,16.55,6.29,24,11.22,3.46,2.29,7.33,5.2,9.75,9.36Z"/>
    <polygon class="cls-4" points="374.25 89.98 373.69 90.81 361.09 82.2 361.66 81.37 374.25 89.98"/>
    <path class="cls-4" d="m368.18,117.86l-.94.32c-.85-2.51-3.14-4.55-6.15-5.48-2.7-.83-5.61-.74-8.6-.57l-.06-1c3.09-.18,6.09-.26,8.95.62,3.32,1.01,5.86,3.3,6.8,6.11Z"/>
    <path class="cls-4" d="m365.83,107.87l-.55.84c-4.24-2.76-9.77-3.31-14.43-1.43l-.37-.93c4.96-2,10.84-1.41,15.35,1.52Z"/>
    <path class="cls-4" d="m352.84,73.79l.21.98-3.51.78c-1.1.24-2.96.57-4.59.65.61-.32,1.22-.65,1.81-1.03.09-.06.18-.12.26-.18.86-.13,1.68-.28,2.31-.42l3.51-.78Z"/>
    <path class="cls-4" d="m352.77,64.29l-.03.54-.57-.56.6.02Z"/>
    <path class="cls-4" d="m352.17,64.27l.57.56c-.03.42-.08.84-.15,1.26l-.89-.88c.04-.32.06-.63.07-.95h.4Z"/>
    <path class="cls-4" d="m351.7,65.21l.89.88c-.6,3.6-2.63,6.89-5.57,8.9-.79.11-1.61.19-2.34.21.52-.26,1.05-.55,1.54-.87,2.99-1.94,5.07-5.45,5.48-9.12Z"/>
    <path class="cls-4" d="m351.51,63.62l.66.65h-.4c-.01.31-.03.62-.07.94l-1.05-1.03-.03-.1-11.25-29.94-9.59-13.82,6.76,25.26,1.9,16.35v.05l-.34,3.87-.76-.54c-.07.1-.14.2-.22.3l.32-3.67-1.88-16.17-8.24-30.73,12.96,18.69,11.23,29.89Z"/>
    <path class="cls-5" d="m350.65,64.18l1.05,1.03c-.41,3.67-2.49,7.18-5.48,9.12-.49.32-1.02.61-1.54.87-.58.03-1.11.02-1.52-.05l-.16.92c-.19.09-.37.19-.55.29-1.01.56-1.98,1.22-2.89,1.96l-.05-.06-7.11,5.46-9.36,10.31-13.03,12.67-9.28,1.5.14-.62c-4.65-1.02-9.02,1.23-13.25,3.41-1.68.87-3.42,1.76-5.14,2.43-4.82,1.87-10.04,2.07-14.49,2.03l-1.1-.02c-2.6-.04-5.29-.08-7.88.53-6.72,1.6-11.79,7.31-15.86,11.89l-.1.18c-.81,2.43.32,5.13,3.44,8.26,2.07,2.07,3.93,4.31,3.7,6.68-.52,1.09-.92,2.25-1.2,3.44l.1.02-1.25,1.18-.14-1.07-.99.13,1.66,12.47c-2.01-1.95-3.7-4.23-5.03-6.72.37-.48.77-.93,1.21-1.34l-.68-.74c-.37.34-.71.71-1.02,1.1-.39-.78-.73-1.58-1.03-2.4l-.94.35c.38,1.01.81,2,1.3,2.96-2.37,3.57-2.85,8.5-.99,12.41.59,1.24,1.38,2.37,2.14,3.46.95,1.36,1.85,2.64,2.39,4.13.16.43.29.87.41,1.31.26.87.52,1.78,1.01,2.6.92,1.5,2.46,2.38,3.9,3l.35,2.66c.26,1.89.52,3.84,1.26,5.66.26.66.6,1.32.92,1.96.97,1.93,1.88,3.74,1.26,5.52-.28.8-.86,1.46-1.46,2.16l-.42.48c-6.22,7.43-4.89,18.42-3.14,28.14l2.18,12.21c.75,4.17,1.52,8.48.86,12.72-.79,5.08-3.69,9.67-7.82,12.42l-1.16-11.42-.76,1.78c-.76,1.77-2.35,3.13-4.14,3.61l.55-32.78-2.89-1.79c-.88-1.1-.34-3,.63-4.25.36-.46.79-.91,1.2-1.34.82-.87,1.66-1.76,2.17-2.92.58-1.33.6-2.83.62-4.16l.26-15.43,3.14-1.58-.16-.42c-.75-1.96-1.97-3.75-3.49-5.14l.27-.22c-.62-.76-1.65-1.13-2.59-.91l.06.27-.5-.21c-3.44,8.27-4.58,17.24-5.62,27.26-.52,5.07-1.06,10.46-1.54,16.07l-1.65-.14v-8.85h-1l-1.02-.04c.13-2.95.28-5.91.47-8.85l.05-.87c.3-4.69.61-9.53-.16-14.24-.9-5.52-3.26-10.05-6.67-12.83-.02-.02-.04-.04-.07-.05-.09-.09-.19-.16-.29-.24h-.01s-.43-.31-.43-.31l-7.83,10.45-1.98-.38c.29-1.03.81-2,1.52-2.77l-.74-.67c-1.58,1.71-2.32,4.24-1.94,6.58.1.59.27,1.16.5,1.71l-2.67.69c-1.72-3.98-3.04-7.83-2.29-11.83h.02c.22,0,.44-.06.65-.17.81-.43,1.33-1.62,1.49-2.61.61-3.81,1.12-7.64,1.53-11.49l1.17.12.62.78c2.78-2.19,5.41-4.4,7.04-7.42,2.35-4.37,2.13-10.09-.54-14.24-.42-.66-.9-1.29-1.37-1.9-1.2-1.58-2.35-3.08-2.5-4.93l-1,.09-1.44-.05c.17-1.66.59-3.28,1.26-4.78.46-1.02,1.03-2.01,1.59-2.97.73-1.25,1.48-2.54,2-3.94,1.69-4.59.54-10.21-2.81-13.67-3.27-3.39-8.51-4.55-12.82-2.88-3.47.79-7.07-.06-10.76-1.09-4.96-1.39-9.94-2.95-14.81-4.66l-.48-.16c-3.98-1.4-8.09-2.85-12.32-2.35l.11.99s.06-.01.09-.01l.04.46c-1.51-.73-3.22-.52-4.77-.33-1.42.17-2.77.33-3.83-.2-5.37-4.92-10.48-10.24-15.42-15.38-5.55-5.78-10.8-11.24-16.42-16.23l.03-.56-4.72-.23c-.08,0-.13-.01-.14,0,0-.04,0-.11,0-.16v-.12c-.1-1.25-1.19-1.95-2.06-2.52l-.31-.2c-1.65-1.1-2.91-2.89-3.55-5.04-.58-1.94-.66-4.16-.23-6.44h-.03l1.42-2.2-2.13,2.07-.25-.05c-.02.11-.04.23-.06.34l-.05.05c.17-.93.41-1.86.71-2.75l-.09-.03,16.93-36.76,2.44-3.12-6.16,18.93-1.44,28.16h.21s-.35.41-.35.41l17.41,15.11c3.26,2.83,6.95,6.03,11.27,7.61,1.06.39,2.17.69,3.24.97,2.27.61,4.41,1.18,6.18,2.55.82.64,1.52,1.41,2.27,2.24.77.86,1.58,1.75,2.53,2.46,3.23,2.4,7.26,2.19,11.14,2,2.89-.15,5.87-.3,8.51.6,1.44.5,2.84,1.33,4.2,2.13,2.2,1.32,4.48,2.67,7.09,2.67h.1c2.86-.04,5.31-1.71,7.67-3.32.47-.32.93-.64,1.4-.95,4.15-2.7,8.93-4.4,13.8-4.9l-.1-.95c2.44-5.29,2.85-11.3,3.07-17.5.44-12.13.43-24.42-.02-36.56l-1,.04c0,.1.01.21.01.31l-1.25.04-1-.08c-.2,2.59-1.66,4.73-3.21,6.99-.76,1.11-1.54,2.25-2.16,3.45-1.34,2.57-2.09,5.66-2.38,9.71l-.06.86c-.16,2.59-.34,5.24-1.49,7.23.22-3.08-.07-6.18-.36-9.19-.31-3.28-.63-6.68-.26-9.98.63-5.76,2.56-13.59,8.12-18.21l.16-.15v-.22c.09-1.66.06-3.49.02-5.43-.07-4.11-.15-8.37.79-11.69,1.08-3.83,3.34-9.09,7.92-12.4,1.04-.74,3.7-2.37,6.05-1.33.72.32,1.34.86,1.92,1.39,8.18,7.45,12.43,18,11.06,27.24h-.32v.03l-.27.02.27,2.75v1.62h.15s0,.03.01.05l.04.37h.09c.88,2.53,2.25,4.89,3.99,6.88.2.23.41.46.62.69.73.8,1.43,1.56,1.88,2.49.61,1.24.73,2.66.81,4.26.39,7.14.28,14.36-.32,21.47-.49-.54-.63-1.69-.69-2.7-.3-4.88-2.76-9.22-5.13-12.82-.5-.76-1.01-1.51-1.52-2.27-1.79-2.63-3.64-5.35-4.91-8.31.08-.63.17-1.25.26-1.88l-.99-.14c-.06.38-.11.77-.16,1.15l-.47.18c.1.28.21.55.34.82-1.55,12.1-.91,24.44-.29,36.4.3,5.72.84,11.18,3.91,15.17l-.16.37.73.31h0s15.86,6.88,15.86,6.88c1.45.63,3.19,1.39,4.99,1.39.38,0,.75-.04,1.12-.11,1.37-.26,2.55-1.01,3.69-1.74.33-.21.66-.42.98-.62,4.79-2.85,10.61-3.14,16.21-3.03h.21c3.45.07,7.35.15,10.35-1.98,1.32-.94,2.34-2.23,3.32-3.47.83-1.05,1.69-2.14,2.7-2.97,1.67-1.36,3.79-2.07,5.83-2.76l.93-.31c11.4-3.91,21.67-11.47,29.06-21.35l.86.08.12-1.41s.05-.06.07-.09l-.06-.04.34-3.87v-.05l-1.9-16.35-6.76-25.26,9.59,13.82,11.25,29.94.03.1Zm-5.78,5.07l-.65-.77c-1.53,1.3-3.45,2.15-5.41,2.4l.13.99c2.14-.27,4.25-1.2,5.93-2.62Zm-37.72,33.12l-.66-.75c-1.36,1.19-2.98,2.08-4.7,2.57l.28.96c1.85-.52,3.61-1.49,5.08-2.78Zm-23.35,1.03l.28-.96c-3.74-1.06-7.42,1.26-10.37,3.12-3.02,1.9-6.51,3.66-9.58,2.32l-.4.91c.89.4,1.81.57,2.72.57,2.67,0,5.38-1.43,7.79-2.95,2.79-1.76,6.26-3.95,9.56-3.01Zm-28.4,9.45l.06-1c-3.15-.2-6.35-.53-9.48-.98l-.14.99c3.16.45,6.38.78,9.56.99Zm-6.77-59.72l.94-.34c-1.12-3.06-2.86-5.93-5.04-8.28l-.73.68c2.09,2.26,3.76,5,4.83,7.94Zm.48,193.14l-.95-6.88-.99.14.95,6.88.99-.14Zm-5.2-49.21c2.52-1.14,3.97-4.41,3.17-7.16l-.96.28c.67,2.29-.53,5.02-2.63,5.97l.42.91Zm-.32,35.52c1.68-1.6,2.17-4.4,1.16-6.52l-.91.44c.84,1.74.44,4.04-.94,5.36l.69.72Zm.33-49.64l.29-.96c-.47-.14-.75-.76-.99-1.42l-1.94-5.36-.96.29c.26,1,.05,2.2-.63,3.56-.24.48-.5.94-.77,1.41-.4.69-.81,1.4-1.13,2.18l.93.37c.29-.71.67-1.36,1.07-2.05.28-.48.55-.96.8-1.46.27-.55.47-1.07.61-1.58l1.08,2.98c.22.61.63,1.74,1.64,2.04Zm-.09-64.32l-.7-.72c-1.71,1.65-3.01,3.74-3.77,6.04l.95.31c.71-2.15,1.93-4.09,3.52-5.63Zm-1.02-95.53l.88-.48c-1.2-2.21-3.87-2.78-5.86-2.38-2.11.43-3.89,1.75-5.53,3.05-.91.73-1.23,1.58-.85,2.26l.87-.5c-.12-.22.21-.66.61-.97,1.54-1.24,3.2-2.47,5.1-2.86,1.69-.34,3.87.19,4.78,1.88Zm-2.51,232.77l1.85-4.44-.93-.38-1.84,4.44.92.38Zm.53-111.46l-.35-9.96-1,.04.35,9.95,1-.03Zm-3.17-125.55l.29-.96c-1.02-.31-2.2-.16-3.21.43-1.08.62-1.85,1.63-2.12,2.78l.98.22c.2-.87.8-1.65,1.64-2.13.78-.45,1.66-.58,2.42-.34Zm-3.09-5.81l.14-.99c-1.53-.23-2.92-1.54-3.3-3.12l-.97.23c.47,2,2.17,3.59,4.13,3.88Zm-.51,26.2l-.33-.94c-2.15.76-3.66,3.1-3.51,5.46.02.36,0,.78-.07,1.23-.26-.83-.68-1.69-1.26-2.54-.27-.41-.57-.8-.86-1.2-1.02-1.39-1.98-2.7-2.23-4.29l-.99.15c.29,1.83,1.37,3.3,2.42,4.73.28.39.56.77.83,1.17.48.71,1.84,2.96,1.28,4.89-.11.28-.23.54-.35.78l.88.49c.17-.28.3-.58.4-.89.57-1.42,1.03-3.26.95-4.58-.12-1.93,1.1-3.84,2.84-4.46Zm-.32,89.01c.16-1.35-.06-2.69-.3-3.82-.5-2.36-1.26-4.66-2.28-6.83l-.12-.26-.28-.03c-2.41-.23-4.42,1.87-5.06,3.98-.71,2.3-.23,4.75.26,6.63l.03.12c1.16,4.46,2.21,6.51,3.41,6.65.06.01.12.01.18.01,2.28,0,3.99-5.13,4.16-6.45Zm-4.19,56.2c2.1-2.29,4.31-5.01,3.95-8.22-.16-1.48-1.09-4.2-2.55-5.31-.57-.43-1.17-.6-1.79-.5-2.13.35-3.89,4.82-3.89,7.03,0,.16.01.3.03.43.15,1.11.73,2.06,1.25,2.9l2.55,4.16.45-.49Zm3.72-32.69c.53-3.22-.54-6.29-3.09-8.89l-.22-.23-.31.12c-2.11.8-3.2,3.04-3.52,4.87-.34,2.04.01,4.14.31,6l1.66,10.06,1.26-2.44c1.53-2.91,3.42-6.54,3.91-9.49Zm-.27-51.52c.12-1.8-.26-3.72-1.18-5.87-.66-1.54-1.6-2.32-2.64-2.2-1.15.14-1.74,1.3-2.12,2.29-.79,2.04-1.49,4.05-1.37,6.15.11,2.05,1.28,4.53,3.56,5.15l.26-.96h.19s.59.79.59.79c1.54-1.12,2.55-3.12,2.71-5.35Zm-1.72,98.17c1.25-2.64,1.48-5.75.61-8.55l-.96.29c.8,2.57.6,5.42-.55,7.83l.9.43Zm-1.44-116.62l.72-5.53-.99-.13-.72,5.53.99.13Zm.39-15.18v-2.95h-1v2.95h1Zm-.35-11.07v-4.05h-1v4.05h1Zm-3.11-43.58c.49-1.09.41-2.29-.2-3.14l-.81.59c.4.56.44,1.38.1,2.14-.32.71-.87,1.18-1.49,1.24l.11,1c.97-.11,1.83-.79,2.29-1.83Zm-1.96,12.5l.79-.61c-.36-.45-.74-.89-1.14-1.31.2-.87.06-1.86-.41-2.7-.52-.95-1.36-1.59-2.3-1.77l-.19.98c.65.12,1.23.59,1.61,1.27.23.41.36.86.37,1.3-.31-.3-.64-.58-.97-.85-.62-.49-1.36-1.02-2.23-1.16-1.04-.17-2.06.3-2.48,1.15-.28.58-.25,1.21-.23,1.78s.04,1.06-.21,1.37l.78.62c.49-.6.46-1.36.43-2.03-.02-.49-.04-.95.13-1.3.25-.51.9-.69,1.41-.6.65.1,1.23.52,1.77.95,1.06.85,2.02,1.83,2.87,2.91Zm-3.24,158.41l.88-.47c-1.31-2.44-2.1-5.2-2.3-7.99l-.27-3.68-.72,3.62c-.32,1.61-1.1,3.14-2.2,4.32l.73.68c.71-.76,1.3-1.66,1.74-2.63.39,2.15,1.12,4.25,2.14,6.15Zm-.61-77.43l-.06-1c-3.03.19-6.08.01-9.07-.53l-.17.98c2.27.42,4.59.62,6.9.62.8,0,1.6-.02,2.4-.07Zm-2.13,17.4l.87-.48c-1.17-2.12-2.68-3.98-4.51-5.52l-.64.77c1.73,1.45,3.17,3.21,4.28,5.23Zm.12,19.34l-.4-7.74-1,.05.4,7.74,1-.05Zm-3.35-103.07l-.88-.49c-.93,1.68-1.6,3.5-1.99,5.4l.98.2c.37-1.8,1-3.52,1.89-5.11Zm-4.56,74.08l.06-1-12.67-.81-.06,1,12.67.81Zm-17.71-4.44l.28-.96-16.56-4.75-.28.96,16.56,4.75Zm-36.11-3.14l.76-.65c-1.43-1.68-3.2-3.11-5.13-4.12l-.46.89c1.81.95,3.48,2.29,4.83,3.88Z"/>
    <path class="cls-4" d="m350.05,79.63c.07,8.87-.09,17.78-.48,26.68-.65,15.01-1.96,30.02-3.9,44.85-.76,5.73-1.6,11.32-3.54,16.65-1.76,4.86-4.42,9.34-6.98,13.68-2.43,4.1-4.94,8.34-6.67,12.86l-.94-.36c1.76-4.59,4.3-8.87,6.75-13.01,2.54-4.3,5.17-8.74,6.91-13.51,1.9-5.23,2.73-10.76,3.47-16.44,1.56-11.85,2.7-23.81,3.43-35.8.73-11.86,1.04-23.75.95-35.59h1Z"/>
    <path class="cls-4" d="m347.02,74.99c-.08.06-.17.12-.26.18-.59.38-1.2.71-1.81,1.03-.24.01-.47.02-.7.02-.46,0-.89-.03-1.26-.09v-.06c.32-.17.63-.33.95-.49.24-.12.49-.25.74-.38.73-.02,1.55-.1,2.34-.21Z"/>
    <path class="cls-4" d="m344.82,84.09c1.26,10.33,1.56,20.71.9,31-1.21,19.1-5.7,37.9-13.33,55.5-.51,1.16-1.02,2.32-1.54,3.48-3.08,6.91-6.27,14.05-6.46,21.63l-1-.03c.19-7.78,3.42-15.01,6.55-22,.51-1.16,1.03-2.32,1.53-3.47,11.51-26.54,15.9-57.08,12.36-85.99l.99-.12Z"/>
    <path class="cls-4" d="m344.95,76.2c-.19.09-.38.19-.56.28-.49.24-.98.49-1.45.75-1.34.75-2.6,1.66-3.73,2.71l-.1-.11,1.01-.78-.56-.73c.91-.74,1.88-1.4,2.89-1.96.18-.1.36-.2.55-.29v.06c.36.06.79.09,1.25.09.23,0,.46-.01.7-.02Z"/>
    <path class="cls-4" d="m344.22,68.48l.65.77c-1.68,1.42-3.79,2.35-5.93,2.62l-.13-.99c1.96-.25,3.88-1.1,5.41-2.4Z"/>
    <path class="cls-4" d="m344.68,75.2c-.25.13-.5.26-.74.38-.32.16-.63.32-.94.49l.16-.92c.41.07.94.08,1.52.05Z"/>
    <path class="cls-3" d="m343.83,84.21c3.54,28.91-.85,59.45-12.36,85.99-.5,1.15-1.02,2.31-1.53,3.47-3.13,6.99-6.36,14.22-6.55,22l-1.79.36c-.58-2.93-1.39-5.81-2.41-8.6l-.94.34-1.43.25-.92-5.21-.02-.1-16.48-27.12-22.86-15.52-25.64,6.02,13.63-12.94,28.23-14.29.61-1.01.09.12c2.41-1.84,4.47-4.24,5.95-6.94l-.87-.48c-1,1.82-2.27,3.49-3.74,4.93l3.54-5.89,12.14-1.95,13.28-12.92,9.32-10.26,6.03-4.63.1.11,1.31,2.42c-2.82,2.08-5.51,4.38-7.99,6.87l.7.71c2.46-2.45,5.1-4.73,7.89-6.78l2.71,1.05Zm-4.73,19.23l.75-.65c-3.55-4.14-9.58-5.85-14.65-4.15l.31.95c4.7-1.57,10.28,0,13.59,3.85Zm-2.23,7.54l.86-.5c-1.49-2.57-3.32-5.41-6.18-6.64-2.15-.93-4.48-.77-6.73-.61-1.45.1-2.96.2-4.37.01-.37-.06-.93-.25-.93-.55h-1c.01.8.69,1.38,1.79,1.54,1.52.21,3.07.1,4.57,0,2.24-.16,4.34-.3,6.28.53,2.58,1.11,4.3,3.79,5.71,6.22Zm-15.87,77.49l.95-.31c-.93-2.82-2.17-5.52-3.7-8.03l-.85.52c1.48,2.44,2.69,5.08,3.6,7.82Zm-3.51-70.34l-.32-.95c-9.63,3.17-18.86,8.38-26.69,15.05l.65.76c7.73-6.59,16.85-11.73,26.36-14.86Zm-4.3-8.48l-.8-.59c-1.24,1.69-2.86,3.11-4.66,4.09l.48.88c1.93-1.05,3.66-2.57,4.98-4.38Z"/>
    <path class="cls-4" d="m341.74,81.48l.58.81c-.4.28-.8.57-1.2.87-2.79,2.05-5.43,4.33-7.89,6.78l-.7-.71c2.48-2.49,5.17-4.79,7.99-6.87.41-.3.81-.59,1.22-.88Z"/>
    <path class="cls-4" d="m339.56,78.32l.56.73-1.01.78-.58-.62c.33-.31.68-.61,1.03-.89Z"/>
    <path class="cls-4" d="m339.85,102.79l-.75.65c-3.31-3.84-8.89-5.42-13.59-3.85l-.31-.95c5.07-1.7,11.1,0,14.65,4.15Z"/>
    <path class="cls-4" d="m339.51,78.26l.05.06c-.35.28-.7.58-1.03.89l.58.62-6.03,4.63-9.32,10.26-13.28,12.92-12.14,1.95-3.54,5.89c-.62.6-1.27,1.17-1.95,1.69l-.17-.11,5.05-8.38,1.83-.3h.02c.35.04.71.1,1.07.18l.08-.36,9.28-1.5,13.03-12.67,9.36-10.31,7.11-5.46Z"/>
    <path class="cls-4" d="m338.16,65.89s-.04.06-.07.09v-.13s.07.04.07.04Z"/>
    <path class="cls-4" d="m338.1,65.85v.13c-.32.45-.64.89-.99,1.33h-.14s.15-1.7.15-1.7c.08-.1.15-.2.22-.3l.76.54Z"/>
    <path class="cls-4" d="m338.09,65.98l-.12,1.41-.86-.08c.35-.44.67-.88.98-1.33Z"/>
    <path class="cls-4" d="m337.73,110.48l-.86.5c-1.41-2.43-3.13-5.11-5.71-6.22-1.94-.83-4.04-.69-6.28-.53-1.5.1-3.05.21-4.57,0-1.1-.16-1.78-.74-1.79-1.53h1c0,.29.56.48.93.54,1.41.19,2.92.09,4.37-.01,2.25-.16,4.58-.32,6.73.61,2.86,1.23,4.69,4.07,6.18,6.64Z"/>
    <path class="cls-4" d="m337.12,65.61l-.15,1.69h.14c-7.39,9.89-17.66,17.45-29.06,21.36l-.93.31c-2.04.69-4.16,1.4-5.83,2.76-1.01.83-1.87,1.92-2.7,2.97-.98,1.24-2,2.53-3.32,3.47-3,2.13-6.9,2.05-10.35,1.99h-.21c-5.6-.12-11.42.17-16.21,3.02-.32.2-.65.41-.98.62-1.14.73-2.32,1.48-3.69,1.74-.37.07-.74.11-1.12.11-1.8,0-3.54-.76-4.99-1.39l-15.86-6.87.75-.67c-.05-.05-.09-.1-.13-.16l15.64,6.79c1.62.7,3.63,1.57,5.53,1.21,1.18-.23,2.22-.9,3.33-1.61.34-.21.67-.43,1.01-.63,5.01-2.98,11.01-3.28,16.74-3.17h.21c3.45.08,7.02.15,9.75-1.8,1.2-.85,2.13-2.03,3.12-3.27.86-1.09,1.75-2.22,2.85-3.12,1.81-1.48,4.01-2.22,6.15-2.93l.92-.31c11.63-4,22.05-11.84,29.39-22.11Z"/>
    <path class="cls-4" d="m322.2,199.66l-.99.13c-.55-4.11-1.54-8.15-2.96-12.02l.94-.34c1.02,2.79,1.83,5.67,2.41,8.6.24,1.2.44,2.41.6,3.63Z"/>
    <path class="cls-4" d="m321.95,188.16l-.95.31c-.91-2.74-2.12-5.38-3.6-7.82l.85-.52c1.53,2.51,2.77,5.21,3.7,8.03Z"/>
    <path class="cls-4" d="m317.17,117.18l.32.95c-9.51,3.13-18.63,8.27-26.36,14.86l-.65-.76c7.83-6.67,17.06-11.88,26.69-15.05Z"/>
    <path class="cls-4" d="m312.39,109.06l.8.59c-1.32,1.81-3.05,3.33-4.98,4.38l-.48-.88c1.8-.98,3.42-2.4,4.66-4.09Z"/>
    <path class="cls-4" d="m306.49,101.62l.66.75c-1.47,1.29-3.23,2.26-5.08,2.78l-.28-.96c1.72-.49,3.34-1.38,4.7-2.57Z"/>
    <path class="cls-4" d="m300.87,107.58l-.14.62-1.15.18h-.02c-3.89-.41-7.58,1.5-11.48,3.5-1.71.88-3.47,1.79-5.23,2.47-4.99,1.94-10.32,2.14-14.87,2.1l-1.11-.02c-2.54-.04-5.16-.08-7.63.51-.66.16-1.29.35-1.92.59-3.31,1.24-6.21,3.52-8.77,6.01-.47.3-.92.64-1.32,1.06-.37.38-.68.8-.92,1.25t-.01.01c-.82.87-1.59,1.74-2.33,2.58-.58,1.9.33,4.1,2.8,6.7.63,1.16,1.56,2.31,2.69,2.98,1.08,1.45,1.82,2.99,1.75,4.64l-.74-.38c-.1.19-.19.39-.28.59.23-2.37-1.63-4.61-3.7-6.68-3.12-3.13-4.25-5.83-3.44-8.26l.1-.18c4.07-4.58,9.14-10.29,15.86-11.89,2.59-.61,5.28-.57,7.88-.53l1.1.02c4.45.04,9.67-.16,14.49-2.03,1.72-.67,3.46-1.56,5.14-2.43,4.23-2.18,8.6-4.43,13.25-3.41Z"/>
    <path class="cls-4" d="m300.73,108.2l-.08.36c-.36-.08-.72-.14-1.07-.18l1.15-.18Z"/>
    <path class="cls-3" d="m299.56,108.38l-1.83.3-5.05,8.38h-.01l-.62,1.04-28.04,14.19-13.63,12.92c.17-.54.37-1.06.6-1.58l.12.03c.03-.14.06-.29.07-.43.06-.13.12-.26.19-.39l-.15-.08c.07-1.65-.67-3.19-1.75-4.64.63.37,1.32.6,2.06.6.19,0,.39-.02.59-.05,1.61-.26,2.8-1.54,3.74-2.76,2.46-3.18,4.34-6.76,5.58-10.65.42-1.3.81-2.84.58-4.35-.23-1.45-1.19-3.07-2.82-3.43-.66-.15-1.27-.07-1.84.14l-.03-.09c.63-.24,1.26-.43,1.92-.59,2.47-.59,5.09-.55,7.63-.51l1.11.02c4.55.04,9.88-.16,14.87-2.1,1.76-.68,3.52-1.59,5.23-2.47,3.9-2,7.59-3.91,11.48-3.5Zm-10.09,6.16l-.98-.17c-.18,1-1.14,1.68-2.11,2.29l-14.79,9.33.54.85,14.79-9.34c1.11-.69,2.31-1.56,2.55-2.96Zm-11.09,4.46l-.69-.73c-3.6,3.36-8.6,4.89-13.36,4.09l-.17.99c.89.15,1.78.22,2.67.22,4.21,0,8.38-1.62,11.55-4.57Zm-12.79,5.47l-.98-.21c-.74,3.4-2.01,6.64-3.74,9.63l.86.5c1.79-3.07,3.09-6.41,3.86-9.92Z"/>
    <path class="cls-4" d="m298.54,110.55l.87.48c-1.48,2.7-3.54,5.1-5.95,6.94l-.09-.12,1.43-2.37c1.47-1.44,2.74-3.11,3.74-4.93Z"/>
    <path class="cls-4" d="m294.8,115.48l-1.43,2.37-.52-.68c.68-.52,1.33-1.09,1.95-1.69Z"/>
    <path class="cls-4" d="m288.49,114.37l.98.17c-.24,1.4-1.44,2.27-2.55,2.96l-14.79,9.34-.54-.85,14.79-9.33c.97-.61,1.93-1.29,2.11-2.29Z"/>
    <path class="cls-4" d="m284.08,102.44l-.28.96c-3.3-.94-6.77,1.25-9.56,3.01-2.41,1.52-5.12,2.95-7.79,2.95-.91,0-1.83-.17-2.72-.57l.4-.91c3.07,1.34,6.56-.42,9.58-2.32,2.95-1.86,6.63-4.18,10.37-3.12Z"/>
    <path class="cls-4" d="m277.69,118.27l.69.73c-3.17,2.95-7.34,4.57-11.55,4.57-.89,0-1.78-.07-2.67-.22l.17-.99c4.76.8,9.76-.73,13.36-4.09Z"/>
    <path class="cls-4" d="m264.61,124.26l.98.21c-.77,3.51-2.07,6.85-3.86,9.92l-.86-.5c1.73-2.99,3-6.23,3.74-9.63Z"/>
    <path class="cls-4" d="m262.01,120.91c.23,1.51-.16,3.05-.58,4.35-1.24,3.89-3.12,7.47-5.58,10.65-.94,1.22-2.13,2.5-3.74,2.76-.2.03-.4.05-.59.05-.74,0-1.43-.23-2.06-.6-.66-.88-1.44-1.72-2.26-2.54-.15-.15-.29-.3-.43-.44-.09-.17-.17-.33-.25-.49-1.26-2.65-1.7-6.18-.22-8.79t.01-.01c.71-.78,1.46-1.55,2.24-2.31.67-.41,1.38-.73,2.1-1.03v-.26c.36.02.68-.04,1-.16.1-.04.19-.07.28-.11.86-.41,1.65-1.22,2.48-2.05.92-.94,1.85-1.89,2.94-2.31.57-.21,1.18-.29,1.84-.14,1.63.36,2.59,1.98,2.82,3.43Zm-1.53,4.04c.4-1.25.74-2.58.54-3.89-.14-.89-.65-1.92-1.49-2.39l-.06.27c-1.25-.26-2.38.7-3.56,1.7-.43.36-.86.73-1.31,1.05-.7.49-1.46.86-2.23,1.19-.13.06-.26.11-.39.16-.14.06-.28.11-.42.17-1.36.56-2.65,1.08-3.61,2.08-2.2,2.28-1.81,6.23-.53,8.94.85,1.79,2.55,3.77,4.53,3.45,1.27-.2,2.29-1.32,3.11-2.38,2.39-3.09,4.22-6.57,5.42-10.35Z"/>
    <path class="cls-4" d="m254.47,189.1c1.02,2.02,2.07,4.11,1.3,6.29-.34.99-1.01,1.75-1.65,2.48-.13.16-.27.31-.4.47-5.95,7.1-4.63,17.83-2.93,27.32l2.19,12.22c.76,4.25,1.55,8.64.86,13.04-.88,5.64-4.23,10.71-8.97,13.56l-.68.4-.96-9.54c-1.13,1.55-2.85,2.65-4.69,2.93l-.59.09.56-33.43-2.6-1.63c-.61-.71-.8-1.62-.71-2.56.11-1.06.6-2.15,1.27-3.01.4-.51.84-.97,1.26-1.42.8-.84,1.55-1.63,1.98-2.62.5-1.16.52-2.55.54-3.78l.27-16.05,2.86-1.43c-.89-2.12-2.36-3.97-4.18-5.27.49-.01.97.21,1.29.6l.51-.41c1.52,1.39,2.74,3.18,3.49,5.14l.16.42-3.14,1.58-.26,15.43c-.02,1.33-.04,2.83-.62,4.16-.51,1.16-1.35,2.05-2.17,2.92-.41.43-.84.88-1.2,1.34-.97,1.25-1.51,3.15-.63,4.25l2.89,1.79-.55,32.78c1.79-.48,3.38-1.84,4.14-3.61l.76-1.78,1.16,11.42c4.13-2.75,7.03-7.34,7.82-12.42.66-4.24-.11-8.55-.86-12.72l-2.18-12.21c-1.75-9.72-3.08-20.71,3.14-28.14l.42-.48c.6-.7,1.18-1.36,1.46-2.16.62-1.78-.29-3.59-1.26-5.52-.32-.64-.66-1.3-.92-1.96-.74-1.82-1-3.77-1.26-5.66l-.35-2.66c.37.16.73.31,1.07.44l.28,2.09c.24,1.82.49,3.71,1.18,5.41.26.62.58,1.27.9,1.9Z"/>
    <path class="cls-4" d="m255.46,111.85l-.06,1c-3.18-.21-6.4-.54-9.56-.99l.14-.99c3.13.45,6.33.78,9.48.98Z"/>
    <path class="cls-4" d="m252.81,178.89l-.36.94c-.11-.04-.22-.09-.34-.13l-.15-1.14c.28.11.56.22.85.33Z"/>
    <path class="cls-4" d="m252.26,49.57c.4,7.44.27,14.96-.39,22.37l-.05.54-.54-.1c-1.81-.31-1.96-2.75-2.03-3.92-.28-4.65-2.67-8.84-4.96-12.33-.5-.75-1.01-1.5-1.52-2.25-1.52-2.23-3.07-4.52-4.31-6.99.07-.63.15-1.26.23-1.89,1.27,2.96,3.12,5.68,4.91,8.31.51.76,1.02,1.51,1.52,2.27,2.37,3.6,4.83,7.94,5.13,12.82.06,1.01.2,2.16.69,2.7.6-7.11.71-14.33.32-21.47-.08-1.6-.2-3.02-.81-4.26-.45-.93-1.15-1.69-1.88-2.49-.21-.23-.42-.46-.62-.69-1.74-1.99-3.11-4.35-3.99-6.89l.9-.09-.05-.49c.84,2.5,2.19,4.85,3.89,6.81.2.23.4.45.61.67.75.82,1.52,1.68,2.04,2.73.69,1.41.82,3,.91,4.64Z"/>
    <path class="cls-4" d="m251.96,178.56l.15,1.14c-.34-.13-.7-.28-1.07-.44l-.16-1.18c.34.17.71.33,1.08.48Z"/>
    <path class="cls-4" d="m250.73,169.3l1.23,9.26c-.37-.15-.74-.31-1.08-.48l-1.23-9.27c.29.25.6.49.91.72l.17-.23Z"/>
    <path class="cls-4" d="m251.36,142.84c-.07.13-.13.26-.19.39.03-.16.04-.32.04-.47l.15.08Z"/>
    <path class="cls-4" d="m250.47,142.38l.74.38c0,.15-.01.31-.04.47-.07.13-.13.27-.19.4l-.86-.18c.03-.16.06-.32.07-.48.09-.2.18-.4.28-.59Z"/>
    <path class="cls-4" d="m250.98,143.63c.06-.13.12-.27.19-.4,0,.14-.04.29-.07.43l-.12-.03Z"/>
    <path class="cls-4" d="m251.15,168.73l-.42.57-.14-1.01c.18.16.37.3.56.44Z"/>
    <path class="cls-4" d="m250.88,178.08l.16,1.18c-1.44-.62-2.98-1.5-3.9-3-.49-.82-.75-1.73-1.01-2.6-.12-.44-.25-.88-.41-1.31-.54-1.49-1.44-2.77-2.39-4.13-.76-1.09-1.55-2.22-2.14-3.46-1.86-3.91-1.38-8.84.99-12.41.17.34.35.68.53,1.02-1.92,3.23-2.24,7.52-.62,10.96.55,1.17,1.32,2.26,2.06,3.31.94,1.35,1.92,2.75,2.51,4.36.17.45.3.92.44,1.38.24.85.47,1.66.9,2.36.65,1.06,1.66,1.77,2.88,2.34Z"/>
    <path class="cls-4" d="m250.12,143.45l.86.18c-.23.52-.43,1.04-.6,1.58l-1.29,1.22-.1-.02c.28-1.19.68-2.35,1.2-3.44-.01.16-.04.32-.07.48Z"/>
    <path class="cls-4" d="m250.59,168.29l.14,1.01-.17.23c-.31-.23-.62-.47-.91-.72l-.2-1.5c.37.35.75.68,1.14.98Z"/>
    <path class="cls-4" d="m247.87,147.83l2.72,20.46c-.39-.3-.77-.63-1.14-.98l-.91-6.82.58-.64c-.26-.23-.51-.47-.75-.71l-1.66-12.47.99-.13.14,1.07-.31.3.34-.08Z"/>
    <path class="cls-4" d="m249.09,146.43l1.29-1.22c-.17.47-.3.95-.42,1.43l-.87-.21Z"/>
    <path class="cls-4" d="m249.45,167.31l.2,1.5c-2.56-2.11-4.6-4.85-5.94-7.97l.91-.39c1.14,2.62,2.78,4.96,4.83,6.86Z"/>
    <path class="cls-4" d="m249.57,52.79l-.94.34c-1.07-2.94-2.74-5.68-4.83-7.94l.73-.68c2.18,2.35,3.92,5.22,5.04,8.28Z"/>
    <path class="cls-4" d="m249.12,159.85l-.58.64-.17-1.35c.24.24.49.48.75.71Z"/>
    <polygon class="cls-4" points="248.16 239.39 249.11 246.27 248.12 246.41 247.17 239.53 248.16 239.39"/>
    <path class="cls-4" d="m249.46,138.12c-1.13-.67-2.06-1.82-2.69-2.98.14.14.28.29.43.44.82.82,1.6,1.66,2.26,2.54Z"/>
    <path class="cls-4" d="m248.37,159.14l.17,1.35-.09.1c-2.28-2.06-4.22-4.51-5.74-7.22.2-.33.41-.65.63-.95,1.33,2.49,3.02,4.77,5.03,6.72Z"/>
    <polygon class="cls-4" points="247.84 147.61 247.87 147.83 247.53 147.91 247.84 147.61"/>
    <path class="cls-4" d="m247.23,124.6c.4-.42.85-.76,1.32-1.06-.78.76-1.53,1.53-2.24,2.31.24-.45.55-.87.92-1.25Z"/>
    <path class="cls-4" d="m247.08,189.9c.8,2.75-.65,6.02-3.17,7.16l-.42-.91c2.1-.95,3.3-3.68,2.63-5.97l.96-.28Z"/>
    <path class="cls-4" d="m244.75,226.06c1.01,2.12.52,4.92-1.16,6.52l-.69-.72c1.38-1.32,1.78-3.62.94-5.36l.91-.44Z"/>
    <path class="cls-4" d="m233.61,2.49c8.82,8.03,13.19,19.61,11.12,29.49h-.06v-1.51h-.27v-.04l-.41.04c1.37-9.24-2.88-19.79-11.06-27.24-.58-.53-1.2-1.07-1.92-1.39-2.35-1.04-5.01.59-6.05,1.33-4.58,3.31-6.84,8.57-7.92,12.4-.94,3.32-.86,7.58-.79,11.69.04,1.94.07,3.77,0,5.43v.22s-.17.15-.17.15c-5.56,4.62-7.49,12.45-8.12,18.21-.37,3.3-.05,6.7.26,9.98.29,3.01.58,6.11.36,9.19,1.15-1.99,1.33-4.64,1.49-7.23l.06-.86c.29-4.05,1.04-7.14,2.38-9.71.62-1.2,1.4-2.34,2.16-3.45,1.55-2.26,3.01-4.4,3.21-6.99l1,.08c-.23,2.85-1.83,5.2-3.39,7.48-.73,1.08-1.5,2.19-2.09,3.34-1.27,2.45-1.99,5.41-2.27,9.32l-.06.86c-.21,3.24-.45,6.91-2.83,9.2l-1.05,1.01.21-1.44c.5-3.53.16-7.18-.17-10.71-.32-3.33-.64-6.78-.27-10.18.65-5.88,2.62-13.87,8.3-18.73.07-1.58.04-3.31,0-5.15-.07-4.19-.15-8.52.83-11.98,1.12-3.98,3.48-9.46,8.3-12.94,2.49-1.79,5.06-2.32,7.04-1.44.85.38,1.55.98,2.19,1.57Z"/>
    <path class="cls-4" d="m244.81,34.72l.05.49-.9.09c-.05-.12-.09-.24-.13-.36v-.05h.84v-.56h.01c.04.13.08.26.13.39Z"/>
    <path class="cls-4" d="m244.81,34.72c-.05-.13-.09-.26-.13-.39h-.01v-1.09l.14,1.48Z"/>
    <polygon class="cls-4" points="244.67 34.33 244.67 34.89 243.83 34.89 243.8 34.61 244.67 34.33"/>
    <path class="cls-4" d="m244.67,33.24v1.09l-.87.28-.13-1.34v-2.77l.29-.03h.03c-.07.43-.15.87-.24,1.3l.8.17.12,1.3Z"/>
    <polygon class="cls-4" points="244.67 31.97 244.67 33.24 244.55 31.94 244.67 31.97"/>
    <polygon class="cls-4" points="244.67 30.47 244.67 31.97 244.55 31.94 244.4 30.47 244.67 30.47"/>
    <path class="cls-4" d="m243.87,150.34l.68.74c-.44.41-.84.86-1.21,1.34-.17-.32-.34-.65-.49-.98.31-.39.65-.76,1.02-1.1Z"/>
    <path class="cls-4" d="m244.55,31.94l-.8-.17c.09-.43.17-.87.24-1.3h.41l.15,1.47Z"/>
    <polygon class="cls-4" points="244.4 30.43 244.4 30.47 243.99 30.47 244.4 30.43"/>
    <path class="cls-4" d="m244.21,181.98l-.29.96c-1.01-.3-1.42-1.43-1.64-2.04l-1.08-2.98c-.14.51-.34,1.03-.61,1.58-.25.5-.52.98-.8,1.46-.4.69-.78,1.34-1.07,2.05l-.93-.37c.32-.78.73-1.49,1.13-2.18.27-.47.53-.93.77-1.41.68-1.36.89-2.56.63-3.56l.96-.29,1.94,5.36c.24.66.52,1.28.99,1.42Z"/>
    <polygon class="cls-4" points="243.96 30.47 243.67 30.5 243.67 30.47 243.96 30.47"/>
    <path class="cls-4" d="m243.96,35.3h-.09s-.04-.36-.04-.36c.04.12.08.24.13.36Z"/>
    <path class="cls-4" d="m243.83,34.94s-.01-.03-.01-.05h.01v.05Z"/>
    <path class="cls-4" d="m243.13,117.9l.7.72c-1.59,1.54-2.81,3.48-3.52,5.63l-.95-.31c.76-2.3,2.06-4.39,3.77-6.04Z"/>
    <path class="cls-4" d="m243.8,34.61l.03.28h-.01c-.04-.09-.06-.17-.09-.26l.07-.02Z"/>
    <path class="cls-4" d="m243.73,34.63c.03.09.05.17.09.26h-.15v-1.62l.13,1.34-.07.02Z"/>
    <path class="cls-4" d="m243.69,22.61l-.88.48c-.91-1.69-3.09-2.22-4.78-1.88-1.9.39-3.56,1.62-5.1,2.86-.4.31-.73.75-.61.97l-.87.5c-.38-.68-.06-1.53.85-2.26,1.64-1.3,3.42-2.62,5.53-3.05,1.99-.4,4.66.17,5.86,2.38Z"/>
    <polygon class="cls-4" points="243.67 30.5 243.67 33.27 243.4 30.52 243.67 30.5"/>
    <path class="cls-4" d="m242.85,151.44c.15.33.32.66.49.98-.22.3-.43.62-.63.95-.18-.34-.36-.68-.53-1.02.2-.31.42-.62.67-.91Z"/>
    <path class="cls-4" d="m242.48,96.56c.04.06.08.11.13.16l-.75.67h0c-.2-.23-.39-.46-.57-.69l.24-.55.95.41Z"/>
    <path class="cls-4" d="m242.48,96.56l-.95-.41-.24.55c-3.07-3.99-3.61-9.45-3.91-15.17-.62-11.96-1.26-24.3.29-36.4.24.6.51,1.18.79,1.76-1.29,11.5-.67,23.22-.08,34.59.31,5.79.84,11.3,4.1,15.08Z"/>
    <path class="cls-4" d="m242.85,151.44c-.25.29-.47.6-.67.91-.49-.96-.92-1.95-1.3-2.96l.94-.35c.3.82.64,1.62,1.03,2.4Z"/>
    <polygon class="cls-4" points="242.15 251.42 240.3 255.86 239.38 255.48 241.22 251.04 242.15 251.42"/>
    <path class="cls-4" d="m241.86,97.38l-.73-.31.16-.37c.18.23.37.46.57.68Z"/>
    <path class="cls-4" d="m241.27,187.13l-.27.22c-.4-.39-.83-.73-1.28-1.05l-.58.82s.04.03.06.04c-.08,0-.17.02-.25.03.07-.18.14-.35.21-.53l-.42-.17-.06-.27c.94-.22,1.97.15,2.59.91Z"/>
    <path class="cls-4" d="m241,187.35l-.51.41c-.32-.39-.8-.61-1.29-.6-.02-.01-.04-.03-.06-.04l.58-.82c.45.32.88.66,1.28,1.05Z"/>
    <polygon class="cls-4" points="240.48 134.44 240.83 144.4 239.83 144.43 239.48 134.48 240.48 134.44"/>
    <path class="cls-4" d="m239.16,186.66c-.07.18-.14.35-.21.53-.01.01-.03.01-.04.01l-.17-.71.42.17Z"/>
    <path class="cls-4" d="m238.95,43.12c-.09.63-.18,1.25-.26,1.88-.15-.34-.29-.69-.42-1.04l-.47.17c.05-.38.1-.77.16-1.15l.99.14Z"/>
    <path class="cls-4" d="m238.91,187.2s.03,0,.04-.01c-3.23,8-4.33,16.72-5.33,26.45-.23,2.23-.46,4.53-.69,6.88-1.31,13.32-2.51,28.34-2.71,43.55-.02,1.61-.05,3.61.67,5.26.25.57.58,1.09.94,1.64.47.75.96,1.53,1.24,2.42.38,1.26.3,2.6.18,3.76-.38,3.97-1.22,7.88-2.5,11.64l-.25.74-.36-.34.24-.03c-.07-.52-.21-1.03-.4-1.52l.07.07c.66-2.03,1.19-4.11,1.58-6.22l.71-.19-.42-1.54c.14-.9.25-1.8.34-2.71.11-1.11.18-2.29-.15-3.36-.24-.77-.67-1.46-1.13-2.18-.36-.56-.72-1.14-1-1.78-.68-1.54-.77-3.28-.77-4.79,0-.31.01-.6.01-.88.17-11.84.92-23.56,1.86-34.45.48-5.61,1.02-11,1.54-16.07,1.04-10.02,2.18-18.99,5.62-27.26l.5.21.17.71Z"/>
    <path class="cls-4" d="m238.27,43.96c.13.35.27.7.42,1.04-.08.63-.16,1.26-.23,1.89-.28-.58-.55-1.16-.79-1.76.03-.33.08-.66.13-1l.47-.17Z"/>
    <path class="cls-4" d="m237.95,17.89l-.29.96c-.76-.24-1.64-.11-2.42.34-.84.48-1.44,1.26-1.64,2.13l-.98-.22c.27-1.15,1.04-2.16,2.12-2.78,1.01-.59,2.19-.74,3.21-.43Z"/>
    <path class="cls-4" d="m237.33,44.31l.47-.18c-.05.34-.1.67-.13,1-.13-.27-.24-.54-.34-.82Z"/>
    <path class="cls-4" d="m234.71,12.05l-.14.99c-1.96-.29-3.66-1.88-4.13-3.88l.97-.23c.38,1.58,1.77,2.89,3.3,3.12Z"/>
    <path class="cls-4" d="m233.73,38.3l.33.94c-1.74.62-2.96,2.53-2.84,4.46.08,1.32-.38,3.16-.95,4.58-.1.31-.23.61-.4.89l-.88-.49c.12-.24.24-.5.35-.78.56-1.93-.8-4.18-1.28-4.89-.27-.4-.55-.78-.83-1.17-1.05-1.43-2.13-2.9-2.42-4.73l.99-.15c.25,1.59,1.21,2.9,2.23,4.29.29.4.59.79.86,1.2.58.85,1,1.71,1.26,2.54.07-.45.09-.87.07-1.23-.15-2.36,1.36-4.7,3.51-5.46Z"/>
    <path class="cls-4" d="m233.44,124.43c.24,1.13.46,2.47.3,3.82-.17,1.32-1.88,6.45-4.16,6.45-.06,0-.12,0-.18-.01-1.2-.14-2.25-2.19-3.41-6.65l-.03-.12c-.49-1.88-.97-4.33-.26-6.63.64-2.11,2.65-4.21,5.06-3.98l.28.03.12.26c1.02,2.17,1.78,4.47,2.28,6.83Zm-.7,3.7c.15-1.21-.05-2.44-.28-3.49-.46-2.19-1.16-4.32-2.08-6.35-1.71.01-3.22,1.63-3.73,3.29-.63,2.06-.18,4.34.27,6.09l.04.12c1.43,5.5,2.38,5.88,2.56,5.9,1.29.16,3.03-3.97,3.22-5.56Z"/>
    <path class="cls-4" d="m233.5,176.23c.36,3.21-1.85,5.93-3.95,8.22l-.45.49-2.55-4.16c-.52-.84-1.1-1.79-1.25-2.9-.02-.13-.03-.27-.03-.43,0-2.21,1.76-6.68,3.89-7.03.62-.1,1.22.07,1.79.5,1.46,1.11,2.39,3.83,2.55,5.31Zm-4.24,7.05c1.8-2.02,3.54-4.36,3.25-6.94-.15-1.33-1.01-3.74-2.16-4.62-.29-.22-.57-.33-.85-.33-.06,0-.12,0-.18.02-1.52.25-3.26,4.68-3.03,6.33h0c.12.91.65,1.76,1.11,2.52l1.86,3.02Z"/>
    <path class="cls-4" d="m230.18,142.87c2.55,2.6,3.62,5.67,3.09,8.89-.49,2.95-2.38,6.58-3.91,9.49l-1.26,2.44-1.66-10.06c-.3-1.86-.65-3.96-.31-6,.32-1.83,1.41-4.07,3.52-4.87l.31-.12.22.23Zm2.1,8.72c.46-2.78-.43-5.46-2.57-7.77-1.53.75-2.34,2.52-2.59,3.98-.32,1.87,0,3.8.31,5.67l1.17,7.09c1.47-2.81,3.23-6.25,3.68-8.97Z"/>
    <path class="cls-4" d="m231.82,94.37c.92,2.15,1.3,4.07,1.18,5.87-.16,2.23-1.17,4.23-2.71,5.35l-.59-.8c1.31-.95,2.17-2.68,2.3-4.62.11-1.64-.25-3.41-1.1-5.4-.17-.4-.81-1.72-1.6-1.6-.63.07-1.05.98-1.31,1.65-.75,1.94-1.41,3.83-1.3,5.74.1,1.75,1.1,3.77,2.82,4.24l-.26.96c-2.28-.62-3.45-3.1-3.56-5.15-.12-2.1.58-4.11,1.37-6.15.38-.99.97-2.15,2.12-2.29,1.04-.12,1.98.66,2.64,2.2Z"/>
    <path class="cls-4" d="m231.92,279.76l.42,1.54-.71.19c.11-.57.21-1.15.29-1.73Z"/>
    <path class="cls-4" d="m231.89,189.86c.87,2.8.64,5.91-.61,8.55l-.9-.43c1.15-2.41,1.35-5.26.55-7.83l.96-.29Z"/>
    <path class="cls-4" d="m231.45,278.04l.47,1.72c-.08.58-.18,1.16-.29,1.73l-.26.07-.89-3.26.97-.26Z"/>
    <polygon class="cls-4" points="230.56 76.26 229.84 81.79 228.85 81.66 229.57 76.13 230.56 76.26"/>
    <path class="cls-4" d="m230.38,289.16l-.24.03-.21-.2c-.28-.27-.55-.54-.82-.81-.17-.51-.43-.98-.75-1.41l.45-.33c.38.41.77.81,1.17,1.2.19.49.33,1,.4,1.52Z"/>
    <rect class="cls-4" x="229.23" y="63.66" width="1" height="2.95"/>
    <path class="cls-4" d="m229.93,288.99l.21.2-.75.1c-.05-.38-.15-.75-.28-1.11.27.27.54.54.82.81Z"/>
    <path class="cls-4" d="m229.9,285.08l-.99.12c-.29-2.45-.87-4.86-1.71-7.17l.94-.34c.87,2.38,1.46,4.86,1.76,7.39Z"/>
    <rect class="cls-4" x="228.88" y="51.49" width="1" height="4.05"/>
    <rect class="cls-4" x="228.43" y="220.62" width="1" height="8.85"/>
    <path class="cls-4" d="m229.16,286.18c.34.45.61.94.82,1.46-.4-.39-.79-.79-1.17-1.2l.35-.26Z"/>
    <path class="cls-4" d="m228.81,286.44l-.45.33c.32.43.58.9.75,1.41-3.03-3.03-5.59-6.38-5.26-10.32.13-1.46.65-2.82,1.16-4.14.24-.62.49-1.27.69-1.9,1-3.24.85-6.78.7-10.2v-.22c-.54-12.21-.58-24.54-.15-36.82.15-4.31.36-8.62.63-12.91l.05-.87c.3-4.63.6-9.42-.15-14.02-.86-5.26-3.08-9.58-6.28-12.19l.6-.8c3.41,2.78,5.77,7.31,6.67,12.83.77,4.71.46,9.55.16,14.24l-.05.87c-.19,2.94-.34,5.9-.47,8.85-.6,13.58-.6,27.26-.02,40.78v.22c.05,1.12.11,2.25.12,3.38.02,2.42-.13,4.84-.85,7.15-.21.67-.47,1.33-.72,1.97-.5,1.31-.98,2.54-1.09,3.87-.27,3.23,1.66,6.04,3.96,8.49Z"/>
    <path class="cls-4" d="m226.57,8.82c.61.85.69,2.05.2,3.14-.46,1.04-1.32,1.72-2.29,1.83l-.11-1c.62-.06,1.17-.53,1.49-1.24.34-.76.3-1.58-.1-2.14l.81-.59Z"/>
    <path class="cls-4" d="m225.57,223.91l.48.66-5.81.98-2.26,33.53-.67-3.79-.76,3.52-.58-.31c-.92-.48-1.71-1.19-2.32-2.05-.03,2.6-.55,5.17-1.52,7.57l-.31.75-.53-.61c-8.47-9.69-10.74-24.81-5.52-36.75.52-1.19,1.11-2.37,1.68-3.51,1.46-2.88,2.96-5.87,3.27-9.09.43-4.58-1.56-9.05-3.5-13.38-2.17-4.88-4.43-9.92-3.22-15.17l.14-.6.56.26c.14.07.25.07.37,0,.41-.22.84-1.05.97-1.89,1.39-8.75,2.28-17.64,2.65-26.52l.59.39c.13-.2.27-.4.42-.6-.21,5.14-.59,10.28-1.14,15.4-.41,3.85-.92,7.68-1.53,11.49-.16.99-.68,2.18-1.49,2.61-.21.11-.43.17-.65.17h-.02c-.75,4,.57,7.85,2.29,11.83.31.74.65,1.48.98,2.23,1.98,4.44,4.03,9.04,3.57,13.87-.32,3.41-1.87,6.48-3.36,9.46-.57,1.12-1.16,2.29-1.66,3.45-4.96,11.34-2.97,25.63,4.81,35.06,1.02-2.86,1.38-5.94,1.02-8.97l.99-.17c.32,1.44,1.19,2.72,2.35,3.53l1.55-7.16.13.7,1.76-26.11,4.98-.84c-4.12-5.78-6.73-12.86-7.37-20.04l-.04-.37c-.34-3.83-.73-8.18-3.82-9.55l-.58-.25,7.83-10.45.43.32-.59.78c.12.09.24.19.36.3l-6.49,8.67c3.12,1.84,3.53,6.39,3.86,10.09l.03.37c.66,7.27,3.38,14.44,7.67,20.19Z"/>
    <path class="cls-4" d="m225.6,23.85l-.79.61c-.85-1.08-1.81-2.06-2.87-2.91-.54-.43-1.12-.85-1.77-.95-.51-.09-1.16.09-1.41.6-.17.35-.15.81-.13,1.3.03.67.06,1.43-.43,2.03l-.78-.62c.25-.31.23-.8.21-1.37s-.05-1.2.23-1.78c.42-.85,1.44-1.32,2.48-1.15.87.14,1.61.67,2.23,1.16.33.27.66.55.97.85.02.34-.03.67-.14.97l.93.36c.05-.13.1-.27.13-.41.4.42.78.86,1.14,1.31Z"/>
    <path class="cls-4" d="m224.05,19.84c.47.84.61,1.83.41,2.7-.29-.32-.6-.63-.92-.92-.01-.44-.14-.89-.37-1.3-.38-.68-.96-1.15-1.61-1.27l.19-.98c.94.18,1.78.82,2.3,1.77Z"/>
    <path class="cls-4" d="m224.46,22.54c-.03.14-.08.28-.13.41l-.93-.36c.11-.3.16-.63.14-.97.32.29.63.6.92.92Z"/>
    <path class="cls-5" d="m224.28,223.85l-4.98.84-1.76,26.11-.13-.7-1.55,7.16c-1.16-.81-2.03-2.09-2.35-3.53l-.99.17c.36,3.03,0,6.11-1.02,8.97-7.78-9.43-9.77-23.72-4.81-35.06.5-1.16,1.09-2.33,1.66-3.45,1.49-2.98,3.04-6.05,3.36-9.46.46-4.83-1.59-9.43-3.57-13.87-.33-.75-.67-1.49-.98-2.23l2.67-.69c.67,1.64,1.9,3.04,3.43,3.84l.47-.88c-1.77-.93-3.07-2.78-3.41-4.83-.16-.99-.09-2.02.17-2.98l1.98.38.58.25c3.09,1.37,3.48,5.72,3.82,9.55l.04.37c.64,7.18,3.25,14.26,7.37,20.04Zm-8.83,4.39l-.98-.21c-.43,1.97-.6,4-.5,6.02l1-.04c-.1-1.94.06-3.88.48-5.77Zm-1.95,19.64c.55-2.76-.04-5.8-1.56-8.12l-.84.55c1.39,2.11,1.92,4.87,1.42,7.38l.98.19Zm-6.57-10.68c.71-2.88,1.44-5.86.85-8.78l-.98.2c.55,2.7-.16,5.57-.84,8.34-.79,3.21-1.61,6.54-.52,9.71l.94-.33c-.99-2.89-.24-5.93.55-9.14Z"/>
    <path class="cls-4" d="m222.45,182.4l-.88.47c-1.02-1.9-1.75-4-2.14-6.15-.44.97-1.03,1.87-1.74,2.63l-.73-.68c1.1-1.18,1.88-2.71,2.2-4.32l.72-3.62.27,3.68c.2,2.79.99,5.55,2.3,7.99Z"/>
    <path class="cls-4" d="m221.11,41.89c.45,12.14.46,24.43.02,36.56-.22,6.2-.63,12.21-3.07,17.5v-.05c-.3.03-.58.06-.87.1l-.21-.1c2.51-5.21,2.92-11.25,3.15-17.49.44-12,.43-24.16-.01-36.17,0-.1-.01-.21-.01-.31l1-.04Z"/>
    <path class="cls-4" d="m221.1,183.79l-.6.8c-.12-.11-.24-.21-.36-.3l.59-.78.3.23s.05.03.07.05Z"/>
    <path class="cls-4" d="m220.74,183.5c.1.08.2.15.29.24l-.3-.23h.01Z"/>
    <path class="cls-4" d="m220.9,104.44l.06,1c-.8.05-1.6.07-2.4.07-2.31,0-4.63-.2-6.9-.62l.17-.98c2.99.54,6.04.72,9.07.53Z"/>
    <path class="cls-4" d="m219.7,122.36l-.87.48c-1.11-2.02-2.55-3.78-4.28-5.23l.64-.77c1.83,1.54,3.34,3.4,4.51,5.52Z"/>
    <polygon class="cls-4" points="218.55 134.44 218.95 142.18 217.95 142.23 217.55 134.49 218.55 134.44"/>
    <path class="cls-4" d="m218.06,95.95l.1.95c-4.87.5-9.65,2.2-13.8,4.9-.47.31-.93.63-1.4.95-2.36,1.61-4.81,3.28-7.67,3.32h-.1c-2.61,0-4.89-1.35-7.09-2.67-1.36-.8-2.76-1.63-4.2-2.13-2.64-.9-5.62-.75-8.51-.6-3.88.19-7.91.4-11.14-2-.95-.71-1.76-1.6-2.53-2.46-.75-.83-1.45-1.6-2.27-2.24-1.77-1.37-3.91-1.94-6.18-2.55-1.07-.28-2.18-.58-3.24-.97-4.32-1.58-8.01-4.78-11.27-7.61l-17.41-15.11.35-.4.76.04,16.96,14.72c3.34,2.9,6.8,5.9,10.95,7.42,1.02.38,2.11.67,3.16.95,2.26.6,4.6,1.23,6.53,2.72.89.69,1.66,1.54,2.4,2.36.78.86,1.51,1.68,2.39,2.33,2.94,2.18,6.61,1.99,10.49,1.8,2.98-.15,6.06-.31,8.88.65,1.55.53,2.99,1.39,4.39,2.22,2.21,1.32,4.34,2.59,6.66,2.53,2.57-.04,4.88-1.62,7.12-3.15.48-.32.95-.65,1.42-.95,4.04-2.64,8.66-4.35,13.38-4.97l.69.34.18-.39Z"/>
    <path class="cls-4" d="m218.06,95.95l-.18.39-.69-.34c.29-.04.57-.07.86-.1v.05Z"/>
    <path class="cls-4" d="m216.85,151.94c2.67,4.15,2.89,9.87.54,14.24-1.63,3.02-4.26,5.23-7.04,7.42l-.62-.78c2.7-2.12,5.24-4.26,6.78-7.12,2.18-4.05,1.98-9.36-.5-13.22-.4-.62-.87-1.24-1.32-1.83-1.24-1.63-2.53-3.32-2.71-5.45l1-.09c.15,1.85,1.3,3.35,2.5,4.93.47.61.95,1.24,1.37,1.9Z"/>
    <polygon class="cls-4" points="215.98 159.45 210.02 166.47 209.26 165.83 215.22 158.8 215.98 159.45"/>
    <path class="cls-4" d="m214.72,38.62l.88.49c-.89,1.59-1.52,3.31-1.89,5.11l-.98-.2c.39-1.9,1.06-3.72,1.99-5.4Z"/>
    <path class="cls-4" d="m212.58,119.79c3.35,3.46,4.5,9.08,2.81,13.67-.52,1.4-1.27,2.69-2,3.94-.56.96-1.13,1.95-1.59,2.97-.67,1.5-1.09,3.12-1.26,4.78-.15,1.43-.11,2.88.13,4.3l-.56.1c-.08-.08-.16-.16-.23-.24.01-.28.01-.55.01-.83h-.35c-.3-2.9.18-5.89,1.35-8.52.48-1.07,1.07-2.08,1.64-3.06.7-1.21,1.43-2.46,1.92-3.79.12-.33.22-.66.32-1,1.07-4.03-.06-8.68-2.9-11.62-2.98-3.07-7.7-4.16-11.64-2.7l-.24-.93c-.08.02-.15.04-.23.05,4.31-1.67,9.55-.51,12.82,2.88Z"/>
    <path class="cls-4" d="m214.47,228.03l.98.21c-.42,1.89-.58,3.83-.48,5.77l-1,.04c-.1-2.02.07-4.05.5-6.02Z"/>
    <path class="cls-3" d="m211.87,120.49c2.84,2.94,3.97,7.59,2.9,11.62l-1.32-.14c.87-3.28-5.47-8.68-6.75-9.73-1.9-1.56-4.82-2.73-7.3-1.37l-.25.13v.29c-.04,1.6.59,3.62,1.64,5.58l-1.91.35c-.34-.97-.77-1.92-1.41-2.74l-.79.62c.92,1.16,1.34,2.62,1.78,4.17.19.63.37,1.26.58,1.87.23.65.54,1.31.92,1.91l-1.9.31c-1.56-1.57-2.39-3.95-2.18-6.21l-.99-.1c-.25,2.55.7,5.23,2.46,7.01l-.5.58c-9.7-8.28-21.96-14.13-32.46-19.13-.51-.57-.51-1.13-.51-1.82,0-.79,0-1.68-.85-2.57-.44-.46-.91-.79-1.4-1.03l-.04-.46c3.97-.43,7.95.96,11.79,2.31l.48.17c4.89,1.71,9.89,3.28,14.87,4.67,2.76.77,5.47,1.44,8.15,1.44.98,0,1.96-.09,2.94-.3v.03c.07-.03.14-.05.2-.08.07-.01.15-.02.22-.04v-.04c3.93-1.46,8.65-.37,11.63,2.7Zm-21.28,3.41l.34-.94c-5.04-1.82-10.17-3.58-15.26-5.22l-.31.95c5.08,1.64,10.21,3.39,15.23,5.21Z"/>
    <path class="cls-3" d="m213.45,131.97l1.32.14c-.1.34-.2.67-.32,1-.49,1.33-1.22,2.58-1.92,3.79-.57.98-1.16,1.99-1.64,3.06-1.17,2.63-1.65,5.62-1.35,8.52h-.43c-.61-.68-1.2-1.38-1.76-2.1l-.02.02c-2.84-4.42-6.43-8.31-10.48-11.76l.5-.58.71-.7,1.9-.31c.84,1.35,2.03,2.44,3.53,2.62l.06,1.72.36.1c1.18.32,2.4.49,3.62.49.88,0,1.76-.09,2.62-.26l-.19-.98c-1.79.36-3.66.31-5.43-.13l-.07-1.92h-.49c-1.93.05-3.34-2.07-3.98-3.89-.21-.59-.39-1.2-.56-1.8-.17-.59-.35-1.19-.55-1.78l1.91-.35c1.03,1.91,2.45,3.77,4.03,5.13,1.64,1.41,3.3,2.14,4.84,2.14.27,0,.55-.03.82-.07,1.68-.3,2.69-1.01,2.97-2.1Z"/>
    <path class="cls-4" d="m213.73,201.07l-.47.88c-1.53-.8-2.76-2.2-3.43-3.84-.23-.55-.4-1.12-.5-1.71-.38-2.34.36-4.87,1.94-6.58l.74.67c-.71.77-1.23,1.74-1.52,2.77-.26.96-.33,1.99-.17,2.98.34,2.05,1.64,3.9,3.41,4.83Z"/>
    <path class="cls-4" d="m211.94,239.76c1.52,2.32,2.11,5.36,1.56,8.12l-.98-.19c.5-2.51-.03-5.27-1.42-7.38l.84-.55Z"/>
    <path class="cls-4" d="m212.84,151.84l.72.69c-1.4,1.47-2.7,3.07-3.86,4.77.02-.6.04-1.2.06-1.79.94-1.29,1.98-2.52,3.08-3.67Z"/>
    <path class="cls-4" d="m206.7,122.24c1.28,1.05,7.62,6.45,6.75,9.73-.28,1.09-1.29,1.8-2.97,2.1-.27.04-.55.07-.82.07-1.54,0-3.2-.73-4.84-2.14-1.58-1.36-3-3.22-4.03-5.13-1.05-1.96-1.68-3.98-1.65-5.58v-.29s.26-.13.26-.13c2.48-1.36,5.4-.19,7.3,1.37Zm5.79,9.48c.58-2.24-3.94-6.67-6.42-8.7-1.51-1.24-3.92-2.31-5.92-1.41.1,2.86,2.47,7.19,5.32,9.63,1.19,1.02,2.98,2.16,4.83,1.84,1.27-.22,2.01-.68,2.19-1.36Z"/>
    <polygon class="cls-4" points="211.1 112.19 211.04 113.19 198.37 112.38 198.43 111.38 211.1 112.19"/>
    <path class="cls-4" d="m210.11,149.55c.08.09.16.17.24.25l-.48.48c.01-.23.01-.46.01-.69l.23-.04Z"/>
    <path class="cls-4" d="m209.96,136.74l.19.98c-.86.17-1.74.26-2.62.26-1.22,0-2.44-.17-3.62-.49l-.36-.1-.06-1.72c-1.5-.18-2.69-1.27-3.53-2.62-.38-.6-.69-1.26-.92-1.91-.21-.61-.39-1.24-.58-1.87-.44-1.55-.86-3.01-1.78-4.17l.79-.62c.64.82,1.07,1.77,1.41,2.74.2.59.38,1.19.55,1.78.17.6.35,1.21.56,1.8.64,1.82,2.05,3.94,3.98,3.9h.49s.07,1.91.07,1.91c1.77.44,3.64.49,5.43.13Z"/>
    <path class="cls-4" d="m210.11,149.55l-.23.04c0-.1.01-.19,0-.28.07.08.15.16.23.24Z"/>
    <path class="cls-4" d="m209.89,148.48c0,.28,0,.55-.01.83-.09-.09-.18-.18-.27-.28-.04-.18-.06-.37-.07-.55h.35Z"/>
    <path class="cls-4" d="m209.88,149.31c.01.09,0,.18,0,.28l-.19.03c-.03-.2-.06-.39-.08-.59.09.1.18.19.27.28Z"/>
    <path class="cls-4" d="m209.88,149.59c0,.23,0,.46-.01.69l-.23.23c-.26-.26-.51-.52-.76-.79.01-.41.01-.83.01-1.24h.22c.16.19.33.37.5.55.02.2.05.39.08.59l.19-.03Z"/>
    <path class="cls-4" d="m209.64,150.51l.23-.23c-.01,1.74-.05,3.48-.11,5.23-.38.48-.73.97-1.06,1.47.1-2.42.16-4.84.18-7.26.25.27.5.53.76.79Z"/>
    <path class="cls-4" d="m209.76,155.51c-.02.59-.04,1.19-.06,1.79-.15.2-.29.4-.42.6l-.59-.39c.01-.18.01-.35.01-.53.33-.5.68-.99,1.06-1.47Z"/>
    <path class="cls-4" d="m209.54,148.48c.01.18.03.37.07.55-.17-.18-.34-.36-.5-.55h.43Z"/>
    <path class="cls-4" d="m209.11,148.48h-.22c0,.41,0,.83-.01,1.24-.61-.65-1.2-1.33-1.77-2.03l.75-.46c-.17-.28-.35-.56-.53-.83l.02-.02c.56.72,1.15,1.42,1.76,2.1Z"/>
    <path class="cls-4" d="m208.45,157.35c.08-.12.16-.25.25-.37,0,.18,0,.35-.01.53l-.24-.16Z"/>
    <path class="cls-4" d="m207.78,228.42c.59,2.92-.14,5.9-.85,8.78-.79,3.21-1.54,6.25-.55,9.14l-.94.33c-1.09-3.17-.27-6.5.52-9.71.68-2.77,1.39-5.64.84-8.34l.98-.2Z"/>
    <path class="cls-4" d="m207.33,146.4c.18.27.36.55.53.83l-.75.46c-.18-.23-.37-.46-.55-.7l.77-.59Z"/>
    <path class="cls-4" d="m207.33,146.4l-.77.59c.18.24.37.47.55.7l-.1.06c-.92-1.5-1.92-2.93-3-4.31l.1-.38c-.18-.05-.35-.1-.53-.14-10.01-12.4-26.32-20.17-39.71-26.55l-.14-.11c-.85-.88-.85-1.78-.85-2.57,0-.72,0-1.28-.57-1.88-1.46-1.52-3.34-1.3-5.33-1.06-1.53.18-3.12.38-4.47-.33l-.11-.07c-5.41-4.96-10.54-10.31-15.51-15.48-5.63-5.85-10.94-11.39-16.63-16.41l.1-.11.81.04.02-.44c5.62,4.99,10.87,10.45,16.42,16.23,4.94,5.14,10.05,10.46,15.42,15.38,1.06.53,2.41.37,3.83.2,1.55-.19,3.26-.4,4.77.33.49.24.96.57,1.4,1.03.85.89.85,1.78.85,2.57,0,.69,0,1.25.51,1.82,10.5,5,22.76,10.85,32.46,19.13,4.05,3.45,7.64,7.34,10.48,11.76Z"/>
    <path class="cls-4" d="m204.11,143.06l-.1.38c-.14-.17-.28-.35-.43-.52.18.04.35.09.53.14Z"/>
    <path class="cls-4" d="m204.01,143.44l-.16.59c-9.78-2.71-19.3-4.88-28.14-1.79-1.67.58-2.59,1.33-2.82,2.3l-.42-.1.02-.02.54-.49-.63-.7c.57-.8,1.56-1.44,2.98-1.94,8.96-3.12,18.45-1.05,28.2,1.63.15.17.29.35.43.52Z"/>
    <path class="cls-4" d="m200.23,117.79v.04c-.06.02-.14.03-.21.04.07-.03.14-.05.21-.08Z"/>
    <path class="cls-4" d="m199.99,116.86l.24.93c-.07.03-.14.05-.21.08s-.13.04-.2.05l-.37-.89c.1-.04.21-.08.31-.12.08-.01.15-.03.23-.05Z"/>
    <path class="cls-4" d="m200.02,117.87c-.06.03-.13.05-.19.08v-.03c.06-.01.12-.02.19-.05Z"/>
    <path class="cls-4" d="m199.45,117.03l.37.89c-.98.21-1.96.3-2.94.3-2.68,0-5.39-.67-8.15-1.44-4.98-1.39-9.98-2.96-14.87-4.67l-.48-.17c-3.84-1.35-7.82-2.74-11.79-2.31-.03,0-.06.01-.09.01l-.11-.99c4.23-.5,8.34.95,12.32,2.35l.48.16c4.87,1.71,9.85,3.27,14.81,4.66,3.69,1.03,7.29,1.88,10.76,1.09-.1.04-.21.08-.31.12Z"/>
    <path class="cls-4" d="m198.06,133.36l-.71.7c-1.76-1.78-2.71-4.46-2.46-7.01l.99.1c-.21,2.26.62,4.64,2.18,6.21Z"/>
    <polygon class="cls-4" points="193.61 107.79 193.33 108.75 176.77 104 177.05 103.04 193.61 107.79"/>
    <path class="cls-4" d="m190.93,122.96l-.34.94c-5.02-1.82-10.15-3.57-15.23-5.21l.31-.95c5.09,1.64,10.22,3.4,15.26,5.22Z"/>
    <path class="cls-3" d="m163.87,116.37c13.39,6.38,29.7,14.15,39.71,26.55-9.75-2.68-19.24-4.75-28.2-1.63-1.42.5-2.41,1.14-2.98,1.94l-.04-.04-.54.49c-9.28,8.4-18.04,16.34-22.89,28.37-1.18,2.93-2.25,5.95-3.28,8.88-2,5.66-4.05,11.44-6.98,16.74l-.27.04.05.36c-1.22,2.18-2.59,4.27-4.18,6.23-4.21-3.87-9.76-1.94-14.67-.24-1.1.39-2.13.75-3.15,1.05-8.4,2.49-15.53,5.25-21.8,8.45-9.21,4.68-25.69,15.18-32.68,32.76-1.7,4.29-2.73,8.85-3.73,13.26-.82,3.67-1.67,7.43-2.91,11.04v-20.57l-.66.22c-3.32,1.11-6.48,2.89-9.53,4.62-2.38,1.34-4.84,2.73-7.34,3.78-6.69,2.79-8.61,6.21-11.13,12.82-4.83,12.64-9.17,25.7-13.37,38.33-.58,1.74-1.16,3.48-1.74,5.21-.14-.69-.42-1.31-.86-1.79l-.59-.64-.25.83c-.02.06-.04.11-.06.17-5.51-21.96-8.3-46.45-8.3-72.91,0-7.13,1.35-14.98,2.65-22.57.6-3.5,1.16-6.8,1.59-9.98,3.16-11.58,6.03-20.17,9.9-29.63,9.9-22.23,22.85-43.33,35.38-63.74,18.75-15.43,38.11-31.37,55.95-48.43l-.1.29,1.4-1.27c.18-.16.32-.29.42-.42.07,0,.15-.02.25,0-.07,1.57.11,3.08.53,4.46.71,2.38,2.11,4.36,3.95,5.59l.32.21c.76.49,1.55,1,1.61,1.85,0,.21.02.5.23.75.07.08.14.15.22.19l-2.56.66c-.65.16-1.41.67-1.63,1.3-.11.36-.05.73.19,1.02l.76-.7c.07-.21.49-.54.93-.66l5.04-1.29-.02-.06,1.85.09-.1.11c5.69,5.02,11,10.56,16.63,16.41,4.97,5.17,10.1,10.52,15.51,15.48l.11.07c1.35.71,2.94.51,4.47.33,1.99-.24,3.87-.46,5.33,1.06.57.6.57,1.16.57,1.88,0,.79,0,1.69.85,2.57l.14.11Zm8.06,16.29l.14-.99c-4.61-.69-8.87-3.07-12.98-5.37-2.25-1.26-4.58-2.57-6.97-3.6-1.33-.57-2.71-1.08-4.04-1.57-2.85-1.04-5.81-2.12-8.3-3.92l-.59.81c2.61,1.88,5.63,2.99,8.55,4.05,1.32.49,2.68.99,3.98,1.55,2.34,1.01,4.65,2.3,6.88,3.55,4.19,2.35,8.53,4.77,13.33,5.49Zm-31.01,50.93l-.51-.86c-2.95,1.73-5.15,4.67-6.04,8.08l.97.25c.81-3.11,2.9-5.9,5.58-7.47Zm-5.62-77.23l.23-.97c-5.21-1.21-10.89.36-14.84,4.11l.68.72c3.71-3.51,9.05-4.99,13.93-3.86Zm-1.4-4.39l.18-.99c-4.67-.82-9.58.33-13.46,3.17l.59.8c3.66-2.67,8.29-3.76,12.69-2.98Zm-4.28,91.72l.91-.41c-3.82-8.5-7.42-16.85-9.36-25.63-.87-3.9-1.41-7.94-1.85-11.41-3.09-24.37-4.39-49.19-3.87-73.76l-1-.02c-.52,24.62.78,49.49,3.87,73.9.45,3.5,1,7.56,1.87,11.51,1.97,8.87,5.58,17.28,9.43,25.82Zm-6.38-102.89l.88-.47c-1.86-3.52-4.07-6.85-6.56-9.91l-.77.63c2.45,3.01,4.62,6.29,6.45,9.75Zm-12.45-.14l-.62-.78c-1.14.9-2.7.42-4.36-.08-1.35-.42-2.75-.85-4.03-.55.99-1.26,2.06-2.47,3.19-3.63l-.72-.69c-4.49,4.6-7.95,10.02-10.82,15.73l-1.59-.8c3.07-6.2,6.32-12.3,9.74-18.3l-.87-.5c-28.41,49.81-44.89,106.77-47.67,164.72l1,.05c.43-8.86,1.17-17.69,2.24-26.48l1.82.21c-.93,7.59-1.5,15.22-1.65,22.95l1,.02c.79-41.07,13.56-79.51,28.91-121.91,3.65-10.07,7.71-21.29,14.62-30.36l.2.31c1.18-.78,2.71-.31,4.34.18,1.03.32,2.08.64,3.08.64.78,0,1.52-.19,2.19-.73Zm-3.99,17.64l.13-1c-3.55-.45-7.16-.46-10.72-.02l.13.99c3.47-.43,6.99-.42,10.46.03Zm-.8,4.43l.34-.94c-2.82-1.02-5.71.07-8.68,1.38-1.28.56-2.6,1.14-3.71,2.12-1.29,1.13-2.01,2.62-1.97,4.08l1-.03c-.03-1.14.58-2.38,1.63-3.3,1-.88,2.24-1.43,3.45-1.96,2.78-1.22,5.47-2.24,7.94-1.35Zm-1.64,93.39l.06-1c-6.37-.33-12.35,3.3-17.15,6.22-8.22,5-16.71,10.18-23.49,17.49l.73.68c6.69-7.21,15.12-12.35,23.28-17.32,4.68-2.85,10.51-6.39,16.57-6.07Zm-9.33-118.62l-.88-.48c-.7,1.29-2.28,1.59-2.92,1.67-.77.09-1.54.04-2.36,0-.5-.03-1.02-.07-1.51-.06-2.97.01-5.87,1.09-8.18,3.05l.65.76c2.13-1.8,4.8-2.8,7.54-2.81.49.01.96.03,1.44.06.83.05,1.68.1,2.53,0,1.69-.19,3.03-.99,3.69-2.18Zm-20.43,26.94l-.28-.96c-1.45.42-2.96.3-4.56.17-.61-.05-1.22-.09-1.83-.11-1.72-.04-4.81.23-6.3,2.64l.86.53c1.21-1.98,3.91-2.22,5.41-2.17.59.02,1.19.06,1.79.11,1.61.13,3.29.26,4.91-.21Zm-4,6.48l-.02-1c-5.96.13-11.85,2.29-16.59,6.06-.35.28-.7.57-1.05.86-1.43,1.2-2.91,2.43-4.63,2.89l.26.97c1.93-.52,3.5-1.83,5.01-3.09.35-.28.69-.57,1.03-.84,4.57-3.64,10.25-5.72,15.99-5.85Zm-22.46,124.85l-.08-.99c-2.71.2-4.83,2.05-6.88,3.84-1.89,1.65-3.68,3.21-5.89,3.59l.17.99c2.48-.43,4.46-2.16,6.38-3.83,2.01-1.76,3.91-3.42,6.3-3.6Zm-38.09-26.05l-.98-.2c-3.1,15.07-4.17,30.51-3.15,45.9l.99-.07c-1-15.29.05-30.64,3.14-45.63Z"/>
    <path class="cls-4" d="m172.4,143.23l.63.7-.54.49-.02.02-.55-.13c.09-.39.25-.75.48-1.08Z"/>
    <path class="cls-4" d="m171.92,144.31l.55.13c-9.18,8.31-17.85,16.18-22.61,27.99-1.17,2.9-2.24,5.92-3.27,8.84-2.03,5.74-4.12,11.62-7.11,17.02l-.09-.71-.72.09c2.93-5.3,4.98-11.08,6.98-16.74,1.03-2.93,2.1-5.95,3.28-8.88,4.85-12.03,13.61-19.97,22.89-28.37l.54-.49.04.04c-.23.33-.39.69-.48,1.08Z"/>
    <path class="cls-4" d="m172.07,131.67l-.14.99c-4.8-.72-9.14-3.14-13.33-5.49-2.23-1.25-4.54-2.54-6.88-3.55-1.3-.56-2.66-1.06-3.98-1.55-2.92-1.06-5.94-2.17-8.55-4.05l.59-.81c2.49,1.8,5.45,2.88,8.3,3.92,1.33.49,2.71,1,4.04,1.57,2.39,1.03,4.72,2.34,6.97,3.6,4.11,2.3,8.37,4.68,12.98,5.37Z"/>
    <path class="cls-4" d="m157.98,104.96l-.76.65c-1.35-1.59-3.02-2.93-4.83-3.88l.46-.89c1.93,1.01,3.7,2.44,5.13,4.12Z"/>
    <path class="cls-4" d="m156.21,218.3h-5.7l-10.59-5.59-6.11-7.37.05-.04.09.09.38.4.36-.43c.07-.09.15-.18.21-.27l5.72,6.91,10.13,5.3h2.75l-14.14-12.03-.71-5.55c.29-.47.56-.95.83-1.43l.82,6.47,15.91,13.54Z"/>
    <path class="cls-3" d="m153.5,217.3h-2.75l-10.13-5.3-5.72-6.91c1.41-1.7,2.64-3.5,3.75-5.37l.71,5.55,14.14,12.03Z"/>
    <path class="cls-4" d="m140.41,182.73l.51.86c-2.68,1.57-4.77,4.36-5.58,7.47l-.97-.25c.89-3.41,3.09-6.35,6.04-8.08Z"/>
    <path class="cls-4" d="m139.39,197.58l.09.71c-.27.48-.54.96-.83,1.43l-.2-1.65c.08-.13.16-.27.22-.4l.72-.09Z"/>
    <path class="cls-4" d="m138.67,197.67c-.06.13-.14.27-.22.4l-.05-.36.27-.04Z"/>
    <path class="cls-4" d="m138.45,198.07l.2,1.65c-1.11,1.87-2.34,3.67-3.75,5.37l-.32-.39-.72.6c-3.8-3.81-8.95-2.03-13.93-.29-1.06.37-2.16.75-3.2,1.06-8.34,2.47-15.41,5.21-21.63,8.38-9.08,4.62-25.34,14.96-32.2,32.24-1.67,4.21-2.69,8.74-3.68,13.11-1.03,4.59-2.1,9.33-3.93,13.76l-.96,2.33v-24.44c-3,1.09-5.89,2.72-8.7,4.31-2.4,1.36-4.89,2.76-7.45,3.83-6.35,2.65-8.1,5.77-10.58,12.26-4.82,12.61-9.16,25.67-13.35,38.29-1.01,3.02-2.01,6.03-3.02,9.05,0,.02,0,.04-.02.06l-.58,1.73-.38-1.77C3.78,295.82.5,269.4.5,240.69c0-7.21,1.35-15.1,2.66-22.73.6-3.5,1.16-6.8,1.6-10.02,3.19-11.69,6.07-20.31,9.96-29.83,9.95-22.32,22.93-43.47,35.49-63.93l.11-.13c19.52-16.07,39.69-32.67,58.11-50.51l.06-.06.5.07c.03-.22.07-.44.11-.66l.05-.05c-.12.71-.19,1.41-.21,2.1-.1-.02-.18,0-.25,0-.1.13-.24.26-.42.42l-1.4,1.27.1-.29c-17.84,17.06-37.2,33-55.95,48.43-12.53,20.41-25.48,41.51-35.38,63.74-3.87,9.46-6.74,18.05-9.9,29.63-.43,3.18-.99,6.48-1.59,9.98-1.3,7.59-2.65,15.44-2.65,22.57,0,26.46,2.79,50.95,8.3,72.91.02-.06.04-.11.06-.17l.25-.83.59.64c.44.48.72,1.1.86,1.79.58-1.73,1.16-3.47,1.74-5.21,4.2-12.63,8.54-25.69,13.37-38.33,2.52-6.61,4.44-10.03,11.13-12.82,2.5-1.05,4.96-2.44,7.34-3.78,3.05-1.73,6.21-3.51,9.53-4.62l.66-.22v20.57c1.24-3.61,2.09-7.37,2.91-11.04,1-4.41,2.03-8.97,3.73-13.26,6.99-17.58,23.47-28.08,32.68-32.76,6.27-3.2,13.4-5.96,21.8-8.45,1.02-.3,2.05-.66,3.15-1.05,4.91-1.7,10.46-3.63,14.67.24,1.59-1.96,2.96-4.05,4.18-6.23ZM10.7,316.32c0-.32-.03-.64-.08-.94.01.31.04.62.08.94Z"/>
    <path class="cls-4" d="m135.53,105.39l-.23.97c-4.88-1.13-10.22.35-13.93,3.86l-.68-.72c3.95-3.75,9.63-5.32,14.84-4.11Z"/>
    <path class="cls-4" d="m134.9,205.09c-.06.09-.14.18-.21.27l-.36.43-.38-.4-.09-.09.72-.6.32.39Z"/>
    <path class="cls-4" d="m134.08,100.98l-.18.99c-4.4-.78-9.03.31-12.69,2.98l-.59-.8c3.88-2.84,8.79-3.99,13.46-3.17Z"/>
    <path class="cls-4" d="m131.8,15.14l-7.9,24.27-1.41,27.96h-.03l-.45-.39-.31.35h-.21s1.44-28.17,1.44-28.17l6.16-18.93-2.44,3.12-16.93,36.76-.85-.3c-.12.34-.22.69-.32,1.03l-.22-.1,17.49-37.96,5.98-7.64Z"/>
    <path class="cls-4" d="m130.53,193.28l-.91.41c-3.85-8.54-7.46-16.95-9.43-25.82-.87-3.95-1.42-8.01-1.87-11.51-3.09-24.41-4.39-49.28-3.87-73.9l1,.02c-.52,24.57.78,49.39,3.87,73.76.44,3.47.98,7.51,1.85,11.41,1.94,8.78,5.54,17.13,9.36,25.63Z"/>
    <path class="cls-4" d="m124.12,90.33l-.88.47c-1.83-3.46-4-6.74-6.45-9.75l.77-.63c2.49,3.06,4.7,6.39,6.56,9.91Z"/>
    <polygon class="cls-4" points="122.46 67.37 121.7 67.33 122.01 66.98 122.46 67.37"/>
    <path class="cls-4" d="m121.22,77.39l-.03.56-.27-.24-.56.64-1.85-.09-.23-.91-2.48.64c-.08-.04-.15-.11-.22-.19-.21-.25-.22-.54-.23-.75-.06-.85-.85-1.36-1.61-1.85l-.32-.21c-1.84-1.23-3.24-3.21-3.95-5.59-.42-1.38-.6-2.89-.53-4.46.08,0,.17.01.28.03l.2-.98s-.06-.01-.09-.01l.84-1.3h.03c-.43,2.28-.35,4.5.23,6.44.64,2.15,1.9,3.94,3.55,5.04l.31.2c.87.57,1.96,1.27,2.05,2.52v.12c.01.05.01.12.02.16.01-.01.06,0,.14,0l4.72.23Z"/>
    <path class="cls-4" d="m121.19,77.95l-.02.44-.81-.04.56-.64.27.24Z"/>
    <path class="cls-4" d="m118.51,78.26l.02.06-5.04,1.29c-.44.12-.86.45-.93.66l-.76.7c-.24-.29-.3-.66-.19-1.02.22-.63.98-1.14,1.63-1.3l2.56-.66c.24.15.51.16.66.17l2.05.1Z"/>
    <path class="cls-4" d="m118.28,77.35l.23.91-2.05-.1c-.15-.01-.42-.02-.66-.17l2.48-.64Z"/>
    <polygon class="cls-4" points="111.59 60.48 110.17 62.68 109.46 62.55 111.59 60.48"/>
    <path class="cls-4" d="m110.17,89.88l.62.78c-.67.54-1.41.73-2.19.73-1,0-2.05-.32-3.08-.64-1.63-.49-3.16-.96-4.34-.18l-.2-.31c.26-.34.52-.68.8-1.01,1.28-.3,2.68.13,4.03.55,1.66.5,3.22.98,4.36.08Z"/>
    <path class="cls-4" d="m109.46,62.55l.71.13-.84,1.3s.06.01.09.01l-.2.98c-.11-.02-.2-.03-.28-.03.02-.69.09-1.39.21-2.1l.31-.29Z"/>
    <path class="cls-4" d="m109.72,60.11l.09.03c-.3.89-.54,1.82-.71,2.75l-.61.59-.49-.07c.13-.86.31-1.72.55-2.57l.69.32.48-1.05Z"/>
    <path class="cls-4" d="m109.72,60.11l-.48,1.05-.69-.32c.1-.34.2-.69.32-1.03l.85.3Z"/>
    <path class="cls-4" d="m109.21,62.5l.25.05-.31.29c.02-.11.04-.23.06-.34Z"/>
    <path class="cls-4" d="m109.1,62.89c-.04.22-.08.44-.11.66l-.5-.07.61-.59Z"/>
    <path class="cls-4" d="m106.93,107.3l-.13,1c-3.47-.45-6.99-.46-10.46-.03l-.13-.99c3.56-.44,7.17-.43,10.72.02Z"/>
    <path class="cls-4" d="m106.34,111.79l-.34.94c-2.47-.89-5.16.13-7.94,1.35-1.21.53-2.45,1.08-3.45,1.96-1.05.92-1.66,2.16-1.63,3.3l-1,.03c-.04-1.46.68-2.95,1.97-4.08,1.11-.98,2.43-1.56,3.71-2.12,2.97-1.31,5.86-2.4,8.68-1.38Z"/>
    <path class="cls-4" d="m104.25,84.93l.72.69c-1.13,1.16-2.2,2.37-3.19,3.63-.39.09-.78.24-1.15.49l.35.52c-6.91,9.07-10.97,20.29-14.62,30.36-15.35,42.4-28.12,80.84-28.91,121.91l-1-.02c.15-7.73.72-15.36,1.65-22.95,4.03-32.86,14.82-64.76,27.32-99.28,2.31-6.36,4.77-13.17,8.01-19.62,2.87-5.71,6.33-11.13,10.82-15.73Z"/>
    <path class="cls-4" d="m104.42,205.12l-.06,1c-6.06-.32-11.89,3.22-16.57,6.07-8.16,4.97-16.59,10.11-23.28,17.32l-.73-.68c6.78-7.31,15.27-12.49,23.49-17.49,4.8-2.92,10.78-6.55,17.15-6.22Z"/>
    <path class="cls-4" d="m101.78,89.25c-.28.33-.54.67-.8,1.01l-.35-.52c.37-.25.76-.4,1.15-.49Z"/>
    <path class="cls-4" d="m100.71,81.06l.87.5c-3.42,6-6.67,12.1-9.74,18.3-18.46,37.24-30.55,77.86-35.56,119.49-1.07,8.79-1.81,17.62-2.24,26.48l-1-.05c2.78-57.95,19.26-114.91,47.67-164.72Z"/>
    <path class="cls-4" d="m94.15,87.02l.88.48c-.66,1.19-2,1.99-3.69,2.18-.85.1-1.7.05-2.53,0-.48-.03-.95-.05-1.44-.06-2.74.01-5.41,1.01-7.54,2.81l-.65-.76c2.31-1.96,5.21-3.04,8.18-3.05.49-.01,1.01.03,1.51.06.82.05,1.59.1,2.36,0,.64-.08,2.22-.38,2.92-1.67Z"/>
    <path class="cls-3" d="m93.43,100.66c-3.24,6.45-5.7,13.26-8.01,19.62-12.5,34.52-23.29,66.42-27.32,99.28l-1.82-.21c5.01-41.63,17.1-82.25,35.56-119.49l1.59.8Z"/>
    <path class="cls-4" d="m74.32,113.48l.28.96c-1.62.47-3.3.34-4.91.21-.6-.05-1.2-.09-1.79-.11-1.5-.05-4.2.19-5.41,2.17l-.86-.53c1.49-2.41,4.58-2.68,6.3-2.64.61.02,1.22.06,1.83.11,1.6.13,3.11.25,4.56-.17Z"/>
    <path class="cls-4" d="m70.58,119.92l.02,1c-5.74.13-11.42,2.21-15.99,5.85-.34.27-.68.56-1.03.84-1.51,1.26-3.08,2.57-5.01,3.09l-.26-.97c1.72-.46,3.2-1.69,4.63-2.89.35-.29.7-.58,1.05-.86,4.74-3.77,10.63-5.93,16.59-6.06Z"/>
    <path class="cls-4" d="m48.06,244.78l.08.99c-2.39.18-4.29,1.84-6.3,3.6-1.92,1.67-3.9,3.4-6.38,3.83l-.17-.99c2.21-.38,4-1.94,5.89-3.59,2.05-1.79,4.17-3.64,6.88-3.84Z"/>
    <path class="cls-4" d="m9.07,219.52l.98.2c-3.09,14.99-4.14,30.34-3.14,45.63l-.99.07c-1.02-15.39.05-30.83,3.15-45.9Z"/>
  </g>
  <g>
    <path class="cls-1" d="m121.19,77.95c5.62,4.99,10.87,10.45,16.42,16.23,4.94,5.14,10.05,10.46,15.42,15.38,1.06.53,2.41.37,3.83.2,1.55-.19,3.26-.4,4.77.33.49.24.96.57,1.4,1.03.85.89.85,1.78.85,2.57,0,.69,0,1.25.51,1.82,10.5,5,22.76,10.85,32.46,19.13,4.05,3.45,7.64,7.34,10.48,11.76"/>
    <path class="cls-1" d="m203.58,142.92c-10.01-12.4-26.32-20.17-39.71-26.55l-.14-.11c-.85-.88-.85-1.78-.85-2.57,0-.72,0-1.28-.57-1.88-1.46-1.52-3.34-1.3-5.33-1.06-1.53.18-3.12.38-4.47-.33l-.11-.07c-5.41-4.96-10.54-10.31-15.51-15.48-5.63-5.85-10.94-11.39-16.63-16.41l.1-.11"/>
    <path class="cls-1" d="m207.11,147.69l-.1.06c-.92-1.5-1.92-2.93-3-4.31"/>
    <path class="cls-1" d="m138.65,199.72c-1.11,1.87-2.34,3.67-3.75,5.37"/>
    <path class="cls-1" d="m172.47,144.44c-9.18,8.31-17.85,16.18-22.61,27.99-1.17,2.9-2.24,5.92-3.27,8.84-2.03,5.74-4.12,11.62-7.11,17.02"/>
    <path class="cls-1" d="m138.67,197.67c2.93-5.3,4.98-11.08,6.98-16.74,1.03-2.93,2.1-5.95,3.28-8.88,4.85-12.03,13.61-19.97,22.89-28.37l.54-.49.04.04"/>
    <path class="cls-1" d="m108.94,64.94c-.1-.02-.18,0-.25,0-.1.13-.24.26-.42.42l-1.4,1.27.1-.29c-17.84,17.06-37.2,33-55.95,48.43-12.53,20.41-25.48,41.51-35.38,63.74-3.87,9.46-6.74,18.05-9.9,29.63-.43,3.18-.99,6.48-1.59,9.98-1.3,7.59-2.65,15.44-2.65,22.57,0,26.46,2.79,50.95,8.3,72.91.02-.06.04-.11.06-.17l.25-.83.59.64c.44.48.72,1.1.86,1.79.58-1.73,1.16-3.47,1.74-5.21,4.2-12.63,8.54-25.69,13.37-38.33,2.52-6.61,4.44-10.03,11.13-12.82,2.5-1.05,4.96-2.44,7.34-3.78,3.05-1.73,6.21-3.51,9.53-4.62l.66-.22v20.57c1.24-3.61,2.09-7.37,2.91-11.04,1-4.41,2.03-8.97,3.73-13.26,6.99-17.58,23.47-28.08,32.68-32.76,6.27-3.2,13.4-5.96,21.8-8.45,1.02-.3,2.05-.66,3.15-1.05,4.91-1.7,10.46-3.63,14.67.24,1.59-1.96,2.96-4.05,4.18-6.23"/>
    <polyline class="cls-1" points="109.46 62.55 111.59 60.48 110.17 62.68"/>
    <line class="cls-1" x1="109.1" y1="62.89" x2="109.15" y2="62.84"/>
    <path class="cls-1" d="m133.86,205.3c-3.8-3.81-8.95-2.03-13.93-.29-1.06.37-2.16.75-3.2,1.06-8.34,2.47-15.41,5.21-21.63,8.38-9.08,4.62-25.34,14.96-32.2,32.24-1.67,4.21-2.69,8.74-3.68,13.11-1.03,4.59-2.1,9.33-3.93,13.76l-.96,2.33v-24.44c-3,1.09-5.89,2.72-8.7,4.31-2.4,1.36-4.89,2.76-7.45,3.83-6.35,2.65-8.1,5.77-10.58,12.26-4.82,12.61-9.16,25.67-13.35,38.29-1.01,3.02-2.01,6.03-3.02,9.05,0,.02,0,.04-.02.06l-.58,1.73-.38-1.77C3.78,295.82.5,269.4.5,240.69c0-7.21,1.35-15.1,2.66-22.73.6-3.5,1.16-6.8,1.6-10.02,3.19-11.69,6.07-20.31,9.96-29.83,9.95-22.32,22.93-43.47,35.49-63.93l.11-.13c19.52-16.07,39.69-32.67,58.11-50.51l.06-.06"/>
    <path class="cls-1" d="m10.62,315.38c.01.31.04.62.08.94,0-.32-.03-.64-.08-.94Z"/>
    <polyline class="cls-1" points="121.7 67.33 121.49 67.32 122.93 39.16 129.09 20.23 126.65 23.35 109.72 60.11"/>
    <polyline class="cls-1" points="108.55 60.84 108.33 60.74 125.82 22.78 131.8 15.14 123.9 39.41 122.49 67.37 122.46 67.37"/>
    <polygon class="cls-1" points="139.48 198.29 140.3 204.76 156.21 218.3 150.51 218.3 139.92 212.71 133.81 205.34 133.86 205.3 134.58 204.7 134.9 205.09 140.62 212 150.75 217.3 153.5 217.3 139.36 205.27 138.65 199.72 138.45 198.07 138.4 197.71 138.67 197.67 139.39 197.58 139.48 198.29"/>
    <polyline class="cls-1" points="337.12 65.61 337.44 61.94 335.56 45.77 327.32 15.04 340.28 33.73 351.51 63.62 352.17 64.27"/>
    <polyline class="cls-1" points="338.09 65.98 337.97 67.39 337.11 67.31"/>
    <polyline class="cls-1" points="351.7 65.21 350.65 64.18 350.62 64.08 339.37 34.14 329.78 20.32 336.54 45.58 338.44 61.93 338.44 61.98 338.1 65.85"/>
    <polyline class="cls-1" points="293.37 117.85 292.76 118.86 264.53 133.15 250.9 146.09 276.54 140.07 299.4 155.59 315.88 182.71 315.9 182.81 316.82 188.02 319.22 201.72 306.6 217.3 311.01 217.3 321.2 209.54 328.34 202.06 334.83 202.09 362.62 212.96 380.09 224.35 393.33 239.27 396.6 248.31 403.95 268.63 403.12 250.39 429.36 264.13 448.29 293.87 448.29 319.27 456.68 284.12 456.68 231.63 443.56 175.2 423.41 137.89 391.57 99.17 366.27 79.54 352.59 66.09"/>
    <polyline class="cls-1" points="339.11 79.83 333.08 84.46 323.76 94.72 310.48 107.64 298.34 109.59 294.8 115.48"/>
    <polyline class="cls-1" points="300.73 108.2 310.01 106.7 323.04 94.03 332.4 83.72 339.51 78.26 339.56 78.32"/>
    <polyline class="cls-1" points="250.38 145.21 264.01 132.29 292.05 118.1 292.67 117.06 292.68 117.06 297.73 108.68 299.56 108.38"/>
    <line class="cls-1" x1="247.84" y1="147.61" x2="249.09" y2="146.43"/>
    <polyline class="cls-1" points="352.74 64.83 366.93 78.79 392.31 98.49 424.23 137.34 444.52 174.91 457.68 231.57 457.66 284.3 447.29 327.77 447.29 294.16 428.66 264.9 404.2 252.09 405.25 275.15 392.43 239.7 379.39 225.07 362.12 213.83 334.56 203.06 328.76 203.06 321.87 210.28 311.35 218.3 304.5 218.3 318.16 201.44 314.93 183.07 298.6 156.2 276.34 141.14 247.87 147.83"/>
    <path class="cls-1" d="m56.28,219.35c-1.07,8.79-1.81,17.62-2.24,26.48l-1-.05c2.78-57.95,19.26-114.91,47.67-164.72l.87.5c-3.42,6-6.67,12.1-9.74,18.3-18.46,37.24-30.55,77.86-35.56,119.49Z"/>
    <path class="cls-1" d="m100.98,90.26c-6.91,9.07-10.97,20.29-14.62,30.36-15.35,42.4-28.12,80.84-28.91,121.91l-1-.02c.15-7.73.72-15.36,1.65-22.95,4.03-32.86,14.82-64.76,27.32-99.28,2.31-6.36,4.77-13.17,8.01-19.62,2.87-5.71,6.33-11.13,10.82-15.73l.72.69c-1.13,1.16-2.2,2.37-3.19,3.63"/>
    <path class="cls-1" d="m129.62,193.69c-3.85-8.54-7.46-16.95-9.43-25.82-.87-3.95-1.42-8.01-1.87-11.51-3.09-24.41-4.39-49.28-3.87-73.9l1,.02c-.52,24.57.78,49.39,3.87,73.76.44,3.47.98,7.51,1.85,11.41,1.94,8.78,5.54,17.13,9.36,25.63l-.91.41Z"/>
    <path class="cls-1" d="m91.98,119.37c-.04-1.46.68-2.95,1.97-4.08,1.11-.98,2.43-1.56,3.71-2.12,2.97-1.31,5.86-2.4,8.68-1.38l-.34.94c-2.47-.89-5.16.13-7.94,1.35-1.21.53-2.45,1.08-3.45,1.96-1.05.92-1.66,2.16-1.63,3.3l-1,.03Z"/>
    <path class="cls-1" d="m106.8,108.3c-3.47-.45-6.99-.46-10.46-.03l-.13-.99c3.56-.44,7.17-.43,10.72.02l-.13,1Z"/>
    <path class="cls-1" d="m121.37,110.22l-.68-.72c3.95-3.75,9.63-5.32,14.84-4.11l-.23.97c-4.88-1.13-10.22.35-13.93,3.86Z"/>
    <path class="cls-1" d="m121.21,104.95l-.59-.8c3.88-2.84,8.79-3.99,13.46-3.17l-.18.99c-4.4-.78-9.03.31-12.69,2.98Z"/>
    <path class="cls-1" d="m62.49,116.71l-.86-.53c1.49-2.41,4.58-2.68,6.3-2.64.61.02,1.22.06,1.83.11,1.6.13,3.11.25,4.56-.17l.28.96c-1.62.47-3.3.34-4.91.21-.6-.05-1.2-.09-1.79-.11-1.5-.05-4.2.19-5.41,2.17Z"/>
    <path class="cls-1" d="m48.57,130.7l-.26-.97c1.72-.46,3.2-1.69,4.63-2.89.35-.29.7-.58,1.05-.86,4.74-3.77,10.63-5.93,16.59-6.06l.02,1c-5.74.13-11.42,2.21-15.99,5.85-.34.27-.68.56-1.03.84-1.51,1.26-3.08,2.57-5.01,3.09Z"/>
    <path class="cls-1" d="m5.92,265.42c-1.02-15.39.05-30.83,3.15-45.9l.98.2c-3.09,14.99-4.14,30.34-3.14,45.63l-.99.07Z"/>
    <path class="cls-1" d="m35.46,253.2l-.17-.99c2.21-.38,4-1.94,5.89-3.59,2.05-1.79,4.17-3.64,6.88-3.84l.08.99c-2.39.18-4.29,1.84-6.3,3.6-1.92,1.67-3.9,3.4-6.38,3.83Z"/>
    <path class="cls-1" d="m64.51,229.51l-.73-.68c6.78-7.31,15.27-12.49,23.49-17.49,4.8-2.92,10.78-6.55,17.15-6.22l-.06,1c-6.06-.32-11.89,3.22-16.57,6.07-8.16,4.97-16.59,10.11-23.28,17.32Z"/>
    <path class="cls-1" d="m135.34,191.06l-.97-.25c.89-3.41,3.09-6.35,6.04-8.08l.51.86c-2.68,1.57-4.77,4.36-5.58,7.47Z"/>
    <path class="cls-1" d="m171.93,132.66c-4.8-.72-9.14-3.14-13.33-5.49-2.23-1.25-4.54-2.54-6.88-3.55-1.3-.56-2.66-1.06-3.98-1.55-2.92-1.06-5.94-2.17-8.55-4.05l.59-.81c2.49,1.8,5.45,2.88,8.3,3.92,1.33.49,2.71,1,4.04,1.57,2.39,1.03,4.72,2.34,6.97,3.6,4.11,2.3,8.37,4.68,12.98,5.37l-.14.99Z"/>
    <path class="cls-1" d="m190.59,123.9c-5.02-1.82-10.15-3.57-15.23-5.21l.31-.95c5.09,1.64,10.22,3.4,15.26,5.22l-.34.94Z"/>
    <path class="cls-1" d="m198.88,127.22c.2.59.38,1.19.55,1.78.17.6.35,1.21.56,1.8.64,1.82,2.05,3.94,3.98,3.9h.49s.07,1.91.07,1.91c1.77.44,3.64.49,5.43.13l.19.98c-.86.17-1.74.26-2.62.26-1.22,0-2.44-.17-3.62-.49l-.36-.1-.06-1.72c-1.5-.18-2.69-1.27-3.53-2.62-.38-.6-.69-1.26-.92-1.91-.21-.61-.39-1.24-.58-1.87-.44-1.55-.86-3.01-1.78-4.17l.79-.62c.64.82,1.07,1.77,1.41,2.74Z"/>
    <path class="cls-1" d="m197.35,134.06c-1.76-1.78-2.71-4.46-2.46-7.01l.99.1c-.21,2.26.62,4.64,2.18,6.21l-.71.7Z"/>
    <path class="cls-1" d="m213.45,131.97c-.28,1.09-1.29,1.8-2.97,2.1-.27.04-.55.07-.82.07-1.54,0-3.2-.73-4.84-2.14-1.58-1.36-3-3.22-4.03-5.13-1.05-1.96-1.68-3.98-1.65-5.58v-.29s.26-.13.26-.13c2.48-1.36,5.4-.19,7.3,1.37,1.28,1.05,7.62,6.45,6.75,9.73Z"/>
    <path class="cls-1" d="m200.15,121.61c.1,2.86,2.47,7.19,5.32,9.63,1.19,1.02,2.98,2.16,4.83,1.84,1.27-.22,2.01-.68,2.19-1.36.58-2.24-3.94-6.67-6.42-8.7-1.51-1.24-3.92-2.31-5.92-1.41Z"/>
    <path class="cls-1" d="m200.23,117.79v.04c-.06.02-.14.03-.21.04"/>
    <path class="cls-1" d="m199.82,117.92c-.98.21-1.96.3-2.94.3-2.68,0-5.39-.67-8.15-1.44-4.98-1.39-9.98-2.96-14.87-4.67l-.48-.17c-3.84-1.35-7.82-2.74-11.79-2.31-.03,0-.06.01-.09.01l-.11-.99c4.23-.5,8.34.95,12.32,2.35l.48.16c4.87,1.71,9.85,3.27,14.81,4.66,3.69,1.03,7.29,1.88,10.76,1.09"/>
    <path class="cls-1" d="m218.06,95.95l.1.95c-4.87.5-9.65,2.2-13.8,4.9-.47.31-.93.63-1.4.95-2.36,1.61-4.81,3.28-7.67,3.32h-.1c-2.61,0-4.89-1.35-7.09-2.67-1.36-.8-2.76-1.63-4.2-2.13-2.64-.9-5.62-.75-8.51-.6-3.88.19-7.91.4-11.14-2-.95-.71-1.76-1.6-2.53-2.46-.75-.83-1.45-1.6-2.27-2.24-1.77-1.37-3.91-1.94-6.18-2.55-1.07-.28-2.18-.58-3.24-.97-4.32-1.58-8.01-4.78-11.27-7.61l-17.41-15.11.35-.4.31-.35.45.39,16.96,14.72c3.34,2.9,6.8,5.9,10.95,7.42,1.02.38,2.11.67,3.16.95,2.26.6,4.6,1.23,6.53,2.72.89.69,1.66,1.54,2.4,2.36.78.86,1.51,1.68,2.39,2.33,2.94,2.18,6.61,1.99,10.49,1.8,2.98-.15,6.06-.31,8.88.65,1.55.53,2.99,1.39,4.39,2.22,2.21,1.32,4.34,2.59,6.66,2.53,2.57-.04,4.88-1.62,7.12-3.15.48-.32.95-.65,1.42-.95,4.04-2.64,8.66-4.35,13.38-4.97"/>
    <path class="cls-1" d="m238.46,46.89c-1.29,11.5-.67,23.22-.08,34.59.31,5.79.84,11.3,4.1,15.08"/>
    <path class="cls-1" d="m237.8,44.13c.05-.38.1-.77.16-1.15l.99.14c-.09.63-.18,1.25-.26,1.88"/>
    <path class="cls-1" d="m241.29,96.7c-3.07-3.99-3.61-9.45-3.91-15.17-.62-11.96-1.26-24.3.29-36.4"/>
    <path class="cls-1" d="m218.06,95.95l-.18.39-.69-.34-.21-.1c2.51-5.21,2.92-11.25,3.15-17.49.44-12,.43-24.16-.01-36.17,0-.1-.01-.21-.01-.31l1-.04c.45,12.14.46,24.43.02,36.56-.22,6.2-.63,12.21-3.07,17.5Z"/>
    <path class="cls-1" d="m243.99,30.47c1.37-9.24-2.88-19.79-11.06-27.24-.58-.53-1.2-1.07-1.92-1.39-2.35-1.04-5.01.59-6.05,1.33-4.58,3.31-6.84,8.57-7.92,12.4-.94,3.32-.86,7.58-.79,11.69.04,1.94.07,3.77,0,5.43v.22s-.17.15-.17.15c-5.56,4.62-7.49,12.45-8.12,18.21-.37,3.3-.05,6.7.26,9.98.29,3.01.58,6.11.36,9.19,1.15-1.99,1.33-4.64,1.49-7.23l.06-.86c.29-4.05,1.04-7.14,2.38-9.71.62-1.2,1.4-2.34,2.16-3.45,1.55-2.26,3.01-4.4,3.21-6.99l1,.08c-.23,2.85-1.83,5.2-3.39,7.48-.73,1.08-1.5,2.19-2.09,3.34-1.27,2.45-1.99,5.41-2.27,9.32l-.06.86c-.21,3.24-.45,6.91-2.83,9.2l-1.05,1.01.21-1.44c.5-3.53.16-7.18-.17-10.71-.32-3.33-.64-6.78-.27-10.18.65-5.88,2.62-13.87,8.3-18.73.07-1.58.04-3.31,0-5.15-.07-4.19-.15-8.52.83-11.98,1.12-3.98,3.48-9.46,8.3-12.94,2.49-1.79,5.06-2.32,7.04-1.44.85.38,1.55.98,2.19,1.57,8.82,8.03,13.19,19.61,11.12,29.49h-.06"/>
    <path class="cls-1" d="m243.83,34.94s-.01-.03-.01-.05"/>
    <path class="cls-1" d="m244.81,34.72c.84,2.5,2.19,4.85,3.89,6.81.2.23.4.45.61.67.75.82,1.52,1.68,2.04,2.73.69,1.41.82,3,.91,4.64.4,7.44.27,14.96-.39,22.37l-.05.54-.54-.1c-1.81-.31-1.96-2.75-2.03-3.92-.28-4.65-2.67-8.84-4.96-12.33-.5-.75-1.01-1.5-1.52-2.25-1.52-2.23-3.07-4.52-4.31-6.99-.28-.58-.55-1.16-.79-1.76-.13-.27-.24-.54-.34-.82l.47-.18.47-.17c.13.35.27.7.42,1.04,1.27,2.96,3.12,5.68,4.91,8.31.51.76,1.02,1.51,1.52,2.27,2.37,3.6,4.83,7.94,5.13,12.82.06,1.01.2,2.16.69,2.7.6-7.11.71-14.33.32-21.47-.08-1.6-.2-3.02-.81-4.26-.45-.93-1.15-1.69-1.88-2.49-.21-.23-.42-.46-.62-.69-1.74-1.99-3.11-4.35-3.99-6.89"/>
    <path class="cls-1" d="m224.46,22.54c.4.42.78.86,1.14,1.31l-.79.61c-.85-1.08-1.81-2.06-2.87-2.91-.54-.43-1.12-.85-1.77-.95-.51-.09-1.16.09-1.41.6-.17.35-.15.81-.13,1.3.03.67.06,1.43-.43,2.03l-.78-.62c.25-.31.23-.8.21-1.37s-.05-1.2.23-1.78c.42-.85,1.44-1.32,2.48-1.15.87.14,1.61.67,2.23,1.16.33.27.66.55.97.85"/>
    <path class="cls-1" d="m231.45,25.54c-.38-.68-.06-1.53.85-2.26,1.64-1.3,3.42-2.62,5.53-3.05,1.99-.4,4.66.17,5.86,2.38l-.88.48c-.91-1.69-3.09-2.22-4.78-1.88-1.9.39-3.56,1.62-5.1,2.86-.4.31-.73.75-.61.97l-.87.5Z"/>
    <path class="cls-1" d="m224.48,13.79l-.11-1c.62-.06,1.17-.53,1.49-1.24.34-.76.3-1.58-.1-2.14l.81-.59c.61.85.69,2.05.2,3.14-.46,1.04-1.32,1.72-2.29,1.83Z"/>
    <path class="cls-1" d="m234.57,13.04c-1.96-.29-3.66-1.88-4.13-3.88l.97-.23c.38,1.58,1.77,2.89,3.3,3.12l-.14.99Z"/>
    <path class="cls-1" d="m224.46,22.54c-.03.14-.08.28-.13.41l-.93-.36c.11-.3.16-.63.14-.97-.01-.44-.14-.89-.37-1.3-.38-.68-.96-1.15-1.61-1.27l.19-.98c.94.18,1.78.82,2.3,1.77.47.84.61,1.83.41,2.7Z"/>
    <path class="cls-1" d="m233.6,21.32l-.98-.22c.27-1.15,1.04-2.16,2.12-2.78,1.01-.59,2.19-.74,3.21-.43l-.29.96c-.76-.24-1.64-.11-2.42.34-.84.48-1.44,1.26-1.64,2.13Z"/>
    <path class="cls-1" d="m229.87,49.17l-.88-.49c.12-.24.24-.5.35-.78.56-1.93-.8-4.18-1.28-4.89-.27-.4-.55-.78-.83-1.17-1.05-1.43-2.13-2.9-2.42-4.73l.99-.15c.25,1.59,1.21,2.9,2.23,4.29.29.4.59.79.86,1.2.58.85,1,1.71,1.26,2.54.07-.45.09-.87.07-1.23-.15-2.36,1.36-4.7,3.51-5.46l.33.94c-1.74.62-2.96,2.53-2.84,4.46.08,1.32-.38,3.16-.95,4.58-.1.31-.23.61-.4.89Z"/>
    <polyline class="cls-1" points="244.4 30.47 244.67 30.47 244.67 31.97 244.67 33.24"/>
    <polyline class="cls-1" points="243.67 30.5 243.67 30.47 243.96 30.47"/>
    <polyline class="cls-1" points="243.83 34.89 243.82 34.89 243.67 34.89 243.67 33.27"/>
    <polygon class="cls-1" points="243.96 35.3 243.87 35.31 243.83 34.94 243.83 34.89 243.8 34.61 243.67 33.27 243.4 30.52 243.67 30.5 243.96 30.47 243.99 30.47 244.4 30.43 244.4 30.47 244.55 31.94 244.67 33.24 244.81 34.72 244.86 35.21 243.96 35.3"/>
    <path class="cls-1" d="m220.5,184.59l-6.49,8.67c3.12,1.84,3.53,6.39,3.86,10.09l.03.37c.66,7.27,3.38,14.44,7.67,20.19l.48.66-5.81.98-2.26,33.53-.67-3.79-.76,3.52-.58-.31c-.92-.48-1.71-1.19-2.32-2.05-.03,2.6-.55,5.17-1.52,7.57l-.31.75-.53-.61c-8.47-9.69-10.74-24.81-5.52-36.75.52-1.19,1.11-2.37,1.68-3.51,1.46-2.88,2.96-5.87,3.27-9.09.43-4.58-1.56-9.05-3.5-13.38-2.17-4.88-4.43-9.92-3.22-15.17l.14-.6.56.26c.14.07.25.07.37,0,.41-.22.84-1.05.97-1.89,1.39-8.75,2.28-17.64,2.65-26.52"/>
    <path class="cls-1" d="m209.7,157.3c-.21,5.14-.59,10.28-1.14,15.4-.41,3.85-.92,7.68-1.53,11.49-.16.99-.68,2.18-1.49,2.61-.21.11-.43.17-.65.17h-.02c-.75,4,.57,7.85,2.29,11.83.31.74.65,1.48.98,2.23,1.98,4.44,4.03,9.04,3.57,13.87-.32,3.41-1.87,6.48-3.36,9.46-.57,1.12-1.16,2.29-1.66,3.45-4.96,11.34-2.97,25.63,4.81,35.06,1.02-2.86,1.38-5.94,1.02-8.97l.99-.17c.32,1.44,1.19,2.72,2.35,3.53l1.55-7.16.13.7,1.76-26.11,4.98-.84c-4.12-5.78-6.73-12.86-7.37-20.04l-.04-.37c-.34-3.83-.73-8.18-3.82-9.55l-.58-.25,7.83-10.45.43.32"/>
    <path class="cls-1" d="m209.87,150.28c-.01,1.74-.05,3.48-.11,5.23"/>
    <line class="cls-1" x1="209.11" y1="148.48" x2="209.54" y2="148.48"/>
    <path class="cls-1" d="m208.7,156.98c.1-2.42.16-4.84.18-7.26"/>
    <line class="cls-1" x1="250.73" y1="169.3" x2="251.96" y2="178.56"/>
    <polyline class="cls-1" points="248.37 159.14 246.71 146.67 247.7 146.54 247.84 147.61 247.87 147.83 250.59 168.29"/>
    <line class="cls-1" x1="249.45" y1="167.31" x2="248.54" y2="160.49"/>
    <line class="cls-1" x1="250.88" y1="178.08" x2="249.65" y2="168.81"/>
    <path class="cls-1" d="m241,187.35c1.52,1.39,2.74,3.18,3.49,5.14l.16.42-3.14,1.58-.26,15.43c-.02,1.33-.04,2.83-.62,4.16-.51,1.16-1.35,2.05-2.17,2.92-.41.43-.84.88-1.2,1.34-.97,1.25-1.51,3.15-.63,4.25l2.89,1.79-.55,32.78c1.79-.48,3.38-1.84,4.14-3.61l.76-1.78,1.16,11.42c4.13-2.75,7.03-7.34,7.82-12.42.66-4.24-.11-8.55-.86-12.72l-2.18-12.21c-1.75-9.72-3.08-20.71,3.14-28.14l.42-.48c.6-.7,1.18-1.36,1.46-2.16.62-1.78-.29-3.59-1.26-5.52-.32-.64-.66-1.3-.92-1.96-.74-1.82-1-3.77-1.26-5.66l-.35-2.66"/>
    <path class="cls-1" d="m252.11,179.7l.28,2.09c.24,1.82.49,3.71,1.18,5.41.26.62.58,1.27.9,1.9,1.02,2.02,2.07,4.11,1.3,6.29-.34.99-1.01,1.75-1.65,2.48-.13.16-.27.31-.4.47-5.95,7.1-4.63,17.83-2.93,27.32l2.19,12.22c.76,4.25,1.55,8.64.86,13.04-.88,5.64-4.23,10.71-8.97,13.56l-.68.4-.96-9.54c-1.13,1.55-2.85,2.65-4.69,2.93l-.59.09.56-33.43-2.6-1.63c-.61-.71-.8-1.62-.71-2.56.11-1.06.6-2.15,1.27-3.01.4-.51.84-.97,1.26-1.42.8-.84,1.55-1.63,1.98-2.62.5-1.16.52-2.55.54-3.78l.27-16.05,2.86-1.43c-.89-2.12-2.36-3.97-4.18-5.27"/>
    <path class="cls-1" d="m249.46,138.12c1.08,1.45,1.82,2.99,1.75,4.64"/>
    <path class="cls-1" d="m246.3,125.86c-.82.87-1.59,1.74-2.33,2.58-.58,1.9.33,4.1,2.8,6.7"/>
    <path class="cls-1" d="m250.19,142.97c.23-2.37-1.63-4.61-3.7-6.68-3.12-3.13-4.25-5.83-3.44-8.26l.1-.18c4.07-4.58,9.14-10.29,15.86-11.89,2.59-.61,5.28-.57,7.88-.53l1.1.02c4.45.04,9.67-.16,14.49-2.03,1.72-.67,3.46-1.56,5.14-2.43,4.23-2.18,8.6-4.43,13.25-3.41l-.14.62-.08.36c-.36-.08-.72-.14-1.07-.18h-.02c-3.89-.41-7.58,1.5-11.48,3.5-1.71.88-3.47,1.79-5.23,2.47-4.99,1.94-10.32,2.14-14.87,2.1l-1.11-.02c-2.54-.04-5.16-.08-7.63.51-.66.16-1.29.35-1.92.59-3.31,1.24-6.21,3.52-8.77,6.01"/>
    <path class="cls-1" d="m251.17,143.23c0,.14-.04.29-.07.43l-.12-.03"/>
    <path class="cls-1" d="m337.11,67.31c-7.39,9.88-17.66,17.44-29.06,21.35l-.93.31c-2.04.69-4.16,1.4-5.83,2.76-1.01.83-1.87,1.92-2.7,2.97-.98,1.24-2,2.53-3.32,3.47-3,2.13-6.9,2.05-10.35,1.99h-.21c-5.6-.12-11.42.17-16.21,3.02-.32.2-.65.41-.98.62-1.14.73-2.32,1.48-3.69,1.74-.37.07-.74.11-1.12.11-1.8,0-3.54-.76-4.99-1.39l-15.86-6.87h0s-.73-.32-.73-.32l.16-.37.24-.55.95.41,15.64,6.79c1.62.7,3.63,1.57,5.53,1.21,1.18-.23,2.22-.9,3.33-1.61.34-.21.67-.43,1.01-.63,5.01-2.98,11.01-3.28,16.74-3.17h.21c3.45.08,7.02.15,9.75-1.8,1.2-.85,2.13-2.03,3.12-3.27.86-1.09,1.75-2.22,2.85-3.12,1.81-1.48,4.01-2.22,6.15-2.93l.92-.31c11.63-4,22.05-11.84,29.39-22.11.08-.1.15-.2.22-.3l.76.54.06.04s-.04.06-.07.09c-.31.45-.63.89-.98,1.33Z"/>
    <path class="cls-1" d="m266.83,123.57c-.89,0-1.78-.07-2.67-.22l.17-.99c4.76.8,9.76-.73,13.36-4.09l.69.73c-3.17,2.95-7.34,4.57-11.55,4.57Z"/>
    <path class="cls-1" d="m272.13,126.84l-.54-.85,14.79-9.33c.97-.61,1.93-1.29,2.11-2.29l.98.17c-.24,1.4-1.44,2.27-2.55,2.96l-14.79,9.34Z"/>
    <path class="cls-1" d="m261.73,134.39l-.86-.5c1.73-2.99,3-6.23,3.74-9.63l.98.21c-.77,3.51-2.07,6.85-3.86,9.92Z"/>
    <path class="cls-1" d="m257.35,117.62c.57-.21,1.18-.29,1.84-.14,1.63.36,2.59,1.98,2.82,3.43.23,1.51-.16,3.05-.58,4.35-1.24,3.89-3.12,7.47-5.58,10.65-.94,1.22-2.13,2.5-3.74,2.76-.2.03-.4.05-.59.05-.74,0-1.43-.23-2.06-.6-1.13-.67-2.06-1.82-2.69-2.98-.09-.17-.17-.33-.25-.49-1.26-2.65-1.7-6.18-.22-8.79t.01-.01c.24-.45.55-.87.92-1.25.4-.42.85-.76,1.32-1.06.67-.41,1.38-.73,2.1-1.03v-.26c.36.02.68-.04,1-.16.1-.04.19-.07.28-.11.86-.41,1.65-1.22,2.48-2.05.92-.94,1.85-1.89,2.94-2.31Z"/>
    <path class="cls-1" d="m251.98,123.04c-.14.06-.28.11-.42.17-1.36.56-2.65,1.08-3.61,2.08-2.2,2.28-1.81,6.23-.53,8.94.85,1.79,2.55,3.77,4.53,3.45,1.27-.2,2.29-1.32,3.11-2.38,2.39-3.09,4.22-6.57,5.42-10.35.4-1.25.74-2.58.54-3.89-.14-.89-.65-1.92-1.49-2.39l-.06.27c-1.25-.26-2.38.7-3.56,1.7-.43.36-.86.73-1.31,1.05-.7.49-1.46.86-2.23,1.19-.13.06-.26.11-.39.16Z"/>
    <path class="cls-1" d="m291.13,132.99l-.65-.76c7.83-6.67,17.06-11.88,26.69-15.05l.32.95c-9.51,3.13-18.63,8.27-26.36,14.86Z"/>
    <path class="cls-1" d="m336.87,110.98c-1.41-2.43-3.13-5.11-5.71-6.22-1.94-.83-4.04-.69-6.28-.53-1.5.1-3.05.21-4.57,0-1.1-.16-1.78-.74-1.79-1.53h1c0,.29.56.48.93.54,1.41.19,2.92.09,4.37-.01,2.25-.16,4.58-.32,6.73.61,2.86,1.23,4.69,4.07,6.18,6.64l-.86.5Z"/>
    <path class="cls-1" d="m339.1,103.44c-3.31-3.84-8.89-5.42-13.59-3.85l-.31-.95c5.07-1.7,11.1,0,14.65,4.15l-.75.65Z"/>
    <path class="cls-1" d="m341.12,83.16c-2.79,2.05-5.43,4.33-7.89,6.78l-.7-.71c2.48-2.49,5.17-4.79,7.99-6.87.41-.3.81-.59,1.22-.88l.58.81c-.4.28-.8.57-1.2.87Z"/>
    <path class="cls-1" d="m365.83,107.87l-.55.84c-4.24-2.76-9.77-3.31-14.43-1.43l-.37-.93c4.96-2,10.84-1.41,15.35,1.52Z"/>
    <path class="cls-1" d="m367.24,118.18c-.85-2.51-3.14-4.55-6.15-5.48-2.7-.83-5.61-.74-8.6-.57l-.06-1c3.09-.18,6.09-.26,8.95.62,3.32,1.01,5.86,3.3,6.8,6.11l-.94.32Z"/>
    <path class="cls-1" d="m394.72,115.56c-3.31-.79-6.85-.92-10.2-.37l-.17-.99c3.5-.57,7.16-.44,10.61.39l-.24.97Z"/>
    <path class="cls-1" d="m412.17,131.69c-1.07,0-2.32-.78-3.65-2.29-5.62-6.39-13.92-9.87-22.18-9.32l-.06-1c8.58-.57,17.17,3.04,22.99,9.66.72.81,2.51,2.61,3.61,1.68l.65.76c-.41.34-.86.51-1.36.51Z"/>
    <path class="cls-1" d="m438.69,177.72c-2.65-7.24-6.14-14.12-10.38-20.47l-.24-.36c-2.58-3.84-5.49-8.2-4.6-12.91l.98.18c-.81,4.32,1.98,8.49,4.45,12.17l.24.37c4.29,6.41,7.82,13.37,10.48,20.68l-.93.34Z"/>
    <path class="cls-1" d="m453.92,261.6l-1-.06c.28-4.75-.25-9.57-.76-14.24l-2.96-26.98,1-.11,2.95,26.98c.52,4.71,1.05,9.58.77,14.41Z"/>
    <polygon class="cls-1" points="453.16 287.22 452.17 287.1 453.58 275.24 454.57 275.35 453.16 287.22"/>
    <path class="cls-1" d="m417.05,253.17c-2.94-.71-5.8-2.05-8.27-3.87l.6-.81c2.36,1.75,5.09,3.03,7.91,3.71l-.24.97Z"/>
    <path class="cls-1" d="m366.79,107.4c-4.13-8.21-8.56-16.24-12.93-24.16l.87-.48c11.62,21.04,23.63,42.79,29.37,66.88,1.25,5.24,2.2,10.64,3.13,15.86,1.25,7.06,2.54,14.35,4.57,21.32.76,2.61,1.64,5.24,2.5,7.79,1.4,4.16,2.85,8.47,3.81,12.85,2.96,13.51,1.4,27.39-.1,40.82l-1-.12c1.5-13.34,3.05-27.14.12-40.48-.95-4.34-2.39-8.62-3.78-12.76-.86-2.55-1.74-5.19-2.51-7.82-2.05-7.02-3.34-14.34-4.6-21.43-.92-5.2-1.87-10.59-3.11-15.8-3.55-14.91-9.54-28.95-16.34-42.47Z"/>
    <path class="cls-1" d="m402.89,244.9l-1-.06c1.04-17.42-2.82-34.67-6.55-51.36l-6.87-30.72c-1-4.46-2.03-9.08-3.16-13.58-5.85-23.26-14.76-45.54-26.5-66.22l.87-.49c11.78,20.75,20.73,43.12,26.6,66.47,1.13,4.51,2.17,9.13,3.17,13.6l6.86,30.72c3.75,16.75,7.62,34.08,6.58,51.64Z"/>
    <path class="cls-1" d="m345.72,115.09c-1.21,19.1-5.7,37.9-13.33,55.5-.51,1.16-1.02,2.32-1.54,3.48-3.08,6.91-6.27,14.05-6.46,21.63l-1-.03c.19-7.78,3.42-15.01,6.55-22,.51-1.16,1.03-2.32,1.53-3.47,11.51-26.54,15.9-57.08,12.36-85.99l.99-.12c1.26,10.33,1.56,20.71.9,31Z"/>
    <path class="cls-1" d="m349.57,106.31c-.65,15.01-1.96,30.02-3.9,44.85-.76,5.73-1.6,11.32-3.54,16.65-1.76,4.86-4.42,9.34-6.98,13.68-2.43,4.1-4.94,8.34-6.67,12.86l-.94-.36c1.76-4.59,4.3-8.87,6.75-13.01,2.54-4.3,5.17-8.74,6.91-13.51,1.9-5.23,2.73-10.76,3.47-16.44,1.56-11.85,2.7-23.81,3.43-35.8.73-11.86,1.04-23.75.95-35.59h1c.07,8.86-.09,17.77-.48,26.67Z"/>
    <path class="cls-1" d="m321,188.47c-.91-2.74-2.12-5.38-3.6-7.82l.85-.52c1.53,2.51,2.77,5.21,3.7,8.03l-.95.31Z"/>
    <path class="cls-1" d="m389.89,223.59c-2.32-3.98-6.08-6.8-9.45-9.03-7.36-4.87-15.34-8.6-23.72-11.09l.28-.96c8.48,2.52,16.55,6.29,24,11.22,3.46,2.29,7.33,5.2,9.75,9.36l-.86.5Z"/>
    <path class="cls-1" d="m123.24,90.8c-1.83-3.46-4-6.74-6.45-9.75l.77-.63c2.49,3.06,4.7,6.39,6.56,9.91l-.88.47Z"/>
    <path class="cls-1" d="m109.1,62.89c-.04.22-.08.44-.11.66l-.5-.07-.49-.07c.13-.86.31-1.72.55-2.57.1-.34.2-.69.32-1.03l.85.3.09.03c-.3.89-.54,1.82-.71,2.75Z"/>
    <path class="cls-1" d="m118.51,78.26l.02.06-5.04,1.29c-.44.12-.86.45-.93.66l-.76.7c-.24-.29-.3-.66-.19-1.02.22-.63.98-1.14,1.63-1.3l2.56-.66"/>
    <path class="cls-1" d="m79.83,92.43l-.65-.76c2.31-1.96,5.21-3.04,8.18-3.05.49-.01,1.01.03,1.51.06.82.05,1.59.1,2.36,0,.64-.08,2.22-.38,2.92-1.67l.88.48c-.66,1.19-2,1.99-3.69,2.18-.85.1-1.7.05-2.53,0-.48-.03-.95-.05-1.44-.06-2.74.01-5.41,1.01-7.54,2.81Z"/>
    <path class="cls-1" d="m101.78,89.25c1.28-.3,2.68.13,4.03.55,1.66.5,3.22.98,4.36.08l.62.78c-.67.54-1.41.73-2.19.73-1,0-2.05-.32-3.08-.64-1.63-.49-3.16-.96-4.34-.18l-.2-.31-.35-.52c.37-.25.76-.4,1.15-.49Z"/>
    <path class="cls-1" d="m228.1,163.69l-1.66-10.06c-.3-1.86-.65-3.96-.31-6,.32-1.83,1.41-4.07,3.52-4.87l.31-.12.22.23c2.55,2.6,3.62,5.67,3.09,8.89-.49,2.95-2.38,6.58-3.91,9.49l-1.26,2.44Z"/>
    <path class="cls-1" d="m229.71,143.82c-1.53.75-2.34,2.52-2.59,3.98-.32,1.87,0,3.8.31,5.67l1.17,7.09c1.47-2.81,3.23-6.25,3.68-8.97.46-2.78-.43-5.46-2.57-7.77Z"/>
    <path class="cls-1" d="m229.58,134.7c-.06,0-.12,0-.18-.01-1.2-.14-2.25-2.19-3.41-6.65l-.03-.12c-.49-1.88-.97-4.33-.26-6.63.64-2.11,2.65-4.21,5.06-3.98l.28.03.12.26c1.02,2.17,1.78,4.47,2.28,6.83.24,1.13.46,2.47.3,3.82-.17,1.32-1.88,6.45-4.16,6.45Z"/>
    <path class="cls-1" d="m230.38,118.29c-1.71.01-3.22,1.63-3.73,3.29-.63,2.06-.18,4.34.27,6.09l.04.12c1.43,5.5,2.38,5.88,2.56,5.9,1.29.16,3.03-3.97,3.22-5.56.15-1.21-.05-2.44-.28-3.49-.46-2.19-1.16-4.32-2.08-6.35Z"/>
    <path class="cls-1" d="m229.51,104.8l-.26.96c-2.28-.62-3.45-3.1-3.56-5.15-.12-2.1.58-4.11,1.37-6.15.38-.99.97-2.15,2.12-2.29,1.04-.12,1.98.66,2.64,2.2.92,2.15,1.3,4.07,1.18,5.87-.16,2.23-1.17,4.23-2.71,5.35l-.59-.8c1.31-.95,2.17-2.68,2.3-4.62.11-1.64-.25-3.41-1.1-5.4-.17-.4-.81-1.72-1.6-1.6-.63.07-1.05.98-1.31,1.65-.75,1.94-1.41,3.83-1.3,5.74.1,1.75,1.1,3.77,2.82,4.24Z"/>
    <path class="cls-1" d="m211.98,145.2l1-.09c.15,1.85,1.3,3.35,2.5,4.93.47.61.95,1.24,1.37,1.9,2.67,4.15,2.89,9.87.54,14.24-1.63,3.02-4.26,5.23-7.04,7.42l-.62-.78c2.7-2.12,5.24-4.26,6.78-7.12,2.18-4.05,1.98-9.36-.5-13.22-.4-.62-.87-1.24-1.32-1.83-1.24-1.63-2.53-3.32-2.71-5.45Z"/>
    <polygon class="cls-1" points="217.95 142.23 217.55 134.49 218.55 134.44 218.95 142.18 217.95 142.23"/>
    <polygon class="cls-1" points="239.83 144.43 239.48 134.48 240.48 134.44 240.83 144.4 239.83 144.43"/>
    <path class="cls-1" d="m242.71,153.37c-1.92,3.23-2.24,7.52-.62,10.96.55,1.17,1.32,2.26,2.06,3.31.94,1.35,1.92,2.75,2.51,4.36.17.45.3.92.44,1.38.24.85.47,1.66.9,2.36.65,1.06,1.66,1.77,2.88,2.34.34.17.71.33,1.08.48.28.11.56.22.85.33l-.36.94c-.11-.04-.22-.09-.34-.13-.34-.13-.7-.28-1.07-.44-1.44-.62-2.98-1.5-3.9-3-.49-.82-.75-1.73-1.01-2.6-.12-.44-.25-.88-.41-1.31-.54-1.49-1.44-2.77-2.39-4.13-.76-1.09-1.55-2.22-2.14-3.46-1.86-3.91-1.38-8.84.99-12.41"/>
    <path class="cls-1" d="m242.85,151.44c.31-.39.65-.76,1.02-1.1l.68.74c-.44.41-.84.86-1.21,1.34"/>
    <polygon class="cls-1" points="210.02 166.47 209.26 165.83 215.22 158.8 215.98 159.45 210.02 166.47"/>
    <path class="cls-1" d="m209.7,157.3c-.15.2-.29.4-.42.6l-.59-.39-.24-.16c.08-.12.16-.25.25-.37.33-.5.68-.99,1.06-1.47.94-1.29,1.98-2.52,3.08-3.67l.72.69c-1.4,1.47-2.7,3.07-3.86,4.77Z"/>
    <path class="cls-1" d="m248.54,160.49l-.09.1c-2.28-2.06-4.22-4.51-5.74-7.22-.18-.34-.36-.68-.53-1.02-.49-.96-.92-1.95-1.3-2.96l.94-.35c.3.82.64,1.62,1.03,2.4.15.33.32.66.49.98,1.33,2.49,3.02,4.77,5.03,6.72.24.24.49.48.75.71l-.58.64Z"/>
    <path class="cls-1" d="m250.73,169.3l-.17.23c-.31-.23-.62-.47-.91-.72-2.56-2.11-4.6-4.85-5.94-7.97l.91-.39c1.14,2.62,2.78,4.96,4.83,6.86.37.35.75.68,1.14.98.18.16.37.3.56.44l-.42.57Z"/>
    <path class="cls-1" d="m266.45,109.36c-.91,0-1.83-.17-2.72-.57l.4-.91c3.07,1.34,6.56-.42,9.58-2.32,2.95-1.86,6.63-4.18,10.37-3.12l-.28.96c-3.3-.94-6.77,1.25-9.56,3.01-2.41,1.52-5.12,2.95-7.79,2.95Z"/>
    <path class="cls-1" d="m255.4,112.85c-3.18-.21-6.4-.54-9.56-.99l.14-.99c3.13.45,6.33.78,9.48.98l-.06,1Z"/>
    <path class="cls-1" d="m240.31,124.25l-.95-.31c.76-2.3,2.06-4.39,3.77-6.04l.7.72c-1.59,1.54-2.81,3.48-3.52,5.63Z"/>
    <polygon class="cls-1" points="211.04 113.19 198.37 112.38 198.43 111.38 211.1 112.19 211.04 113.19"/>
    <path class="cls-1" d="m218.83,122.84c-1.11-2.02-2.55-3.78-4.28-5.23l.64-.77c1.83,1.54,3.34,3.4,4.51,5.52l-.87.48Z"/>
    <polygon class="cls-1" points="193.33 108.75 176.77 104 177.05 103.04 193.61 107.79 193.33 108.75"/>
    <path class="cls-1" d="m157.22,105.61c-1.35-1.59-3.02-2.93-4.83-3.88l.46-.89c1.93,1.01,3.7,2.44,5.13,4.12l-.76.65Z"/>
    <path class="cls-1" d="m218.56,105.51c-2.31,0-4.63-.2-6.9-.62l.17-.98c2.99.54,6.04.72,9.07.53l.06,1c-.8.05-1.6.07-2.4.07Z"/>
    <polygon class="cls-1" points="229.84 81.79 228.85 81.66 229.57 76.13 230.56 76.26 229.84 81.79"/>
    <rect class="cls-1" x="229.23" y="63.66" width="1" height="2.95"/>
    <rect class="cls-1" x="228.88" y="51.49" width="1" height="4.05"/>
    <path class="cls-1" d="m213.71,44.22l-.98-.2c.39-1.9,1.06-3.72,1.99-5.4l.88.49c-.89,1.59-1.52,3.31-1.89,5.11Z"/>
    <path class="cls-1" d="m248.63,53.13c-1.07-2.94-2.74-5.68-4.83-7.94l.73-.68c2.18,2.35,3.92,5.22,5.04,8.28l-.94.34Z"/>
    <path class="cls-1" d="m302.07,105.15l-.28-.96c1.72-.49,3.34-1.38,4.7-2.57l.66.75c-1.47,1.29-3.23,2.26-5.08,2.78Z"/>
    <path class="cls-1" d="m308.21,114.03l-.48-.88c1.8-.98,3.42-2.4,4.66-4.09l.8.59c-1.32,1.81-3.05,3.33-4.98,4.38Z"/>
    <polygon class="cls-1" points="373.69 90.81 361.09 82.2 361.66 81.37 374.25 89.98 373.69 90.81"/>
    <path class="cls-1" d="m347.02,74.99c.86-.13,1.68-.28,2.31-.42l3.51-.78.21.98-3.51.78c-1.1.24-2.96.57-4.59.65"/>
    <path class="cls-1" d="m343,76.07l.16-.92c.41.07.94.08,1.52.05"/>
    <path class="cls-1" d="m338.94,71.87l-.13-.99c1.96-.25,3.88-1.1,5.41-2.4l.65.77c-1.68,1.42-3.79,2.35-5.93,2.62Z"/>
    <path class="cls-1" d="m408.27,121.18c-2.04-1.38-3.46-3.46-4.83-5.48-.79-1.15-1.6-2.35-2.52-3.38-1.61-1.82-3.64-3.26-5.6-4.65-1.74-1.23-3.54-2.5-5.08-4.06-1.79-1.79-3.18-3.9-4.42-5.91l.84-.53c1.22,1.96,2.58,4.01,4.29,5.74,1.48,1.49,3.25,2.74,4.95,3.95,2.01,1.42,4.08,2.89,5.77,4.8.96,1.08,1.79,2.3,2.59,3.48,1.38,2.02,2.69,3.94,4.57,5.21l-.56.83Z"/>
    <path class="cls-1" d="m294.8,115.48c1.47-1.44,2.74-3.11,3.74-4.93l.87.48c-1.48,2.7-3.54,5.1-5.95,6.94l-.09-.12-.52-.68c.68-.52,1.33-1.09,1.95-1.69Z"/>
    <path class="cls-1" d="m321.6,196.03c.24,1.2.44,2.41.6,3.63l-.99.13c-.55-4.11-1.54-8.15-2.96-12.02l.94-.34c1.02,2.79,1.83,5.67,2.41,8.6Z"/>
    <polygon class="cls-1" points="240.3 255.86 239.38 255.48 241.22 251.04 242.15 251.42 240.3 255.86"/>
    <path class="cls-1" d="m243.59,232.58l-.69-.72c1.38-1.32,1.78-3.62.94-5.36l.91-.44c1.01,2.12.52,4.92-1.16,6.52Z"/>
    <polygon class="cls-1" points="248.12 246.41 247.17 239.53 248.16 239.39 249.11 246.27 248.12 246.41"/>
    <path class="cls-1" d="m213.5,247.88l-.98-.19c.5-2.51-.03-5.27-1.42-7.38l.84-.55c1.52,2.32,2.11,5.36,1.56,8.12Z"/>
    <path class="cls-1" d="m213.97,234.05c-.1-2.02.07-4.05.5-6.02l.98.21c-.42,1.89-.58,3.83-.48,5.77l-1,.04Z"/>
    <path class="cls-1" d="m205.44,246.67c-1.09-3.17-.27-6.5.52-9.71.68-2.77,1.39-5.64.84-8.34l.98-.2c.59,2.92-.14,5.9-.85,8.78-.79,3.21-1.54,6.25-.55,9.14l-.94.33Z"/>
    <path class="cls-1" d="m229.1,184.94l-2.55-4.16c-.52-.84-1.1-1.79-1.25-2.9-.02-.13-.03-.27-.03-.43,0-2.21,1.76-6.68,3.89-7.03.62-.1,1.22.07,1.79.5,1.46,1.11,2.39,3.83,2.55,5.31.36,3.21-1.85,5.93-3.95,8.22l-.45.49Z"/>
    <path class="cls-1" d="m229.5,171.39c-.06,0-.12,0-.18.02-1.52.25-3.26,4.68-3.03,6.33h0c.12.91.65,1.76,1.11,2.52l1.86,3.02c1.8-2.02,3.54-4.36,3.25-6.94-.15-1.33-1.01-3.74-2.16-4.62-.29-.22-.57-.33-.85-.33Z"/>
    <path class="cls-1" d="m221.57,182.87c-1.02-1.9-1.75-4-2.14-6.15-.44.97-1.03,1.87-1.74,2.63l-.73-.68c1.1-1.18,1.88-2.71,2.2-4.32l.72-3.62.27,3.68c.2,2.79.99,5.55,2.3,7.99l-.88.47Z"/>
    <path class="cls-1" d="m238.72,183.01l-.93-.37c.32-.78.73-1.49,1.13-2.18.27-.47.53-.93.77-1.41.68-1.36.89-2.56.63-3.56l.96-.29,1.94,5.36c.24.66.52,1.28.99,1.42l-.29.96c-1.01-.3-1.42-1.43-1.64-2.04l-1.08-2.98c-.14.51-.34,1.03-.61,1.58-.25.5-.52.98-.8,1.46-.4.69-.78,1.34-1.07,2.05Z"/>
    <path class="cls-1" d="m210.11,149.55c.08.09.16.17.24.25l-.48.48-.23.23c-.26-.26-.51-.52-.76-.79-.61-.65-1.2-1.33-1.77-2.03-.18-.23-.37-.46-.55-.7l.77-.59.02-.02c.56.72,1.15,1.42,1.76,2.1.16.19.33.37.5.55"/>
    <path class="cls-1" d="m204.01,143.44l-.16.59c-9.78-2.71-19.3-4.88-28.14-1.79-1.67.58-2.59,1.33-2.82,2.3l-.42-.1-.55-.13c.09-.39.25-.75.48-1.08.57-.8,1.56-1.44,2.98-1.94,8.96-3.12,18.45-1.05,28.2,1.63.18.04.35.09.53.14l-.1.38Z"/>
    <path class="cls-1" d="m238.95,187.19c-3.23,8-4.33,16.72-5.33,26.45-.23,2.23-.46,4.53-.69,6.88-1.31,13.32-2.51,28.34-2.71,43.55-.02,1.61-.05,3.61.67,5.26.25.57.58,1.09.94,1.64.47.75.96,1.53,1.24,2.42.38,1.26.3,2.6.18,3.76-.38,3.97-1.22,7.88-2.5,11.64l-.25.74-.36-.34"/>
    <path class="cls-1" d="m231.92,279.76c.14-.9.25-1.8.34-2.71.11-1.11.18-2.29-.15-3.36-.24-.77-.67-1.46-1.13-2.18-.36-.56-.72-1.14-1-1.78-.68-1.54-.77-3.28-.77-4.79,0-.31.01-.6.01-.88.17-11.84.92-23.56,1.86-34.45.48-5.61,1.02-11,1.54-16.07,1.04-10.02,2.18-18.99,5.62-27.26l.5.21"/>
    <path class="cls-1" d="m229.98,287.64l.07.07c.66-2.03,1.19-4.11,1.58-6.22"/>
    <path class="cls-1" d="m229.11,288.18c-3.03-3.03-5.59-6.38-5.26-10.32.13-1.46.65-2.82,1.16-4.14.24-.62.49-1.27.69-1.9,1-3.24.85-6.78.7-10.2v-.22c-.54-12.21-.58-24.54-.15-36.82.15-4.31.36-8.62.63-12.91l.05-.87c.3-4.63.6-9.42-.15-14.02-.86-5.26-3.08-9.58-6.28-12.19-.12-.11-.24-.21-.36-.3l.59-.78h.01c.1.07.2.14.29.23.03.01.05.03.07.05,3.41,2.78,5.77,7.31,6.67,12.83.77,4.71.46,9.55.16,14.24l-.05.87c-.19,2.94-.34,5.9-.47,8.85-.6,13.58-.6,27.26-.02,40.78v.22c.05,1.12.11,2.25.12,3.38.02,2.42-.13,4.84-.85,7.15-.21.67-.47,1.33-.72,1.97-.5,1.31-.98,2.54-1.09,3.87-.27,3.23,1.66,6.04,3.96,8.49"/>
    <path class="cls-1" d="m231.28,198.41l-.9-.43c1.15-2.41,1.35-5.26.55-7.83l.96-.29c.87,2.8.64,5.91-.61,8.55Z"/>
    <path class="cls-1" d="m228.91,285.2c-.29-2.45-.87-4.86-1.71-7.17l.94-.34c.87,2.38,1.46,4.86,1.76,7.39l-.99.12Z"/>
    <polygon class="cls-1" points="231.63 281.49 231.37 281.56 230.48 278.3 231.45 278.04 231.92 279.76 232.34 281.3 231.63 281.49"/>
    <path class="cls-1" d="m230.14,289.19l-.75.1c-.05-.38-.15-.75-.28-1.11-.17-.51-.43-.98-.75-1.41l.45-.33.35-.26c.34.45.61.94.82,1.46.19.49.33,1,.4,1.52l-.24.03Z"/>
    <rect class="cls-1" x="228.43" y="220.62" width="1" height="8.85"/>
    <path class="cls-1" d="m241,187.35l-.51.41c-.32-.39-.8-.61-1.29-.6-.08,0-.17.02-.25.03-.01.01-.03.01-.04.01l-.17-.71-.06-.27c.94-.22,1.97.15,2.59.91l-.27.22Z"/>
    <path class="cls-1" d="m121.19,77.95l-.02.44-.81-.04-1.85-.09-2.05-.1c-.15-.01-.42-.02-.66-.17-.08-.04-.15-.11-.22-.19-.21-.25-.22-.54-.23-.75-.06-.85-.85-1.36-1.61-1.85l-.32-.21c-1.84-1.23-3.24-3.21-3.95-5.59-.42-1.38-.6-2.89-.53-4.46.02-.69.09-1.39.21-2.1.02-.11.04-.23.06-.34l.25.05.71.13h.03c-.43,2.28-.35,4.5.23,6.44.64,2.15,1.9,3.94,3.55,5.04l.31.2c.87.57,1.96,1.27,2.05,2.52v.12c.01.05.01.12.02.16.01-.01.06,0,.14,0l4.72.23-.03.56Z"/>
    <path class="cls-1" d="m339.21,79.94l-.1-.11-.58-.62c.33-.31.68-.61,1.03-.89.91-.74,1.88-1.4,2.89-1.96.18-.1.36-.2.55-.29.31-.17.62-.33.94-.49.24-.12.49-.25.74-.38.52-.26,1.05-.55,1.54-.87,2.99-1.94,5.07-5.45,5.48-9.12.04-.32.06-.63.07-.95h.4s.6.03.6.03l-.03.54c-.03.42-.08.84-.15,1.26-.6,3.6-2.63,6.89-5.57,8.9-.08.06-.17.12-.26.18-.59.38-1.2.71-1.81,1.03-.19.09-.38.19-.56.28-.49.24-.98.49-1.45.75-1.34.75-2.6,1.66-3.73,2.71Z"/>
    <path class="cls-1" d="m209.88,149.59l-.19.03c-.03-.2-.06-.39-.08-.59-.04-.18-.06-.37-.07-.55-.3-2.9.18-5.89,1.35-8.52.48-1.07,1.07-2.08,1.64-3.06.7-1.21,1.43-2.46,1.92-3.79.12-.33.22-.66.32-1,1.07-4.03-.06-8.68-2.9-11.62-2.98-3.07-7.7-4.16-11.64-2.7-.07.03-.14.05-.21.08-.06.03-.13.05-.19.08v-.03s-.38-.89-.38-.89c.1-.04.21-.08.31-.12,4.31-1.67,9.55-.51,12.82,2.88,3.35,3.46,4.5,9.08,2.81,13.67-.52,1.4-1.27,2.69-2,3.94-.56.96-1.13,1.95-1.59,2.97-.67,1.5-1.09,3.12-1.26,4.78-.15,1.43-.11,2.88.13,4.3l-.56.1-.23.04Z"/>
    <path class="cls-1" d="m250.38,145.21c-.17.47-.3.95-.42,1.43l-.87-.21-.1-.02c.28-1.19.68-2.35,1.2-3.44.09-.2.18-.4.28-.59l.74.38.15.08c-.07.13-.13.26-.19.39-.07.13-.13.27-.19.4-.23.52-.43,1.04-.6,1.58Z"/>
    <path class="cls-1" d="m210.49,193.26c-.26.96-.33,1.99-.17,2.98.34,2.05,1.64,3.9,3.41,4.83l-.47.88c-1.53-.8-2.76-2.2-3.43-3.84-.23-.55-.4-1.12-.5-1.71-.38-2.34.36-4.87,1.94-6.58l.74.67c-.71.77-1.23,1.74-1.52,2.77Z"/>
    <path class="cls-1" d="m243.91,197.06l-.42-.91c2.1-.95,3.3-3.68,2.63-5.97l.96-.28c.8,2.75-.65,6.02-3.17,7.16Z"/>
  </g>
</svg>